<?xml version="1.0" encoding="utf-8"?>
<!-- Generator: Adobe Illustrator 18.1.1, SVG Export Plug-In . SVG Version: 6.00 Build 0)  -->
<!DOCTYPE svg PUBLIC "-//W3C//DTD SVG 1.1//EN" "http://www.w3.org/Graphics/SVG/1.1/DTD/svg11.dtd">
<svg version="1.1" id="Layer_1" xmlns="http://www.w3.org/2000/svg" xmlns:xlink="http://www.w3.org/1999/xlink" x="0px" y="0px"
	 viewBox="0 0 781 781" style="enable-background:new 0 0 781 781;" xml:space="preserve">
<style type="text/css">
	.st0{fill:#7BD2F6;}
	.st1{fill:#E4DE8D;}
</style>
<circle class="st0" cx="391.2" cy="390.5" r="390.5"/>
<g>
	<g>
		<g>
			<path class="st1" d="M1291.7,790.1c0.6-3.5,1.3-7.1,1.8-10.6c1.1-7.7,1.5-15.5,1.2-23.2c-0.7-16-4.2-31.2-12.3-45.2
				c-0.9-1.6-1.9-3.2-3-4.7c-0.3-0.4-0.9-0.7-1.5-0.8c-4.2-0.5-7.8-2.2-10.9-5.1c-11.5-10.9-25.3-17-40.6-20.5
				c-13.9-3.2-28.1-4.1-42.3-3.6c-10.7,0.4-21.2,1.7-31.4,4.3c-12.2,3.2-23.5,8.2-33.3,16.2c-1.2,1.1-2.5,2.2-3.7,3.2
				c-3.1,2.9-6.7,4.7-11,5.2c-0.9,0.1-1.4,0.5-1.9,1.2c-6.8,10.1-11.1,21.3-13.2,33.2c-3.1,16.6-2.3,33.1,1.2,49.5
				c0,0.2,0.2,0.3,0.2,0.7c1.6-0.2,3.2-0.6,4.7-0.8c2.7-0.3,5.2-0.8,7.9-0.9c6.7-0.1,11.6,4.6,12,11.5c1.2,17.2,2.3,34.5,3.5,51.7
				c1.3,19.4,2.7,38.7,4,58.2c1,14.5,2,28.9,3,43.4c0.5,7.6-4.2,12.8-11.9,13.2c-21.4,1.1-40.8-4.7-58.1-17.5
				c-17.4-13-29.1-30.2-33.7-51.4c-6.9-31.7,1.2-59.4,23.5-82.9c6.2-6.6,13.6-11.8,21.6-16c0.8-0.4,1.2-0.8,0.9-1.9
				c-3.4-14.2-4.8-28.6-4-43.2c1.2-20.7,6.4-40.2,17.8-57.7c1.1-1.7,1.5-3.2,1-5.3c-1.5-7.2,0.6-13.3,5.9-18.4
				c13.5-12.7,29.3-21.2,47-26.7c11.9-3.7,24.1-5.8,36.5-6.9c11.5-1,23-1.1,34.5-0.2c18.8,1.4,37.2,5.2,54.6,13
				c11.7,5.2,22.5,12.2,31.7,21.2c5.6,5.4,7.3,12,5.2,19.5c-0.2,0.9-0.2,1.6,0.3,2.3c7.8,11.6,12.9,24.2,15.9,37.8
				c2.7,12.2,3.5,24.7,2.8,37.2c-0.5,9.3-1.8,18.5-4,27.5c-0.2,1.1,0.2,1.4,1,1.8c10.9,5.7,20.2,13.4,27.8,23
				c9.9,12.4,16.3,26.5,18.6,42.2c3.7,25.8-2.5,49.2-18.8,69.5c-13.9,17.3-32,27.9-53.9,31.9c-7,1.2-14.1,1.6-21.2,1.2
				c-6.2-0.4-11.1-5.2-11-11.5c0.1-5.2,0.6-10.5,0.9-15.7c0.6-9,1.2-18.1,1.8-27.1c0.8-10.7,1.5-21.2,2.2-31.9
				c0.6-8.7,1.2-17.5,1.8-26.2c0.8-10.7,1.5-21.2,2.2-31.9c0.5-7.3,1.1-14.7,1.5-22c0.4-7.5,6.1-12.3,13.6-11.5
				C1284.1,789.1,1287.8,789.6,1291.7,790.1z"/>
			<path class="st1" d="M1156.6,946.4c0.2,6.9-3.9,11.8-10.7,12.5c-5.7,0.6-11.1-3.3-12-9c-0.8-4.5-0.8-9.1-1.2-13.6
				c-0.8-11.9-1.7-23.9-2.5-35.8c-0.7-10.3-1.4-20.6-2.1-30.9c-0.7-10.4-1.4-20.9-2.2-31.3c-0.7-9.9-1.4-19.7-2-29.7
				c-0.3-5.2,2.5-9.7,6.8-11.6c4.8-2,9.8-0.9,13.4,3.1c1.9,2.2,2.7,4.7,2.9,7.5c1.3,19.2,2.7,38.5,3.9,57.7
				c1.1,16,2.2,31.9,3.2,47.9c0.7,10.3,1.4,20.6,2.2,30.9C1156.6,944.8,1156.6,945.6,1156.6,946.4z"/>
			<path class="st1" d="M1225.9,945.1c0.8-11.3,1.6-23.2,2.3-35c1-14.5,2-29,3-43.5c0.8-11.7,1.6-23.5,2.4-35.3
				c0.6-8.2,1.1-16.2,1.7-24.4c0.4-5.6,4.4-10,9.9-10.8c5.1-0.8,10.2,2.2,12.4,7.2c1.2,2.7,0.8,5.6,0.6,8.4
				c-0.8,12.2-1.7,24.5-2.5,36.7c-1,14.5-2,29-3,43.5c-0.8,11.7-1.6,23.5-2.4,35.3c-0.5,6.8-0.9,13.7-1.4,20.6
				c-0.5,6.3-5,10.9-11.3,11.1c-6.1,0.2-11-4.2-11.7-10.2C1225.8,947.7,1225.9,946.6,1225.9,945.1z"/>
		</g>
	</g>
</g>
</svg>
