<?xml version="1.0" encoding="utf-8"?>
<!-- Generator: Adobe Illustrator 18.1.1, SVG Export Plug-In . SVG Version: 6.00 Build 0)  -->
<!DOCTYPE svg PUBLIC "-//W3C//DTD SVG 1.1//EN" "http://www.w3.org/Graphics/SVG/1.1/DTD/svg11.dtd">
<svg version="1.1" id="Layer_1" xmlns="http://www.w3.org/2000/svg" xmlns:xlink="http://www.w3.org/1999/xlink" x="0px" y="0px"
	 viewBox="0 0 781 781" style="enable-background:new 0 0 781 781;" xml:space="preserve">
<style type="text/css">
	.st0{clip-path:url(#SVGID_2_);}
	.st1{clip-path:url(#SVGID_4_);fill:#7BD2F6;}
	.st2{clip-path:url(#SVGID_4_);fill:#FFFFFF;}
</style>
<g>
	<g>
		<defs>
			<rect id="SVGID_1_" x="0" y="0" width="781" height="781"/>
		</defs>
		<clipPath id="SVGID_2_">
			<use xlink:href="#SVGID_1_"  style="overflow:visible;"/>
		</clipPath>
		<g class="st0">
			<defs>
				<rect id="SVGID_3_" x="0" y="0" width="781" height="781"/>
			</defs>
			<clipPath id="SVGID_4_">
				<use xlink:href="#SVGID_3_"  style="overflow:visible;"/>
			</clipPath>
			<path class="st1" d="M106.5,406.2L236.9,561c3,3.6,8,4.9,12.5,3.2c29.7-11.6,141.8-54.9,187.7-66.5c3-0.8,6.1-0.7,9,0.2
				c10.3,3.2,38.4,9.2,55.6-14.1c1.8-2.4,4.5-4.1,7.4-4.8c26.5-6.2,151-35.7,181.7-46.3c3.4-1.2,4.3-5.5,1.7-8
				c-16.6-15.5-72.7-67.3-156.3-140.8c-1.4-1.2-3.3-1.7-5.1-1.2L109.6,396.2C105.2,397.4,103.5,402.7,106.5,406.2"/>
			<path class="st2" d="M121,387.4c0,0,0.4-12.8,11.7-17.8c0,0,14.2,5.8,73.6-29.9c0,0,82.1-60,116.4-26.6c0,0,7.8-46.3,104.3-37.7
				c0,0,56.1,2.2,78-12.9l158.4,145.5c0,0,4.6,12.8,9.8,14.9c0,0-167.5,40-177.8,47.1c0,0-18.9,21.7-48.3,13
				c0,0-184.5,50.1-191,64.4C256,547.5,215.4,534.7,121,387.4"/>
		</g>
	</g>
</g>
</svg>
