<?xml version="1.0" encoding="utf-8"?>
<!-- Generator: Adobe Illustrator 18.1.1, SVG Export Plug-In . SVG Version: 6.00 Build 0)  -->
<!DOCTYPE svg PUBLIC "-//W3C//DTD SVG 1.1//EN" "http://www.w3.org/Graphics/SVG/1.1/DTD/svg11.dtd">
<svg version="1.1" id="Layer_1" xmlns="http://www.w3.org/2000/svg" xmlns:xlink="http://www.w3.org/1999/xlink" x="0px" y="0px"
	 viewBox="0 0 781 781" style="enable-background:new 0 0 781 781;" xml:space="preserve">
<style type="text/css">
	.st0{fill:#7BD2F6;}
	.st1{fill:#FFFFFF;}
</style>
<g>
	<path class="st0" d="M187.2,328.4c-0.8-5.3-1.3-18.9,11.1-29c1.1-0.9,2.3-1.4,3.7-1.6c17.1-2.5,161.2-25,195.5-26.7
		c1.7-0.1,4.9,0.4,6.3,1.3c21.8,14.2,186.4,140,215.5,166.6c1.1,1,1,2.7-0.3,3.5c-5,3-14.9,11.2-8.5,26.4c0,0,4.1,3.4,0.4,8.6
		c0,0-163,32.4-176.7,34.2c0,0-9.1,3.8-26.6-9.1c0,0-181.5-132.1-218.5-170.5C188,331,187.4,329.7,187.2,328.4z"/>
	<path class="st1" d="M618.9,443.3L445,475.1c0,0-26.3,7.2-20.6,21.9c0,0,3.2,6.3,17.3,4.3c0,0,163.2-29.5,170.3-32.5
		C612,468.8,605.5,455.1,618.9,443.3z"/>
</g>
</svg>
