<?xml version="1.0" encoding="utf-8"?>
<!-- Generator: Adobe Illustrator 18.1.1, SVG Export Plug-In . SVG Version: 6.00 Build 0)  -->
<!DOCTYPE svg PUBLIC "-//W3C//DTD SVG 1.1//EN" "http://www.w3.org/Graphics/SVG/1.1/DTD/svg11.dtd">
<svg version="1.1" id="Layer_1" xmlns="http://www.w3.org/2000/svg" xmlns:xlink="http://www.w3.org/1999/xlink" x="0px" y="0px"
	 viewBox="260.5 -24.9 1191.7 913.1" style="enable-background:new 260.5 -24.9 1191.7 913.1;" xml:space="preserve">
<style type="text/css">
	.st0{fill:#F594A0;}
	.st1{fill:#F4EFD9;}
</style>
<g>
	<g id="XMLID_1_">
		<g>
			<path class="st0" d="M1379.8,549c0,17.3,0,34.6,0,51.9c-2.5,17.3-9.5,32.9-17.7,48.2c-2.9,5.4-4.5,11.9-4.9,18.1
				c-1.6,18.5-2.1,37.1-4.5,55.6c-2.1,16.5-10.7,88.1-169.7,75.8c-30.9-2.5-60.5-1.2-91.4,0c-90.6,0-121.1,13.2-211.7,13.2
				c-3.7-0.4-99.7-0.4-103.4-0.4c-75.4-1.6-126.8,1.6-202.2,0c-63.8-1.2-159-12.8-197.7-35c-11.1-6.6-18.5-7-23.9-11.5
				c4.1,0.4,11.1,0.4,23.1,4.1c25.5,7,60.9,10.3,77,11.9c152,14.8,209.6,3.7,327,5.4c76.6,1.2,152-7,228.6-7.8
				c60.9-0.4,121.5-2.5,182.4-4.5c19.8-0.8,39.1-3.7,58.5-5.8c12.4-1.6,11.9-2.1,12.8-13.6c0.8-12.8,0.8-25.9,3.3-38.7
				c6.2-28.8,13.6-56.8,20.6-85.7c2.5-9.9,4.5-19.8,7-30.9c-4.1,0-6.2-0.4-7.8,0c-16.5,3.7-33.4,4.1-50.2,2.1
				c-4.5-0.4-10.3,0-14,2.1c-22.2,13.2-45.7,15.6-70.8,12.4c-6.2-0.8-12.8-1.2-18.9-0.4l-1.2-7.8c7.8-1.2,15.2-1.2,23.5-0.4
				c20.2,2.5,40.4,1.2,58.1-9.1c9.5-5.4,18.9-6.2,29.2-5.4c10.7,0.8,21.8,0.8,32.5-0.4c24.7-3.3,24.7-3.7,22.2-27.6
				c0-0.4-0.4-0.4-0.8-1.2c-1.2,0-1.6-0.4-2.5,0c-0.8,0-2.1,0.4-2.9,0.8c-19.4,12.4-39.1,11.1-60.5,4.1c-9.1-2.9-20.6-2.9-29.7-0.8
				c-17.7,4.1-34.6,11.5-51.9,16.1c-9.1,2.5-21,4.5-28.8,1.2c-22.7-9.5-44.9-6.2-67.5-3.7c-9.5,0.8-19.4,2.1-27.2,6.2
				c-16.1,8.6-32.9,10.3-50.7,10.7c-17.7,0.4-35.4-0.4-52.3,3.3c-26.8,5.8-53.1,14.8-79.9,21.8c-11.5,2.9-23.1,6.2-35,6.2
				c-7,0-13.6,0-20.6,0.4l-0.4-7.8c28.4-1.2,55.6-5.4,81.5-16.5c2.1-0.8,4.1-1.2,5.8-2.1c35-11.5,71.2-14,107.9-14.4
				c9.5,0,19.8-0.4,27.6-4.5c15.2-7.8,31.3-11.5,48.2-12.8c21.8-1.6,43.2-4.5,64.2,5.4c4.1,2.1,10.7,1.6,15.2,0.4
				c16.1-4.5,31.7-10.3,47.8-15.2c16.9-5.4,34.2-7.8,51.5-0.8c17.3,7,33.4,6.2,49-3.7c3.3-2.1,7.4-3.3,11.9-5.4
				c-1.2-8.2-2.1-16.5-3.7-24.7c-4.9-28.4-9.5-57.2-7.4-86.5c1.6-21,2.1-42,2.5-63c0-8.6-0.8-16.9-1.6-28.4
				c-18.1,6.6-33.4,11.5-48.2,17.3c-34.6,12.8-70,18.1-107.5,14c-14-1.6-28.8-1.2-43.2,0.8c-27.2,4.1-53.5,9.9-80.3,15.6
				c-33.4,7-66.7,12.4-101.3,8.6c-18.1-2.1-36.7-4.1-54.4-2.1c-21.4,2.5-42.4,8.6-63,14.8c-27.2,8.2-54.4,9.9-82.4,5.8
				c-37.5-5.4-73.3-4.1-107.9,12.4c-9.9,4.9-21,7.4-32.1,9.1c-18.1,3.3-35.4-2.5-52.3-8.6c-13.2-4.9-26.4-8.6-41.2-7
				c-16.5,1.6-32.9,2.9-49.4,3.7c-17.7,1.2-34.6,4.5-50.7,11.9c-11.1,4.9-28,18.1-41.2,3.3c0.4-2.1,0.8-4.5,0.8-6.6
				c1.2-17.7,9.1-30.9,23.5-41.6c4.9-3.7,9.5-7.8,14.8-11.1c44.9-28.8,89-58.5,134.7-85.7c141.3-84,286.6-161.4,432.4-238.4
				c18.5-9.9,37.1-20.2,55.2-30.5c6.2,0,12.8,0,18.9,0c21,7.8,37.5,21.4,52.7,37.1c9.1,9.1,18.1,17.7,26.8,26.8
				c23.9,24.3,49.8,45.7,82.8,58.9c37.5,14.4,66.7,40.4,97.6,63.8c2.9,2.5,5.4,4.9,7.8,7.8c30.9,34.2,56.4,72.1,77.4,112.4
				c2.5,4.5,3.7,9.5,4.9,14c4.9,18.9,3.7,37.9,0.8,56.4c-3.3,21.4-3.3,42,7.4,62.2c7.4,14,9.5,28.8,9.1,44.5
				C1377.3,529.2,1379,539.1,1379.8,549z"/>
			<path class="st0" d="M1294.6,565c2.5,23.9,2.5,24.3-22.2,27.6c-10.7,1.2-21.8,1.2-32.5,0.4c-10.3-0.4-19.8,0-29.2,5.4
				c-17.7,10.7-37.9,11.5-58.1,9.1c-8.2-1.2-16.1-0.8-23.5,0.4c-7,1.2-14,3.3-21,6.6c-15.6,7-33.4,9.5-50.2,14
				c-10.3,2.5-21.4,4.1-31.7,7.4c-24.3,8.6-48.6,8.6-73.3,2.1c-16.5-4.1-30.5-0.8-45.7,7.8c-30.1,17.3-63,23.9-98,13.6
				c-11.5-3.3-21.8-1.6-31.3,4.1c-10.3,6.2-20.6,13.2-29.7,20.6c-18.1,14.8-37.9,19.4-60.1,15.2c-2.9-0.4-5.8-1.2-9.1-2.1
				c-7-2.1-14.4-2.9-21.4-5.4c-18.9-6.6-38.3-6.6-58.1-2.5c-14.4,2.9-28.8,1.6-41.2-7.4c-14.8-11.1-31.7-14.4-49.8-9.5
				c-25.5,7-49.8,4.9-73.7-2.5c-4.5-1.2-9.1-2.9-14-4.9c-17.3-6.6-34.6-11.5-53.1-9.1c-0.4,0-0.8,0-1.2,0c-4.9,0-13.2,1.6-14.4-0.4
				c-2.9-4.9-2.1-11.1-3.3-18.9c5.8,1.6,9.5,2.5,12.8,3.3c14.8,4.5,29.7,4.5,44.5,0.8c5.8-1.2,12.8-0.8,18.1,1.2
				c12.8,4.1,25.5,9.5,37.9,14.8c12.8,5.4,24.3,4.1,36.2-2.5c20.2-10.7,41.6-15.6,64.7-8.2c12.4,4.1,25.1,6.6,37.9,9.1
				c25.5,5.4,50.7,5.4,75.4-4.5c34.2-13.6,70-21,106.7-22.7c7-0.4,13.6-0.4,20.6-0.4c11.5,0,23.5-3.3,35-6.2
				c26.8-7,52.7-16.1,79.9-21.8c16.9-3.7,35-2.9,52.3-3.3c17.7-0.4,34.6-2.1,50.7-10.7c7.8-4.1,18.1-5.4,27.2-6.2
				c22.7-2.5,44.9-5.8,67.5,3.7c7.8,3.3,19.4,0.8,28.8-1.2c17.7-4.5,34.2-11.9,51.9-16.1c9.5-2.1,20.6-2.1,29.7,0.8
				c21.4,7,41.2,8.2,60.5-4.1c0.8-0.4,2.1-0.8,2.9-0.8s1.2,0,2.5,0C1294.1,564.6,1294.6,565,1294.6,565z"/>
			<path class="st1" d="M1291.7,526.7c1.2,8.2,2.5,16.5,3.7,24.7c-4.5,2.1-8.2,3.3-11.9,5.4c-15.6,9.9-32.1,10.7-49,3.7
				c-17.3-7-34.6-4.5-51.5,0.8c-16.1,4.9-31.7,10.7-47.8,15.2c-4.5,1.2-11.1,1.6-15.2-0.4c-21-9.9-42.4-7-64.2-5.4
				c-16.9,1.2-32.9,4.9-48.2,12.8c-7.8,4.1-18.1,4.5-27.6,4.5c-36.7,0.4-72.9,2.9-107.9,14.4c-2.1,0.8-4.1,1.2-5.8,2.1
				c-25.9,11.5-53.1,15.6-81.5,16.5c-2.9,0-6.2,0-9.1,0.4c-32.5,0.4-65.1,7.8-95.1,20.6c-28,11.5-55.6,11.9-84,3.7
				c-14.8-4.1-29.7-8.2-44.9-10.3c-17.7-2.1-35.4,1.6-50.7,10.3c-13.6,7.8-25.9,7.8-39.5,1.6c-11.1-4.9-22.2-9.9-34.2-13.2
				c-7-2.1-15.2-2.1-22.2-0.4c-11.5,2.5-23.1,2.9-34.2,0c-4.1-1.2-11.9-2.1-18.9-3.3c-4.1-0.8-8.2-1.6-11.1-2.5
				c-2.1-20.6-6.2-40.8-9.5-61.4c-2.1-13.2-3.7-26.4-5.4-39.1c0-19.4,0-38.7,0-58.1c1.6-7,4.1-13.6,5.4-20.6
				c13.2,14.8,30.5,1.6,41.2-3.3c16.1-7.4,32.9-10.7,50.7-11.9c16.5-1.2,32.9-2.1,49.4-3.7c14.4-1.6,27.6,2.1,41.2,7
				c16.9,6.2,33.8,11.9,52.3,8.6c11.1-2.1,22.2-4.5,32.1-9.1c34.6-16.9,70.8-17.7,107.9-12.4c28,4.1,55.2,2.1,82.4-5.8
				c20.6-6.2,41.6-12.4,63-14.8c17.7-2.1,36.7,0,54.4,2.1c34.6,3.7,68-2.1,101.3-8.6c26.8-5.8,53.5-11.5,80.3-15.6
				c14-2.1,28.8-2.5,43.2-0.8c37.1,4.1,72.9-1.2,107.5-14c14.8-5.4,30.1-10.7,48.2-17.3c0.8,11.1,2.1,19.8,1.6,28.4
				c-0.4,21-0.8,42-2.5,63C1282.2,469.9,1286.7,498.3,1291.7,526.7z"/>
			<path class="st1" d="M1284.7,600c2.1-0.4,4.1,0,7.8,0c-2.5,10.7-4.9,21-7,30.9c-7,28.4-14.4,56.8-20.6,85.7
				c-2.5,12.8-2.5,25.9-3.3,38.7c-0.8,11.5-0.4,12.4-12.8,13.6c-19.4,2.5-39.1,5.4-58.5,5.8c-60.9,2.1-121.5,4.1-182.4,4.5
				c-76.6,0.4-152,9.1-228.6,7.8c-117.4-1.6-175,9.5-327-5.4c-16.1-1.6-51.5-4.9-77-11.9c-11.9-3.3-18.9-3.3-23.1-4.1
				c-2.9-2.5-4.9-6.2-6.6-12.8c-5.8-22.2-3.3-44.9-3.3-67.5c0-6.6,0-12.8-0.4-19.4c0-0.4,0-1.2,0-1.6c0,0,12.8,3.7,20.2,2.5
				c14.4-2.5,28.4-1.6,42.4,2.9c9.5,2.9,18.9,6.2,28.4,8.6c7.4,2.1,15.2,4.1,22.7,6.2c16.1,3.7,32.1,3.3,47.8-1.2
				c18.9-5.4,36.7-4.1,52.7,8.2c12.8,9.5,28,10.7,43.2,7.4c19.8-4.1,38.7-3.3,58.1,2.5c9.5,2.9,19.4,4.5,29.2,6.2
				c5.4,0.8,10.7,1.6,16.1,2.1c14.4,2.1,27.6-3.3,39.5-11.1c11.1-7.4,21.8-15.2,32.9-23.1c11.1-7.8,21.8-9.5,36.2-6.2
				c35.8,8.6,70,2.5,100.9-16.5c12.8-7.8,24.7-9.5,38.7-6.2c18.9,4.1,37.9,7.8,57.2,2.9c26.4-6.2,53.1-11.9,79.5-18.9
				c10.3-2.9,20.6-7,30.1-11.5c4.1-2.1,7.8-2.9,11.9-3.7c6.2-0.8,12.4-0.4,18.9,0.4c25.1,3.3,49,0.8,70.8-12.4
				c3.7-2.1,9.5-2.5,14-2.1C1251.3,604.1,1267.8,603.3,1284.7,600z"/>
			<path class="st0" d="M1129,608.3l1.2,7.8c-4.1,0.4-8.2,1.6-11.9,3.7c-9.5,4.5-19.8,8.6-30.1,11.5c-26.4,6.6-53.1,12.8-79.5,18.9
				c-19.4,4.5-38.3,1.2-57.2-2.9c-14-3.3-25.9-1.6-38.7,6.2c-30.9,18.5-65.1,25.1-100.9,16.5c-14.4-3.7-25.1-1.6-36.2,6.2
				c-11.1,7.8-21.8,15.6-32.9,23.1c-11.9,7.8-25.1,12.8-39.5,11.1c-5.4-0.8-10.7-1.2-16.1-2.1l1.2-7.8c21.8,3.7,42-0.8,60.1-15.2
				c9.5-7.4,19.4-14.4,29.7-20.6c9.5-5.8,19.8-7.4,31.3-4.1c35,10.3,68,3.7,98-13.6c15.2-8.6,29.2-11.9,45.7-7.8
				c24.7,6.6,49,6.6,73.3-2.1c10.3-3.7,21-4.9,31.7-7.4c16.9-4.1,34.6-7,50.2-14C1115,611.6,1122,609.5,1129,608.3z"/>
			<path class="st0" d="M783.9,621.8l0.4,7.8c-37.1,1.6-72.5,9.1-106.7,22.7c-24.7,9.9-49.8,9.9-75.4,4.5
				c-12.8-2.5-25.5-5.4-37.9-9.1c-23.1-7.4-44.5-2.5-64.7,8.2c-11.9,6.2-23.5,7.4-36.2,2.5c-12.4-5.4-25.1-10.7-37.9-14.8
				c-5.8-1.6-12.4-2.5-18.1-1.2c-15.2,3.3-29.7,3.3-44.5-0.8c-3.3-1.2-7-2.1-12.8-3.3l0.4-7c7,1.2,14.4,2.5,18.9,3.3
				c11.5,2.9,22.7,2.5,34.2,0c7-1.2,15.6-1.6,22.2,0.4c11.5,3.3,23.1,7.8,34.2,13.2c13.6,6.2,25.9,6.2,39.5-1.6
				c15.2-8.6,32.9-12.8,50.7-10.3c15.2,2.1,30.5,5.8,44.9,10.3c28.8,8.2,56,8.2,84-3.7c30.1-12.8,62.6-19.8,95.1-20.6
				C777.7,621.8,780.6,621.8,783.9,621.8z"/>
			<path class="st0" d="M687.9,700.1l-1.2,7.8c-9.9-1.6-19.8-3.3-29.2-6.2c-19.4-5.8-38.3-6.6-58.1-2.5c-15.2,3.3-30.5,2.1-43.2-7.4
				c-16.1-12.4-33.4-13.6-52.7-8.2c-15.6,4.5-32.1,4.9-47.8,1.2c-7.4-2.1-15.2-3.7-22.7-6.2l2.5-7.4c23.9,7.4,48.2,9.5,73.7,2.5
				c18.1-4.9,34.6-1.6,49.8,9.5c12.4,9.1,26.4,10.3,41.2,7.4c19.8-4.1,38.7-3.7,58.1,2.5c7,2.5,14.4,3.3,21.4,5.4
				C682.2,698.9,685.1,699.3,687.9,700.1z"/>
			<path class="st0" d="M435.5,670.9l-2.5,7.4c-9.5-2.9-18.9-5.8-28.4-8.6c-14-4.5-28-5.4-42.4-2.9c-7.8,1.2-20.2-2.5-20.2-2.5
				c-0.4-11.9-0.8-23.9-2.1-35.8c2.9,0.8,7,1.6,11.1,2.5l-0.4,7c0.8,7.8,0.4,14.4,3.3,18.9c1.2,2.1,9.5,0.4,14.4,0.4
				c0.4,0,0.8,0,1.2,0c18.9-2.5,36.2,2.5,53.1,9.1C426,667.6,430.6,669.2,435.5,670.9z"/>
			<path class="st1" d="M351.9,765.2c-4.5-0.4-6.2-1.6-7.8-7.4c-2.5-9.1-6.2-21-6.6-30.5c-0.4-15.2,4.1-45.3,4.1-61.8
				c0,6.6,0.4,12.8,0.4,19.4c0,22.7-2.5,45.3,3.3,67.5C347,759,349,762.7,351.9,765.2z"/>
			<path class="st1" d="M330.1,567.1c2.9,20.6,7,40.8,9.5,61.4c-9.5-56.4-27.2-133.8-9.5-179.1l0,0c-1.2,7-3.7,13.6-5.4,20.6
				c0,19.4,0,38.7,0,58.1C326.4,540.7,328,553.9,330.1,567.1z"/>
		</g>
	</g>
</g>
</svg>
