<?xml version="1.0" encoding="utf-8"?>
<!-- Generator: Adobe Illustrator 18.1.1, SVG Export Plug-In . SVG Version: 6.00 Build 0)  -->
<!DOCTYPE svg PUBLIC "-//W3C//DTD SVG 1.1//EN" "http://www.w3.org/Graphics/SVG/1.1/DTD/svg11.dtd">
<svg version="1.1" id="Layer_1" xmlns="http://www.w3.org/2000/svg" xmlns:xlink="http://www.w3.org/1999/xlink" x="0px" y="0px"
	 viewBox="0 0 200 200" style="enable-background:new 0 0 200 200;" xml:space="preserve">
<style type="text/css">
	.st0{fill:#F594A0;}
	.st1{fill:#F4EFD9;}
</style>
<g>
	<g id="XMLID_1_">
		<g>
			<path class="st0" d="M190,109.8c0.3,2.9,0.6,5.8,0.9,8.7c-0.1,2.9-1,5.6-2.2,8.3c-0.4,1-0.5,2.1-0.5,3.1c0,3.1,0.3,6.2,0.2,9.3
				c0,2.8-0.3,14.9-27,15.5c-5.2,0.1-10.1,0.8-15.2,1.6c-15.1,1.6-19.9,4.3-35,5.8c-0.6,0-16.6,1.7-17.2,1.7
				c-12.6,1-21.1,2.5-33.7,3.5c-10.7,0.9-26.7,0.6-33.5-2.5c-2-0.9-3.2-0.9-4.2-1.5c0.7,0,1.9-0.1,3.9,0.3c4.3,0.7,10.3,0.7,13,0.7
				c25.6-0.1,35-3,54.6-4.7c12.8-1.1,25.2-3.8,37.9-5.2c10.1-1.1,20.2-2.5,30.3-3.9c3.3-0.4,6.5-1.3,9.7-2c2-0.5,2-0.5,1.9-2.5
				c-0.1-2.2-0.3-4.4-0.1-6.5c0.5-4.9,1.3-9.7,2-14.6c0.2-1.7,0.4-3.4,0.7-5.2c-0.7,0.1-1,0-1.3,0.1c-2.7,0.9-5.5,1.3-8.3,1.2
				c-0.8,0-1.7,0.1-2.3,0.6c-3.5,2.5-7.4,3.4-11.6,3.3c-1.1,0-2.1,0-3.1,0.3l-0.4-1.3c1.2-0.3,2.5-0.5,3.9-0.5
				c3.4,0.1,6.7-0.5,9.5-2.5c1.5-1.1,3-1.3,4.8-1.4c1.8-0.1,3.6-0.2,5.4-0.6c4-0.9,4-1,3.2-4.9c0,0-0.1-0.1-0.2-0.2
				c-0.2,0-0.3,0-0.4,0c-0.2,0-0.4,0.1-0.5,0.2c-3,2.4-6.3,2.5-10,1.7c-1.6-0.3-3.5-0.1-5,0.4c-2.9,1-5.5,2.5-8.4,3.5
				c-1.5,0.5-3.4,1.1-4.8,0.7c-3.9-1.2-7.6-0.3-11.3,0.5c-1.5,0.3-3.2,0.7-4.4,1.5c-2.5,1.7-5.3,2.3-8.3,2.7
				c-2.9,0.4-5.9,0.6-8.7,1.5c-4.4,1.4-8.6,3.4-12.9,5c-1.8,0.7-3.8,1.4-5.7,1.6c-1.1,0.1-2.3,0.2-3.4,0.4l-0.2-1.3
				c4.7-0.7,9.2-1.8,13.3-4.2c0.3-0.2,0.6-0.3,1-0.4c5.6-2.5,11.6-3.5,17.7-4.2c1.5-0.2,3.3-0.4,4.5-1.2c2.4-1.5,5-2.4,7.8-3
				c3.6-0.7,7.1-1.5,10.8-0.2c0.7,0.3,1.8,0.1,2.6-0.2c2.6-1,5.1-2.2,7.7-3.4c2.7-1.2,5.6-1.9,8.6-1.1c3,0.8,5.7,0.4,8.1-1.5
				c0.5-0.4,1.2-0.7,1.9-1.1c-0.3-1.4-0.7-2.7-1-4.1c-1.3-4.7-2.6-9.4-2.7-14.3c-0.1-3.5-0.4-7-0.6-10.5c-0.1-1.4-0.5-2.8-0.8-4.7
				c-2.9,1.4-5.3,2.5-7.7,3.7c-5.5,2.8-11.4,4.2-17.6,4.2c-2.4,0-4.9,0.3-7.2,0.9c-4.4,1.1-8.8,2.6-13.1,4
				c-5.4,1.7-10.9,3.2-16.7,3.2c-3,0-6.2-0.1-9.1,0.6c-3.5,0.8-6.9,2.2-10.3,3.5c-4.4,1.8-8.9,2.6-13.6,2.4
				c-6.3-0.3-12.3,0.5-17.8,3.9c-1.6,1-3.4,1.6-5.2,2.1c-3,0.9-5.9,0.2-8.8-0.5c-2.3-0.6-4.6-1-7-0.5c-2.7,0.6-5.4,1-8.2,1.5
				c-2.9,0.5-5.7,1.4-8.3,2.8c-1.7,1-4.3,3.5-6.8,1.2c0-0.4,0.1-0.8,0-1.1c-0.1-2.9,1-5.3,3.2-7.3c0.8-0.7,1.4-1.5,2.3-2.1
				c7-5.6,13.8-11.3,20.9-16.6c22.1-16.4,45-31.8,67.9-47.1c2.9-2,5.8-4,8.7-6c1.1-0.1,2.1-0.2,3.2-0.3c3.7,0.9,6.6,2.9,9.4,5.2
				c1.6,1.3,3.3,2.7,4.9,4c4.4,3.6,9.1,6.8,14.8,8.4c6.5,1.8,11.8,5.5,17.3,9c0.5,0.3,1,0.8,1.5,1.2c5.8,5.2,10.6,11,14.9,17.4
				c0.5,0.7,0.8,1.5,1.1,2.3c1.1,3,1.3,6.2,1.1,9.4c-0.2,3.6,0.2,7.1,2.3,10.2c1.4,2.2,2.1,4.7,2.3,7.3
				C189.3,106.6,189.7,108.2,190,109.8z"/>
			<path class="st0" d="M176.1,114c0.8,3.9,0.8,4-3.2,4.9c-1.7,0.4-3.6,0.6-5.4,0.6c-1.7,0.1-3.3,0.3-4.8,1.4
				c-2.8,2.1-6.1,2.6-9.5,2.5c-1.4,0-2.7,0.1-3.9,0.5c-1.1,0.3-2.3,0.8-3.4,1.4c-2.5,1.4-5.4,2.2-8.1,3.2c-1.7,0.6-3.5,1-5.1,1.8
				c-3.9,1.8-8,2.2-12.2,1.6c-2.8-0.4-5.1,0.4-7.5,2.1c-4.7,3.4-10.1,5.1-16.1,3.9c-2-0.4-3.6,0.1-5.1,1.2c-1.6,1.2-3.2,2.5-4.6,3.9
				c-2.8,2.8-6,3.8-9.7,3.6c-0.5,0-1-0.1-1.5-0.2c-1.2-0.2-2.5-0.3-3.7-0.5c-3.3-0.7-6.5-0.5-9.7,0.6c-2.4,0.8-4.8,0.8-7-0.5
				c-2.7-1.6-5.5-1.9-8.4-0.7c-4.1,1.6-8.2,1.6-12.3,0.9c-0.8-0.2-1.6-0.3-2.4-0.6c-3-0.8-5.9-1.3-9-0.6c-0.1,0-0.1,0-0.2,0
				c-0.8,0.1-2.2,0.5-2.4,0.2c-0.5-0.7-0.5-1.8-0.8-3.1c1,0.2,1.6,0.2,2.2,0.3c2.5,0.5,5,0.2,7.5-0.6c0.9-0.3,2.1-0.3,3.1-0.1
				c2.2,0.5,4.4,1.2,6.6,1.8c2.2,0.7,4.1,0.3,6-1c3.2-2.1,6.6-3.3,10.6-2.5c2.1,0.4,4.3,0.6,6.4,0.9c4.3,0.4,8.5,0.1,12.5-2
				c5.5-2.9,11.3-4.7,17.4-5.6c1.1-0.2,2.3-0.3,3.4-0.4c1.9-0.2,3.9-0.9,5.7-1.6c4.3-1.6,8.5-3.6,12.9-5c2.8-0.9,5.8-1.1,8.7-1.5
				c3-0.4,5.7-1,8.3-2.7c1.2-0.8,2.9-1.2,4.4-1.5c3.7-0.8,7.4-1.7,11.3-0.5c1.4,0.4,3.3-0.2,4.8-0.7c2.8-1,5.5-2.6,8.4-3.5
				c1.5-0.5,3.4-0.7,5-0.4c3.7,0.8,7,0.7,10-1.7c0.1-0.1,0.3-0.1,0.5-0.2c0.1,0,0.2,0,0.4,0C176,113.9,176.1,113.9,176.1,114z"/>
			<path class="st1" d="M175,107.6c0.4,1.3,0.7,2.7,1,4.1c-0.7,0.4-1.3,0.7-1.9,1.1c-2.5,1.9-5.1,2.3-8.1,1.5
				c-3-0.9-5.8-0.1-8.6,1.1c-2.6,1.1-5.1,2.3-7.7,3.4c-0.8,0.3-1.8,0.5-2.6,0.2c-3.6-1.3-7.2-0.5-10.8,0.2c-2.8,0.5-5.4,1.4-7.8,3
				c-1.2,0.8-3,1-4.5,1.2c-6.1,0.7-12.1,1.7-17.7,4.2c-0.3,0.1-0.7,0.3-1,0.4c-4.1,2.3-8.6,3.5-13.3,4.2c-0.5,0.1-1,0.1-1.5,0.2
				c-5.4,0.7-10.7,2.4-15.5,5c-4.5,2.4-9,3-13.9,2.1c-2.5-0.5-5.1-0.9-7.7-0.9c-3-0.1-5.9,0.9-8.3,2.6c-2.1,1.5-4.2,1.8-6.6,0.9
				c-1.9-0.7-3.9-1.3-5.9-1.6c-1.2-0.2-2.6-0.1-3.7,0.3c-1.9,0.6-3.8,0.9-5.7,0.6c-0.7-0.1-2-0.2-3.2-0.2c-0.7-0.1-1.4-0.1-1.9-0.2
				c-0.7-3.4-1.7-6.7-2.6-10c-0.6-2.1-1.1-4.3-1.6-6.4c-0.3-3.2-0.7-6.4-1-9.7c0.2-1.2,0.4-2.3,0.5-3.5c2.5,2.3,5.1-0.2,6.8-1.2
				c2.6-1.5,5.3-2.4,8.3-2.8c2.7-0.5,5.5-0.9,8.2-1.5c2.4-0.5,4.7-0.1,7,0.5c2.9,0.7,5.9,1.4,8.8,0.5c1.8-0.5,3.6-1.1,5.2-2.1
				c5.5-3.4,11.5-4.2,17.8-3.9c4.7,0.2,9.2-0.6,13.6-2.4c3.3-1.4,6.7-2.8,10.3-3.5c2.9-0.7,6.1-0.6,9.1-0.6c5.8,0,11.3-1.5,16.7-3.2
				c4.4-1.4,8.7-2.8,13.1-4c2.3-0.6,4.8-0.9,7.2-0.9c6.3,0.1,12.1-1.4,17.6-4.2c2.4-1.2,4.8-2.3,7.7-3.7c0.3,1.9,0.7,3.3,0.8,4.7
				c0.3,3.5,0.6,7,0.6,10.5C172.4,98.3,173.6,103,175,107.6z"/>
			<path class="st1" d="M175,119.9c0.3-0.1,0.7-0.1,1.3-0.1c-0.2,1.9-0.4,3.5-0.7,5.2c-0.7,4.9-1.4,9.7-2,14.6
				c-0.2,2.2,0,4.3,0.1,6.5c0.1,2,0.2,2-1.9,2.5c-3.2,0.7-6.4,1.5-9.7,2c-10.1,1.4-20.2,2.8-30.3,3.9c-12.8,1.4-25.1,4.1-37.9,5.2
				c-19.6,1.7-29,4.6-54.6,4.7c-2.7,0-8.7,0.1-13-0.7c-2-0.4-3.2-0.2-3.9-0.3c-0.5-0.4-0.9-0.9-1.3-2c-1.4-3.6-1.3-7.4-1.7-11.2
				c-0.1-1.1-0.2-2.1-0.4-3.2c0-0.1,0-0.2,0-0.3c0,0,2.2,0.4,3.4,0.1c2.4-0.6,4.7-0.8,7.1-0.3c1.6,0.3,3.3,0.7,4.9,1
				c1.3,0.2,2.6,0.4,3.9,0.6c2.7,0.4,5.4,0,8-1c3.1-1.2,6-1.3,8.9,0.5c2.3,1.4,4.8,1.3,7.3,0.5c3.2-1,6.4-1.2,9.7-0.6
				c1.6,0.3,3.3,0.4,5,0.5c0.9,0,1.8,0.1,2.7,0.1c2.5,0.1,4.6-1,6.4-2.5c1.7-1.4,3.4-2.9,5.1-4.4c1.7-1.5,3.5-2,5.9-1.6
				c6.1,0.9,11.7-0.8,16.5-4.5c2-1.5,4-2,6.3-1.7c3.2,0.4,6.4,0.6,9.6-0.5c4.3-1.5,8.7-2.9,12.9-4.5c1.7-0.6,3.3-1.5,4.8-2.4
				c0.6-0.4,1.3-0.6,1.9-0.8c1-0.3,2.1-0.3,3.1-0.3c4.2,0.1,8.2-0.7,11.6-3.3c0.6-0.4,1.5-0.6,2.3-0.6
				C169.6,121.2,172.3,120.8,175,119.9z"/>
			<path class="st0" d="M149.3,124l0.4,1.3c-0.7,0.2-1.3,0.4-1.9,0.8c-1.5,0.9-3.1,1.8-4.8,2.4c-4.3,1.6-8.6,3-12.9,4.5
				c-3.2,1.1-6.4,0.9-9.6,0.5c-2.4-0.3-4.3,0.2-6.3,1.7c-4.8,3.6-10.4,5.3-16.5,4.5c-2.5-0.3-4.2,0.1-5.9,1.6
				c-1.7,1.5-3.4,3-5.1,4.4c-1.8,1.5-3.9,2.6-6.4,2.5c-0.9,0-1.8-0.1-2.7-0.1l0.1-1.3c3.7,0.3,7-0.8,9.7-3.6c1.4-1.4,3-2.7,4.6-3.9
				c1.5-1.1,3.2-1.6,5.1-1.2c6,1.1,11.4-0.5,16.1-3.9c2.4-1.7,4.7-2.5,7.5-2.1c4.2,0.6,8.3,0.2,12.2-1.6c1.6-0.8,3.4-1.2,5.1-1.8
				c2.7-1,5.7-1.8,8.1-3.2C147,124.7,148.1,124.3,149.3,124z"/>
			<path class="st0" d="M92.1,132.1l0.2,1.3c-6.1,0.9-11.9,2.8-17.4,5.6c-4,2.1-8.1,2.5-12.5,2c-2.2-0.2-4.3-0.4-6.4-0.9
				c-4-0.8-7.4,0.3-10.6,2.5c-1.9,1.3-3.8,1.7-6,1c-2.2-0.6-4.4-1.3-6.6-1.8c-1-0.2-2.1-0.2-3.1,0.1c-2.5,0.8-4.9,1.1-7.5,0.6
				c-0.6-0.1-1.2-0.2-2.2-0.3l0-1.2c1.2,0.1,2.5,0.1,3.2,0.2c1.9,0.3,3.8,0,5.7-0.6c1.2-0.4,2.5-0.5,3.7-0.3c2,0.3,4,0.9,5.9,1.6
				c2.4,0.8,4.5,0.6,6.6-0.9c2.4-1.7,5.3-2.7,8.3-2.6c2.6,0.1,5.1,0.5,7.7,0.9c4.9,0.9,9.5,0.4,13.9-2.1c4.8-2.6,10.1-4.4,15.5-5
				C91,132.3,91.5,132.2,92.1,132.1z"/>
			<path class="st0" d="M77.4,146.8l-0.1,1.3c-1.7-0.1-3.3-0.2-5-0.5c-3.3-0.6-6.5-0.4-9.7,0.6c-2.5,0.8-5,0.9-7.3-0.5
				c-2.9-1.8-5.8-1.7-8.9-0.5c-2.6,1-5.2,1.4-8,1c-1.3-0.2-2.6-0.4-3.9-0.6l0.3-1.3c4.1,0.8,8.2,0.8,12.3-0.9
				c2.9-1.1,5.8-0.9,8.4,0.7c2.2,1.3,4.6,1.3,7,0.5c3.2-1,6.4-1.3,9.7-0.6c1.2,0.3,2.4,0.3,3.7,0.5
				C76.4,146.7,76.9,146.8,77.4,146.8z"/>
			<path class="st0" d="M34.9,146.3l-0.3,1.3c-1.6-0.3-3.3-0.6-4.9-1c-2.4-0.5-4.8-0.4-7.1,0.3c-1.3,0.3-3.4-0.1-3.4-0.1
				c-0.3-2-0.6-4-1-5.9c0.5,0.1,1.2,0.2,1.9,0.2l0,1.2c0.3,1.3,0.3,2.4,0.8,3.1c0.2,0.3,1.6-0.1,2.4-0.2c0.1,0,0.1,0,0.2,0
				c3.1-0.7,6.1-0.2,9,0.6C33.3,145.9,34.1,146.1,34.9,146.3z"/>
			<path class="st1" d="M22.6,163.4c-0.8,0-1.1-0.2-1.4-1.1c-0.6-1.5-1.4-3.4-1.6-4.9c-0.3-2.5-0.1-7.6-0.4-10.3
				c0.1,1.1,0.3,2.1,0.4,3.2c0.4,3.8,0.4,7.6,1.7,11.2C21.7,162.5,22.1,163.1,22.6,163.4z"/>
			<path class="st1" d="M15.6,130.8c0.9,3.3,1.9,6.7,2.6,10c-2.5-9.2-6.8-21.8-4.7-29.6l0,0c-0.1,1.2-0.4,2.3-0.5,3.5
				c0.3,3.2,0.7,6.4,1,9.7C14.5,126.5,15,128.7,15.6,130.8z"/>
		</g>
	</g>
</g>
</svg>
