<?xml version="1.0" encoding="utf-8"?>
<!-- Generator: Adobe Illustrator 18.1.1, SVG Export Plug-In . SVG Version: 6.00 Build 0)  -->
<!DOCTYPE svg PUBLIC "-//W3C//DTD SVG 1.1//EN" "http://www.w3.org/Graphics/SVG/1.1/DTD/svg11.dtd">
<svg version="1.1" id="Layer_1" xmlns="http://www.w3.org/2000/svg" xmlns:xlink="http://www.w3.org/1999/xlink" x="0px" y="0px"
	 viewBox="0 0 200 200" style="enable-background:new 0 0 200 200;" xml:space="preserve">
<style type="text/css">
	.st0{fill:#A47AB6;}
	.st1{fill:#FFE584;}
</style>
<g>
	<path class="st0" d="M48.9,146.2c0,0,1.1-2.3-5.5-8.1c0,0-11.6-7.2-0.8-17.5c0,0,30.9-36.6,73.1-80.3c0,0,5.9-6.6,13.6,0.9
		c0,0,7.5,6.6,12.8,2.2l3.9,4.5c0,0-2.1,3.6,2.7,10.6c0,0,8.5,9.7-1.2,17.4c0,0-32.8,42.3-67.6,76.8c0,0-4.4,8-11.7,5.1
		c0,0-8.3-7.1-10.8-3.7C57.3,153.9,52.6,147.3,48.9,146.2z"/>
	<path class="st1" d="M140.7,43.9c0,0-0.2,2.6,4,4.5c0,0,2.5,0.2,3-1.6c0,0,7.3,3.6,28.3-3.9c0,0,3.8-2.2-3.7-2.4
		c0,0-7.1-0.9-12.4-4.8c0,0,2.4-3-0.7-3.1c0,0-6.1-0.6-4.5-5.1c0,0,2-4.9-4-4.9c0,0-8.8-1.8-12-3c0,0-4.3-2.3-1.7,3.4
		c0,0,3.9,7.6,4,12.3c0,0,0.3,3.4,1.3,6.3C142.4,41.5,140.8,41.7,140.7,43.9z"/>
	<path class="st1" d="M48.9,146.2c0,0,7.3,0.7,8.4,7.4c0.1,0.3,0,0.6-0.1,0.9c-0.2,0.3-0.5,0.6-1.1,0.8c-0.4,0.1-0.8,0.4-1,0.8
		c-1,1.8-3.4,6.6-3.6,9.9c0,0-1.5,11.5-4.8,10.8c-0.5-0.1-0.8-0.4-1-0.9c-0.6-1.4-2.2-5.4-1.5-9.5c0-0.1,0-0.3,0-0.5
		c-0.2-1.1-0.1-4.3-3.3-4.4c-0.3,0-1.5,0.4-1.8,0.4c-1.9-0.3-8.5-2.3-13.3-13.2c0,0-3.1-4.6,4.8-2.3c0,0,4.8,1.1,8.9,0.7
		c0.1,0,0.1,0,0.2,0C40.5,146.8,47.1,145.5,48.9,146.2z"/>
	<polygon class="st1" points="53.7,107.5 76.3,156.5 91.2,140.9 67.8,91.6 	"/>
	<path class="st1" d="M80.4,77.7c0,0,10.1,17.5,24,49l14.3-16.1c0,0-21.8-47.8-23.9-48.3L80.4,77.7z"/>
	<path class="st1" d="M107.1,49.1c0,0,12.6,23.9,22.5,48.5l13.1-16c0,0-14.4-36.8-19.5-43.9c0,0-3.2-1.9-7.6,2.6L107.1,49.1z"/>
</g>
</svg>
