<?xml version="1.0" encoding="utf-8"?>
<!-- Generator: Adobe Illustrator 18.1.1, SVG Export Plug-In . SVG Version: 6.00 Build 0)  -->
<!DOCTYPE svg PUBLIC "-//W3C//DTD SVG 1.1//EN" "http://www.w3.org/Graphics/SVG/1.1/DTD/svg11.dtd">
<svg version="1.1" id="Layer_1" xmlns="http://www.w3.org/2000/svg" xmlns:xlink="http://www.w3.org/1999/xlink" x="0px" y="0px"
	 viewBox="662.9 0 397 864" style="enable-background:new 662.9 0 397 864;" xml:space="preserve">
<style type="text/css">
	.st0{fill:#A47AB6;}
	.st1{fill:#FFE584;}
</style>
<g>
	<path class="st0" d="M850.6,719c0,0-3-9.7-37.9-8.9c0,0-53.3,9.9-49.6-49.1c0,0-8.4-190.2-2.5-431.9c0,0-0.7-35.2,42.1-34
		c0,0,39.7-0.7,43.1-28.3l23.3,2.5c0,0,3.5,16.4,36.4,23.6c0,0,51.1,5.7,43.1,54c0,0,17.9,212,9.4,406.8c0,0,8.4,35.2-20.6,46.1
		c0,0-43.4,1.7-41.7,18.3C896,718.7,864.2,712.3,850.6,719z"/>
	<path class="st1" d="M843.4,172.6c0,0,6.7,8.2,23.8,2.2c0,0,7.7-6,4.5-12.9c0,0,31.2-9.2,72.4-87.8c0,0,5-16.9-17.1,3
		c0,0-23.3,16.4-49.1,19.1c0,0-1.2-15.4-10.4-7.4c0,0-19.3,14.6-27-3c0,0-7.2-19.6-25-3.5c0,0-30.7,18.3-43.1,23.6
		c0,0-18.8,4.7,4.2,14.6c0,0,31.7,11.9,44.6,25c0,0,9.9,9.2,20.8,15.1C841.7,160.9,838,165.9,843.4,172.6z"/>
	<path class="st1" d="M850.6,719c0,0,23.3-17.9,44.4-1.2c1,0.7,1.7,2,2,3.2c0.2,1.2,0.2,3.2-1,5.2c-1,1.5-1.2,3.2-0.7,5
		c2,7.7,7.9,28.5,16.1,38.4c0,0,26.5,37.7,15.1,44.4c-1.5,1-3.5,1-5.2,0.2c-5.5-2.2-20.8-9.9-29.8-23.8c-0.2-0.5-0.7-1-1.2-1.2
		c-3.5-2.7-11.9-12.4-21.6-4.2c-1,0.7-3.2,5.2-4.2,6c-6.4,4.2-30.7,16.1-74.6-2.7c0,0-21.3-5.2,7.7-19.6c0,0,16.9-9.7,28-21.8
		c0.2-0.2,0.2-0.2,0.5-0.5C827.6,743.5,843.4,721.9,850.6,719z"/>
	<polygon class="st1" points="760.6,593 958.5,675.3 959.9,589.3 758.9,508.5 	"/>
	<path class="st1" d="M758.1,433.9c0,0,76.6,24,202.1,78.6l-1.7-85.5c0,0-192.6-81.1-200.1-76.6L758.1,433.9z"/>
	<path class="st1" d="M759.1,278.4c0,0,101.2,35.9,196.6,81.1l-4.7-82.1c0,0-141.3-68.9-175.5-75.9c0,0-14.6,3-15.1,27.8
		L759.1,278.4z"/>
</g>
</svg>
