<?xml version="1.0" encoding="utf-8"?>
<!-- Generator: Adobe Illustrator 18.1.1, SVG Export Plug-In . SVG Version: 6.00 Build 0)  -->
<!DOCTYPE svg PUBLIC "-//W3C//DTD SVG 1.1//EN" "http://www.w3.org/Graphics/SVG/1.1/DTD/svg11.dtd">
<svg version="1.1" id="Layer_1" xmlns="http://www.w3.org/2000/svg" xmlns:xlink="http://www.w3.org/1999/xlink" x="0px" y="0px"
	 viewBox="299.8 0 1175.8 864" style="enable-background:new 299.8 0 1175.8 864;" xml:space="preserve">
<style type="text/css">
	.st0{fill:#FCCEBD;}
	.st1{fill:#F27581;}
	.st2{fill:#A47AB6;}
	.st3{fill:#2BB673;}
	.st4{fill:#7BD3F7;}
	.st5{fill:#F594A0;}
	.st6{fill:#FFE584;}
</style>
<g>
	<g>
		<path class="st0" d="M988.7,100.7C736,16.2,482.8,96.9,422.9,281.2s96.4,402.3,348.8,486.9c252.7,84.6,505.9,3.9,565.8-180.5
			C1397.5,403.3,1241.2,185.3,988.7,100.7z M1061.2,493.3c-18.3,56.3-113.9,75.1-213.6,41.6S682.1,428.7,700.3,372.5
			s113.9-75.1,213.6-41.6C1013.7,364,1079.5,436.7,1061.2,493.3z"/>
	</g>
</g>
<path class="st1" d="M434,240.1c0,0-23.9,45.2-18,77.1c2.6,13.1,14.4,20.8,27.8,22.4c5.1,0.5,10.3,5.4,10.5,22.6
	c0,6.7-1,13.1-2.6,19.5c-4.6,19-13.1,71,40.9,60.7c0,0,33.4-5.9,9.8,47.6c-2.6,5.9-4.4,12.1-4.1,18.5c0.3,12.9,6.4,30.3,38.3,23.7
	c0,0,20.1-6.2,32.9,6.7c5.7,5.7,7.7,13.6,7.5,21.3c-1.5,26.5-1.3,108.5,63.5,80.7c0,0,64.8-44,77.6,14.1c0,0,14.7,121.1,94.9,35
	c0,0,33.7-41.9,66.8,6.2c0,0,39.1,114.1,75.6,28.8c0,0,23.9-64,75.1-7.7c0,0,75.8,96.7,87.4-38.8c0,0,9.5-54.8,56.3-19.3
	c0,0,52.2,58.1,73.8-18.5c0,0,11.1-57.6,37-42.4c0,0,55.8,31.1,65-79.2c0,0,0-53.5-9.3-87.9l-291.3,81.7c0,0-65,56-195.1,17.7
	c0,0-201.5-67.6-142.9-209.5C712.1,321.6,541.4,164.7,434,240.1z"/>
<path class="st1" d="M434,240.1c0,0,85.3-192.3,412.6-170.7c0,0,254,13.4,413.4,208c0,0,62,65.3,81.2,154l-291.3,81.7
	c0,0,25.4-12.9,38.8-72.2c4.9-21.6,3.3-41.6-12.9-39.1c0,0-43.4,23.9-32.6-36c0,0,2.1-37.8-41.1-33.2c0,0-49.6,11.6-62-30.1
	c0,0-10.5-43.7-44.2-23.1c0,0-30.3,41.9-77.9,11.1c0,0-42.7-36-55.8,11.1c0,0-9.5,24.4-38.6,9c-4.1-2.1-8,2.3-12.1,11.1
	c0,0-24.4,26.5-4.9,90.7"/>
<g>
	<g>
		<path class="st2" d="M653.3,231.1c-13.4,0-27-3.9-38.6-10c-7.5-4.1-14.1,7.5-6.7,11.3c13.6,7.5,29.6,11.8,45.2,11.8
			C661.8,244.4,661.8,231.1,653.3,231.1L653.3,231.1z"/>
	</g>
</g>
<g>
	<g>
		<path class="st3" d="M710.3,190.4c-13.9,1.3-28.3-1-41.1-6.2c-8-3.1-11.3,9.5-3.6,12.6c13.9,5.7,29.8,8.2,44.7,6.7
			C718.8,202.8,718.8,189.4,710.3,190.4L710.3,190.4z"/>
	</g>
</g>
<g>
	<path class="st4" d="M685.4,264.2c0,0,10.3-19.8,29-32.1"/>
	<g>
		<path class="st4" d="M691.1,267.6c6.2-11.8,15.7-22.4,26.7-29.8c6.9-4.6,0.5-16.2-6.7-11.3c-12.9,8.7-24.2,20.8-31.4,34.4
			C675.9,268.3,687.2,275,691.1,267.6L691.1,267.6z"/>
	</g>
</g>
<g>
	<g>
		<path class="st5" d="M744.8,127c-5.4,12.1-14.1,23.4-24.7,31.4c-6.7,5.1,0,16.5,6.7,11.3c12.3-9.5,23.1-21.9,29.6-36.2
			C759.7,125.9,748.4,119.2,744.8,127L744.8,127z"/>
	</g>
</g>
<g>
	<g>
		<path class="st5" d="M816.3,123.1c-5.4,12.1-14.1,23.4-24.7,31.4c-6.7,5.1,0,16.5,6.7,11.3c12.3-9.5,23.1-21.9,29.6-36.2
			C831.2,122.1,819.8,115.4,816.3,123.1L816.3,123.1z"/>
	</g>
</g>
<g>
	<g>
		<path class="st5" d="M600.6,185.6c-11.1,8.5-24.7,14.1-38.3,16.2c-8.2,1.3-4.9,14.1,3.6,12.6c14.7-2.3,29.6-8.5,41.4-17.7
			C613.7,191.7,607.3,180.4,600.6,185.6L600.6,185.6z"/>
	</g>
</g>
<g>
	<g>
		<path class="st5" d="M528.1,372.7c-11.1,8.5-24.7,14.1-38.3,16.2c-8.2,1.3-4.9,14.1,3.6,12.6c14.7-2.3,29.6-8.5,41.4-17.7
			C541.2,379.1,534.8,367.6,528.1,372.7L528.1,372.7z"/>
	</g>
</g>
<g>
	<g>
		<path class="st2" d="M702.9,117.7c-11.1,8.5-24.7,14.1-38.3,16.2c-8.2,1.3-4.9,14.1,3.6,12.6c14.7-2.3,29.6-8.5,41.4-17.7
			C716,124.1,709.6,112.6,702.9,117.7L702.9,117.7z"/>
	</g>
</g>
<g>
	<g>
		<path class="st6" d="M603.4,149.8c11.1,8.7,19.8,20.3,25.2,33.2c3.3,7.7,14.7,1,11.3-6.7c-5.9-13.6-15.7-26.7-27.2-35.7
			C606.2,135.2,597,144.4,603.4,149.8L603.4,149.8z"/>
	</g>
</g>
<g>
	<g>
		<path class="st6" d="M753.3,189.7c-1.5,14.9,1.3,30.8,6.9,44.5c3.1,7.7,15.9,4.4,12.6-3.6c-5.4-12.9-7.7-27.2-6.4-41.1
			C767.4,181.2,754.3,181.2,753.3,189.7L753.3,189.7z"/>
	</g>
</g>
<g>
	<g>
		<path class="st3" d="M862.8,200.5c-13.9,1.3-28.3-1-41.1-6.2c-8-3.1-11.3,9.5-3.6,12.6c13.9,5.7,29.8,8.2,44.7,6.7
			C871.3,212.8,871.3,199.7,862.8,200.5L862.8,200.5z"/>
	</g>
</g>
<g>
	<g>
		<path class="st3" d="M646.8,119.2c-13.9,1.3-28.3-1-41.1-6.2c-8-3.1-11.3,9.5-3.6,12.6c13.9,5.7,29.8,8.2,44.7,6.7
			C655.3,131.6,655.3,118.2,646.8,119.2L646.8,119.2z"/>
	</g>
</g>
<g>
	<g>
		<path class="st3" d="M666.6,353.9c-13.9,1.3-28.3-1-41.1-6.2c-8-3.1-11.3,9.5-3.6,12.6c13.9,5.7,29.8,8.2,44.7,6.7
			C675.1,366.3,675.1,353.2,666.6,353.9L666.6,353.9z"/>
	</g>
</g>
<g>
	<path class="st4" d="M838.1,274.3c0,0,10.3-19.8,29-32.1"/>
	<g>
		<path class="st4" d="M843.8,277.6c6.2-11.8,15.7-22.4,26.7-29.8c6.9-4.6,0.5-16.2-6.7-11.3c-12.9,8.7-24.2,20.8-31.4,34.4
			C828.3,278.6,839.6,285.3,843.8,277.6L843.8,277.6z"/>
	</g>
</g>
<g>
	<g>
		<path class="st6" d="M902.4,189.7c-1.5,14.9,1.3,30.8,6.9,44.5c3.1,7.7,15.9,4.4,12.6-3.6c-5.4-12.9-7.7-27.2-6.4-41.1
			C916.5,181.2,903.1,181.2,902.4,189.7L902.4,189.7z"/>
	</g>
</g>
<g>
	<g>
		<path class="st3" d="M745.6,538.3c-13.9,1.3-28.3-1-41.1-6.2c-8-3.1-11.3,9.5-3.6,12.6c13.9,5.7,29.8,8.2,44.7,6.7
			C753.8,550.6,754,537.5,745.6,538.3L745.6,538.3z"/>
	</g>
</g>
<g>
	<path class="st4" d="M720.6,612c0,0,10.3-19.8,29-32.1"/>
	<g>
		<path class="st4" d="M726.3,615.4c6.2-11.8,15.7-22.4,26.7-29.8c6.9-4.6,0.5-16.2-6.7-11.3c-12.9,8.7-24.2,20.8-31.4,34.4
			C711.1,616.4,722.4,623.1,726.3,615.4L726.3,615.4z"/>
	</g>
</g>
<g>
	<g>
		<path class="st6" d="M785.1,527.5c-1.5,14.9,1.3,30.8,6.9,44.5c3.1,7.7,15.9,4.4,12.6-3.6c-5.4-12.9-7.7-27.2-6.4-41.1
			C799,519,785.9,519,785.1,527.5L785.1,527.5z"/>
	</g>
</g>
<g>
	<g>
		<path class="st2" d="M1215.2,546.2c1,13.4-1.3,27.2-6.7,39.3c-3.3,7.7,8,14.4,11.3,6.7c6.2-14.1,9.8-30.3,8.5-46
			C1227.6,537.7,1214.4,537.7,1215.2,546.2L1215.2,546.2z"/>
	</g>
</g>
<g>
	<g>
		<path class="st3" d="M1170,494.3c2.3,13.1,1,27.2-3.1,39.8c-2.6,8.2,10.3,11.6,12.6,3.6c4.6-14.9,5.9-31.4,3.1-46.8
			C1181.3,482.5,1168.4,486.1,1170,494.3L1170,494.3z"/>
	</g>
</g>
<g>
	<g>
		<path class="st3" d="M1216.2,375.5c2.3,13.1,1,27.2-3.1,39.8c-2.6,8.2,10.3,11.6,12.6,3.6c4.6-14.9,5.9-31.4,3.1-46.8
			C1227.6,363.7,1215,367.3,1216.2,375.5L1216.2,375.5z"/>
	</g>
</g>
<g>
	<g>
		<path class="st3" d="M1147.9,309.5c2.3,13.1,1,27.2-3.1,39.8c-2.6,8.2,10.3,11.6,12.6,3.6c4.6-14.9,5.9-31.4,3.1-46.8
			C1159.2,297.6,1146.3,301.2,1147.9,309.5L1147.9,309.5z"/>
	</g>
</g>
<g>
	<path class="st4" d="M1245.3,512c0,0-20.8-8.7-34.4-26.2"/>
	<g>
		<path class="st4" d="M1248.6,506.1c-12.9-5.4-24.4-14.4-33.2-25.2c-5.4-6.7-14.7,2.8-9.3,9.3c9.3,11.6,22.1,21.6,35.7,27.2
			C1249.9,520.8,1256.6,509.5,1248.6,506.1L1248.6,506.1z"/>
	</g>
</g>
<g>
	<path class="st4" d="M1141.7,400.2c0,0-20.8-8.7-34.4-26.2"/>
	<g>
		<path class="st4" d="M1145,394.6c-12.9-5.4-24.4-14.4-33.2-25.2c-5.4-6.7-14.7,2.8-9.3,9.3c9.3,11.6,22.1,21.6,35.7,27.2
			C1146.1,409,1152.8,397.6,1145,394.6L1145,394.6z"/>
	</g>
</g>
<g>
	<g>
		<path class="st5" d="M1104.9,464.5c12.6,4.4,24.2,12.9,33.2,22.6c5.7,6.2,14.9-3.1,9.3-9.3c-10.5-11.6-24.2-20.8-38.8-26
			C1100.3,449.1,1097,461.7,1104.9,464.5L1104.9,464.5z"/>
	</g>
</g>
<g>
	<g>
		<path class="st5" d="M1174.9,604.1c9,9.8,15.2,22.6,18.5,35.5c2.1,8.2,14.7,4.6,12.6-3.6c-3.9-15.2-11.3-29.8-21.9-41.4
			C1178.5,588.4,1169.2,597.6,1174.9,604.1L1174.9,604.1z"/>
	</g>
</g>
<g>
	<g>
		<path class="st5" d="M1307.2,428.5c9,9.8,15.2,22.6,18.5,35.5c2.1,8.2,14.7,4.6,12.6-3.6c-3.9-15.2-11.3-29.8-21.9-41.4
			C1310.8,412.8,1301.3,422.3,1307.2,428.5L1307.2,428.5z"/>
	</g>
</g>
<g>
	<g>
		<path class="st5" d="M741.4,652.9c9,9.8,15.2,22.6,18.5,35.5c2.1,8.2,14.7,4.6,12.6-3.6c-3.9-15.2-11.3-29.8-21.9-41.4
			C745,637.5,735.8,646.7,741.4,652.9L741.4,652.9z"/>
	</g>
</g>
<g>
	<g>
		<path class="st2" d="M1098.8,507.7c9,9.8,15.2,22.6,18.5,35.5c2.1,8.2,14.7,4.6,12.6-3.6c-3.9-15.2-11.3-29.8-21.9-41.4
			C1102.4,492,1093.1,501.2,1098.8,507.7L1098.8,507.7z"/>
	</g>
</g>
<g>
	<g>
		<path class="st2" d="M1256.3,428.5c9,9.8,15.2,22.6,18.5,35.5c2.1,8.2,14.7,4.6,12.6-3.6c-3.9-15.2-11.3-29.8-21.9-41.4
			C1259.9,412.8,1250.7,422.3,1256.3,428.5L1256.3,428.5z"/>
	</g>
</g>
<g>
	<g>
		<path class="st6" d="M1138.9,602c7.5-11.1,18.3-20.3,29.8-26.7c7.5-3.9,0.8-15.4-6.7-11.3c-13.6,7.2-26,18.5-34.7,31.4
			C1122.7,602.5,1134,609.2,1138.9,602L1138.9,602z"/>
	</g>
</g>
<g>
	<g>
		<path class="st6" d="M1155.1,454.7c15.7,0.3,31.6-3.9,45.5-11.1c7.5-3.9,0.8-15.2-6.7-11.3c-11.8,6.2-25.4,9.5-38.8,9.3
			C1146.6,441.3,1146.6,454.7,1155.1,454.7L1155.1,454.7z"/>
	</g>
</g>
<g>
	<g>
		<path class="st6" d="M1284.1,514.6c15.7,0.3,31.6-3.9,45.5-11.1c7.5-3.9,0.8-15.2-6.7-11.3c-11.8,6.2-25.4,9.5-38.8,9.3
			C1275.6,501.2,1275.6,514.4,1284.1,514.6L1284.1,514.6z"/>
	</g>
</g>
<g>
	<g>
		<path class="st2" d="M1102.1,225.2c12.1,5.4,23.4,14.4,31.4,24.7c5.1,6.7,16.5,0,11.3-6.7c-9.5-12.3-21.9-23.1-36.2-29.6
			C1101.1,210.2,1094.4,221.6,1102.1,225.2L1102.1,225.2z"/>
	</g>
</g>
<g>
	<g>
		<path class="st2" d="M1201.6,266.5c12.1,5.4,23.4,14.4,31.4,24.7c5.1,6.7,16.5,0,11.3-6.7c-9.5-12.3-21.9-23.1-36.2-29.6
			C1200.6,251.6,1193.9,262.9,1201.6,266.5L1201.6,266.5z"/>
	</g>
</g>
<g>
	<g>
		<path class="st3" d="M1035,239.8c12.6,4.1,24.4,12.1,33.7,21.6c5.9,6.2,15.2-3.1,9.3-9.3c-10.8-11.3-24.7-20.3-39.3-25.2
			C1030.4,224.4,1027,237.2,1035,239.8L1035,239.8z"/>
	</g>
</g>
<g>
	<g>
		<path class="st3" d="M993.1,141.9c12.6,4.1,24.4,12.1,33.7,21.6c5.9,6.2,15.2-3.1,9.3-9.3c-10.8-11.3-24.7-20.3-39.3-25.2
			C988.7,126.4,985.1,139,993.1,141.9L993.1,141.9z"/>
	</g>
</g>
<g>
	<path class="st4" d="M1086.9,182.2c0,0-17.5,14.1-39.6,17.5"/>
	<g>
		<path class="st4" d="M1082.3,177.6c1.5-1-1.8,1.3-2.6,1.8c-2.6,1.8-5.1,3.3-7.7,4.6c-8.2,4.6-17.2,7.7-26.5,9.5
			c-8.2,1.5-4.9,14.1,3.6,12.6c15.4-2.8,30.3-9.5,42.7-19.3C1098.3,181.5,1088.7,172.2,1082.3,177.6L1082.3,177.6z"/>
	</g>
</g>
<g>
	<g>
		<path class="st5" d="M977.7,282.7c10-9,22.9-15.2,35.7-18.3c8.2-2.1,4.6-14.7-3.6-12.6c-15.2,3.6-29.8,11.3-41.4,21.6
			C962,279.1,971.3,288.4,977.7,282.7L977.7,282.7z"/>
	</g>
</g>
<g>
	<g>
		<path class="st5" d="M731.4,104.3c10-9,22.9-15.2,35.7-18.3c8.2-2.1,4.6-14.7-3.6-12.6c-15.2,3.6-29.8,11.3-41.4,21.6
			C715.7,100.5,725.2,109.7,731.4,104.3L731.4,104.3z"/>
	</g>
</g>
<g>
	<g>
		<path class="st5" d="M1133.5,288.4c12.9-3.1,27-2.6,39.8,0.8c8.2,2.1,11.8-10.5,3.6-12.6c-15.2-3.9-31.6-4.4-46.8-0.8
			C1121.6,277.6,1125.2,290.2,1133.5,288.4L1133.5,288.4z"/>
	</g>
</g>
<g>
	<g>
		<path class="st2" d="M1012.4,308.7c12.9-3.1,27-2.6,39.8,0.8c8.2,2.1,11.8-10.5,3.6-12.6c-15.2-3.9-31.6-4.4-46.8-0.8
			C1000.8,297.9,1004.2,310.5,1012.4,308.7L1012.4,308.7z"/>
	</g>
</g>
<g>
	<g>
		<path class="st2" d="M862.8,113.6c12.9-3.1,27-2.6,39.8,0.8c8.2,2.1,11.8-10.5,3.6-12.6c-15.2-3.9-31.6-4.4-46.8-0.8
			C851.2,102.8,854.6,115.6,862.8,113.6L862.8,113.6z"/>
	</g>
</g>
<g>
	<g>
		<path class="st5" d="M926.3,147.3c10-9,22.9-15.2,35.7-18.3c8.2-2.1,4.6-14.7-3.6-12.6c-15.2,3.6-29.8,11.3-41.4,21.6
			C910.6,143.7,919.8,152.9,926.3,147.3L926.3,147.3z"/>
	</g>
</g>
<g>
	<g>
		<path class="st2" d="M961,173c12.9-3.1,27-2.6,39.8,0.8c8.2,2.1,11.8-10.5,3.6-12.6c-15.2-3.9-31.6-4.4-46.8-0.8
			C949.4,162.4,952.8,175,961,173L961,173z"/>
	</g>
</g>
<g>
	<g>
		<path class="st5" d="M1245.3,554.7c10-9,22.9-15.2,35.7-18.3c8.2-2.1,4.6-14.7-3.6-12.6c-15.2,3.6-29.8,11.3-41.4,21.6
			C1229.9,551.1,1239.1,560.4,1245.3,554.7L1245.3,554.7z"/>
	</g>
</g>
<g>
	<g>
		<path class="st2" d="M1280.3,580.7c12.9-3.1,27-2.6,39.8,0.8c8.2,2.1,11.8-10.5,3.6-12.6c-15.2-3.9-31.6-4.4-46.8-0.8
			C1268.4,569.9,1272,582.5,1280.3,580.7L1280.3,580.7z"/>
	</g>
</g>
<g>
	<g>
		<path class="st6" d="M1114.7,319c-6.2-11.8-9-25.7-9-38.8c0-8.5-13.1-8.5-13.1,0c0,15.7,3.6,31.6,10.8,45.5
			C1107.2,333.1,1118.6,326.4,1114.7,319L1114.7,319z"/>
	</g>
</g>
<g>
	<g>
		<path class="st6" d="M993.1,233.9c7.7-13.6,11.8-29.6,12.3-45.2c0.3-8.5-12.9-8.5-13.1,0c-0.3,13.1-3.9,27-10.5,38.6
			C977.7,234.7,989,241.3,993.1,233.9L993.1,233.9z"/>
	</g>
</g>
<g>
	<g>
		<path class="st6" d="M771,147.8c7.7-13.6,11.8-29.6,12.3-45.2c0.3-8.5-12.9-8.5-13.1,0c-0.3,13.1-3.9,27-10.5,38.6
			C755.3,148.5,766.9,155,771,147.8L771,147.8z"/>
	</g>
</g>
<g>
	<g>
		<path class="st6" d="M1278.5,402.8c7.7-13.6,11.8-29.6,12.3-45.2c0.3-8.5-12.9-8.5-13.1,0c-0.3,13.1-3.9,27-10.5,38.6
			C1263,403.6,1274.3,410,1278.5,402.8L1278.5,402.8z"/>
	</g>
</g>
<g>
	<g>
		<path class="st2" d="M660.5,443.1c12.1,5.4,23.4,14.4,31.4,24.7c5.1,6.7,16.5,0,11.3-6.7c-9.5-12.3-21.9-23.1-36.2-29.6
			C659.4,428.2,652.8,439.5,660.5,443.1L660.5,443.1z"/>
	</g>
</g>
<g>
	<g>
		<path class="st2" d="M563.6,314.6c12.1,5.4,23.4,14.4,31.4,24.7c5.1,6.7,16.5,0,11.3-6.7c-9.5-12.3-21.9-23.1-36.2-29.6
			C562.8,299.7,555.8,311,563.6,314.6L563.6,314.6z"/>
	</g>
</g>
<g>
	<g>
		<path class="st3" d="M593.4,457.8c12.6,4.1,24.4,12.1,33.7,21.6c5.9,6.2,15.2-3.1,9.3-9.3c-10.8-11.3-24.7-20.3-39.3-25.2
			C588.7,442.4,585.4,455.2,593.4,457.8L593.4,457.8z"/>
	</g>
</g>
<g>
	<g>
		<path class="st3" d="M593.4,572.7c12.6,4.1,24.4,12.1,33.7,21.6c5.9,6.2,15.2-3.1,9.3-9.3c-10.8-11.3-24.7-20.3-39.3-25.2
			C588.7,557.5,585.4,570.1,593.4,572.7L593.4,572.7z"/>
	</g>
</g>
<g>
	<path class="st4" d="M645.3,400.2c0,0-17.5,14.1-39.6,17.5"/>
	<g>
		<path class="st4" d="M640.7,395.6c1.5-1-1.8,1.3-2.6,1.8c-2.6,1.8-5.1,3.3-7.7,4.6c-8.2,4.6-17.2,7.7-26.5,9.5
			c-8.2,1.5-4.9,14.1,3.6,12.6c15.4-2.8,30.3-9.5,42.7-19.3C656.6,399.4,647.1,390.2,640.7,395.6L640.7,395.6z"/>
	</g>
</g>
<g>
	<path class="st4" d="M583.3,367.3c0,0-21.9-4.6-38.8-19.5"/>
	<g>
		<path class="st4" d="M585.1,360.9c-13.1-2.8-25.7-9.3-35.7-17.7c-6.4-5.4-15.7,3.9-9.3,9.3c11.8,10,26.5,17.7,41.6,21.1
			C589.8,375.5,593.4,362.7,585.1,360.9L585.1,360.9z"/>
	</g>
</g>
<g>
	<path class="st4" d="M719.9,282.5c0,0-17.5,14.1-39.6,17.5"/>
	<g>
		<path class="st4" d="M715.2,277.9c1.5-1-1.8,1.3-2.6,1.8c-2.6,1.8-5.1,3.3-7.7,4.6c-8.2,4.6-17.2,7.7-26.5,9.5
			c-8.2,1.5-4.9,14.1,3.6,12.6c15.4-2.8,30.3-9.5,42.7-19.3C731.2,282,721.7,272.7,715.2,277.9L715.2,277.9z"/>
	</g>
</g>
<g>
	<path class="st4" d="M887.7,138.3c0,0-17.5,14.1-39.6,17.5"/>
	<g>
		<path class="st4" d="M883.1,133.6c1.5-1-1.8,1.3-2.6,1.8c-2.6,1.8-5.1,3.3-7.7,4.6c-8.2,4.6-17.2,7.7-26.5,9.5
			c-8.2,1.5-4.9,14.1,3.6,12.6c15.4-2.8,30.3-9.5,42.7-19.3C899,137.8,889.5,128.5,883.1,133.6L883.1,133.6z"/>
	</g>
</g>
<g>
	<path class="st4" d="M495.9,269.4c0,0-17.5,14.1-39.6,17.5"/>
	<g>
		<path class="st4" d="M491.3,264.7c1.5-1-1.8,1.3-2.6,1.8c-2.6,1.8-5.1,3.3-7.7,4.6c-8.2,4.6-17.2,7.7-26.5,9.5
			c-8.2,1.5-4.9,14.1,3.6,12.6c15.4-2.8,30.3-9.5,42.7-19.3C507.3,268.6,498,259.3,491.3,264.7L491.3,264.7z"/>
	</g>
</g>
<g>
	<g>
		<path class="st5" d="M536,500.7c10-9,22.9-15.2,35.7-18.3c8.2-2.1,4.6-14.7-3.6-12.6c-15.2,3.6-29.8,11.3-41.4,21.6
			C520.4,497.1,529.6,506.4,536,500.7L536,500.7z"/>
	</g>
</g>
<g>
	<g>
		<path class="st5" d="M691.8,506.4c12.9-3.1,27-2.6,39.8,0.8c8.2,2.1,11.8-10.5,3.6-12.6c-15.2-3.9-31.6-4.4-46.8-0.8
			C680.3,495.6,683.6,508.2,691.8,506.4L691.8,506.4z"/>
	</g>
</g>
<g>
	<g>
		<path class="st5" d="M1201.8,356.8c12.9-3.1,27-2.6,39.8,0.8c8.2,2.1,11.8-10.5,3.6-12.6c-15.2-3.9-31.6-4.4-46.8-0.8
			C1190.3,346,1193.6,358.6,1201.8,356.8L1201.8,356.8z"/>
	</g>
</g>
<g>
	<g>
		<path class="st2" d="M570.8,526.7c12.9-3.1,27-2.6,39.8,0.8c8.2,2.1,11.8-10.5,3.6-12.6c-15.2-3.9-31.6-4.4-46.8-0.8
			C559.2,515.9,562.5,528.5,570.8,526.7L570.8,526.7z"/>
	</g>
</g>
<g>
	<g>
		<path class="st6" d="M673.1,537c-6.2-11.8-9-25.7-9-38.8c0-8.5-13.1-8.5-13.1,0c0,15.7,3.6,31.6,10.8,45.5
			C665.6,551.1,676.9,544.4,673.1,537L673.1,537z"/>
	</g>
</g>
<g>
	<g>
		<path class="st6" d="M786.7,633.4c-6.2-11.8-9-25.7-9-38.8c0-8.5-13.1-8.5-13.1,0c0,15.7,3.6,31.6,10.8,45.5
			C779.2,647.5,790.5,640.8,786.7,633.4L786.7,633.4z"/>
	</g>
</g>
<g>
	<g>
		<path class="st6" d="M551.5,451.9c7.7-13.6,11.8-29.6,12.3-45.2c0.3-8.5-12.9-8.5-13.1,0c-0.3,13.1-3.9,27-10.5,38.6
			C536,452.7,547.4,459.3,551.5,451.9L551.5,451.9z"/>
	</g>
</g>
<g>
	<g>
		<path class="st2" d="M1003.7,669.4c-12.9,2.8-27,2.3-39.8-1.3c-8.2-2.3-11.6,10.5-3.6,12.6c15.2,4.1,31.6,4.6,46.8,1.3
			C1015.5,680.4,1011.9,667.6,1003.7,669.4L1003.7,669.4z"/>
	</g>
</g>
<g>
	<g>
		<path class="st3" d="M1049.9,616.7c-12.6,4.4-26.7,5.4-39.8,3.3c-8.2-1.3-11.8,11.3-3.6,12.6c15.4,2.3,31.9,1.5,46.8-3.3
			C1061.2,626.7,1057.9,614.1,1049.9,616.7L1049.9,616.7z"/>
	</g>
</g>
<g>
	<g>
		<path class="st3" d="M941.4,702c-12.6,4.4-26.7,5.4-39.8,3.3c-8.2-1.3-11.8,11.3-3.6,12.6c15.4,2.3,31.9,1.5,46.8-3.3
			C952.8,712,949.4,699.2,941.4,702L941.4,702z"/>
	</g>
</g>
<g>
	<path class="st4" d="M1042.7,694.3c0,0,5.4-21.9,21.1-38"/>
	<g>
		<path class="st4" d="M1049.2,696.1c3.3-12.9,10.3-25.2,19.3-35c5.7-6.2-3.6-15.7-9.3-9.3c-10.5,11.3-18.8,25.7-22.6,40.9
			C1034.2,700.7,1046.8,704.1,1049.2,696.1L1049.2,696.1z"/>
	</g>
</g>
<g>
	<path class="st4" d="M872.3,660.9c0,0,5.4-21.9,21.1-38"/>
	<g>
		<path class="st4" d="M878.7,662.7c3.3-12.9,10.3-25.2,19.3-35c5.7-6.2-3.6-15.7-9.3-9.3c-10.5,11.3-18.8,25.7-22.6,40.9
			C863.8,667.3,876.7,670.9,878.7,662.7L878.7,662.7z"/>
	</g>
</g>
<g>
	<path class="st4" d="M534,181.2c0,0,5.4-21.9,21.1-38"/>
	<g>
		<path class="st4" d="M540.4,183c3.3-12.9,10.3-25.2,19.3-35c5.7-6.2-3.6-15.7-9.3-9.3c-10.5,11.3-18.8,25.7-22.6,40.9
			C525.5,187.9,538.4,191.2,540.4,183L540.4,183z"/>
	</g>
</g>
<g>
	<g>
		<path class="st5" d="M1069.2,547.3c-2.6,13.1-8.5,26-17,36.2c-5.4,6.4,3.9,15.9,9.3,9.3c9.8-12.1,17.5-26.7,20.3-42.2
			C1083.3,542.4,1070.7,538.8,1069.2,547.3L1069.2,547.3z"/>
	</g>
</g>
<g>
	<g>
		<path class="st5" d="M942,637.2c-8.5,10.3-19.8,19-32.1,23.9c-7.7,3.1-4.4,15.9,3.6,12.6c14.4-5.9,28-15.2,37.8-27.2
			C956.6,640.1,947.4,630.5,942,637.2L942,637.2z"/>
	</g>
</g>
<g>
	<g>
		<path class="st5" d="M860.7,581.7c-8.5,10.3-19.8,19-32.1,23.9c-7.7,3.1-4.4,15.9,3.6,12.6c14.4-5.9,28-15.2,37.8-27.2
			C875.4,584.5,866.1,575.3,860.7,581.7L860.7,581.7z"/>
	</g>
</g>
<g>
	<g>
		<path class="st2" d="M1026,547.8c-8.5,10.3-19.8,19-32.1,23.9c-7.7,3.1-4.4,15.9,3.6,12.6c14.4-5.9,28-15.2,37.8-27.2
			C1040.7,550.6,1031.4,541.3,1026,547.8L1026,547.8z"/>
	</g>
</g>
<g>
	<g>
		<path class="st6" d="M937.1,601.8c12.1,5.7,23.1,14.7,31.1,25.2c4.9,6.7,16.5,0.3,11.3-6.7c-9.3-12.3-21.6-23.4-35.7-30.1
			C936,586.6,929.4,598.2,937.1,601.8L937.1,601.8z"/>
	</g>
</g>
<g>
	<g>
		<path class="st2" d="M526.8,215.4c-12.9,2.8-27,2.3-39.8-1.3c-8.2-2.3-11.6,10.5-3.6,12.6c15.2,4.1,31.6,4.6,46.8,1.3
			C538.4,226.4,535,213.6,526.8,215.4L526.8,215.4z"/>
	</g>
</g>
<g>
	<g>
		<path class="st5" d="M502.1,322.1c-8.5,10.3-19.8,19-32.1,23.9c-7.7,3.1-4.4,15.9,3.6,12.6c14.4-5.9,28-15.2,37.8-27.2
			C516.8,324.9,507.5,315.6,502.1,322.1L502.1,322.1z"/>
	</g>
</g>
<g>
	<g>
		<path class="st2" d="M586.2,232.9c-8.5,10.3-19.8,19-32.1,23.9c-7.7,3.1-4.4,15.9,3.6,12.6c14.4-5.9,28-15.2,37.8-27.2
			C600.8,235.7,591.6,226.2,586.2,232.9L586.2,232.9z"/>
	</g>
</g>
<g>
	<g>
		<path class="st6" d="M605.5,292c12.1,5.7,23.1,14.7,31.1,25.2c4.9,6.7,16.5,0.3,11.3-6.7c-9.3-12.3-21.6-23.4-35.7-30.1
			C604.4,277.1,597.7,288.4,605.5,292L605.5,292z"/>
	</g>
</g>
<g>
	<g>
		<path class="st6" d="M1085.9,595.6c2.1,15.4,8,30.8,17.2,43.4c4.9,6.9,16.5,0.3,11.3-6.7c-5.7-7.7-9.8-16.2-12.6-25.2
			c-0.8-2.8-1.5-5.7-2.3-8.7c-0.3-1-1-5.9-0.5-2.8C1098,587.1,1084.9,587.1,1085.9,595.6L1085.9,595.6z"/>
	</g>
</g>
</svg>
