<?xml version="1.0" encoding="utf-8"?>
<!-- Generator: Adobe Illustrator 18.1.1, SVG Export Plug-In . SVG Version: 6.00 Build 0)  -->
<!DOCTYPE svg PUBLIC "-//W3C//DTD SVG 1.1//EN" "http://www.w3.org/Graphics/SVG/1.1/DTD/svg11.dtd">
<svg version="1.1" id="Layer_1" xmlns="http://www.w3.org/2000/svg" xmlns:xlink="http://www.w3.org/1999/xlink" x="0px" y="0px"
	 viewBox="0 0 200 200" style="enable-background:new 0 0 200 200;" xml:space="preserve">
<style type="text/css">
	.st0{fill:#FCCEBD;}
	.st1{fill:#F27581;}
	.st2{fill:#A47AB6;}
	.st3{fill:#2BB673;}
	.st4{fill:#7BD3F7;}
	.st5{fill:#F594A0;}
	.st6{fill:#FFE584;}
</style>
<g>
	<g>
		<path class="st0" d="M119.9,35.6C73.2,20,26.4,34.9,15.3,69C4.3,103,33.1,143.3,79.8,159c46.7,15.6,93.5,0.7,104.6-33.3
			C195.4,91.6,166.6,51.3,119.9,35.6z M133.3,108.2c-3.4,10.4-21.1,13.9-39.5,7.7s-30.6-19.6-27.2-30c3.4-10.4,21.1-13.9,39.5-7.7
			C124.5,84.3,136.7,97.7,133.3,108.2z"/>
	</g>
</g>
<path class="st1" d="M17.4,61.4c0,0-4.4,8.3-3.3,14.3c0.5,2.4,2.7,3.9,5.1,4.1c0.9,0.1,1.9,1,1.9,4.2c0,1.2-0.2,2.4-0.5,3.6
	c-0.9,3.5-2.4,13.1,7.6,11.2c0,0,6.2-1.1,1.8,8.8c-0.5,1.1-0.8,2.2-0.8,3.4c0.1,2.4,1.2,5.6,7.1,4.4c0,0,3.7-1.1,6.1,1.2
	c1,1,1.4,2.5,1.4,4c-0.3,4.9-0.2,20.1,11.7,14.9c0,0,12-8.1,14.4,2.6c0,0,2.7,22.4,17.5,6.5c0,0,6.2-7.8,12.4,1.1
	c0,0,7.2,21.1,14,5.3c0,0,4.4-11.8,13.9-1.4c0,0,14,17.9,16.1-7.2c0,0,1.8-10.1,10.4-3.5c0,0,9.6,10.7,13.6-3.4
	c0,0,2.1-10.6,6.8-7.8c0,0,10.3,5.7,12-14.6c0,0,0-9.9-1.7-16.2l-53.8,15.1c0,0-12,10.4-36.1,3.3c0,0-37.2-12.5-26.4-38.7
	C68.8,76.4,37.2,47.4,17.4,61.4z"/>
<path class="st1" d="M17.4,61.4c0,0,15.8-35.5,76.2-31.5c0,0,46.9,2.4,76.4,38.4c0,0,11.4,12.1,15,28.5l-53.8,15.1
	c0,0,4.7-2.4,7.2-13.3c0.9-4,0.6-7.7-2.4-7.2c0,0-8,4.4-6-6.7c0,0,0.4-7-7.6-6.1c0,0-9.1,2.1-11.5-5.5c0,0-2-8.1-8.2-4.3
	c0,0-5.6,7.8-14.4,2c0,0-7.9-6.6-10.3,2c0,0-1.7,4.5-7.1,1.7c-0.7-0.4-1.5,0.5-2.2,2c0,0-4.5,4.9-0.9,16.8"/>
<g>
	<g>
		<path class="st2" d="M57.9,59.7c-2.5,0-5-0.7-7.1-1.9c-1.4-0.7-2.6,1.4-1.2,2.1c2.5,1.4,5.5,2.2,8.4,2.2
			C59.5,62.2,59.5,59.7,57.9,59.7L57.9,59.7z"/>
	</g>
</g>
<g>
	<g>
		<path class="st3" d="M68.4,52.2c-2.6,0.3-5.2-0.2-7.6-1.2c-1.4-0.6-2.1,1.8-0.6,2.3c2.5,1,5.5,1.5,8.2,1.2
			C70,54.5,70,52,68.4,52.2L68.4,52.2z"/>
	</g>
</g>
<g>
	<path class="st4" d="M63.9,65.8c0,0,1.9-3.7,5.4-5.9"/>
	<g>
		<path class="st4" d="M64.9,66.4c1.1-2.2,2.9-4.1,4.9-5.5c1.3-0.9,0.1-3-1.2-2.1c-2.4,1.6-4.5,3.8-5.8,6.4
			C62.1,66.6,64.2,67.8,64.9,66.4L64.9,66.4z"/>
	</g>
</g>
<g>
	<g>
		<path class="st5" d="M74.8,40.5c-1,2.2-2.6,4.3-4.6,5.8c-1.2,0.9,0,3.1,1.2,2.1c2.3-1.7,4.3-4.1,5.4-6.7
			C77.6,40.3,75.5,39,74.8,40.5L74.8,40.5z"/>
	</g>
</g>
<g>
	<g>
		<path class="st5" d="M88,39.8c-1,2.2-2.6,4.3-4.6,5.8c-1.2,0.9,0,3.1,1.2,2.1c2.3-1.7,4.3-4.1,5.4-6.7
			C90.8,39.6,88.7,38.3,88,39.8L88,39.8z"/>
	</g>
</g>
<g>
	<g>
		<path class="st5" d="M48.2,51.3c-2.1,1.6-4.5,2.6-7.1,3c-1.5,0.3-0.9,2.6,0.6,2.3c2.7-0.4,5.5-1.6,7.7-3.3
			C50.6,52.5,49.4,50.3,48.2,51.3L48.2,51.3z"/>
	</g>
</g>
<g>
	<g>
		<path class="st5" d="M34.8,85.9c-2.1,1.6-4.5,2.6-7.1,3c-1.5,0.3-0.9,2.6,0.6,2.3c2.7-0.4,5.5-1.6,7.7-3.3
			C37.2,87.1,36,85,34.8,85.9L34.8,85.9z"/>
	</g>
</g>
<g>
	<g>
		<path class="st2" d="M67.1,38.8c-2.1,1.6-4.5,2.6-7.1,3c-1.5,0.3-0.9,2.6,0.6,2.3c2.7-0.4,5.5-1.6,7.7-3.3
			C69.5,39.9,68.3,37.8,67.1,38.8L67.1,38.8z"/>
	</g>
</g>
<g>
	<g>
		<path class="st6" d="M48.7,44.7c2,1.6,3.6,3.8,4.7,6.1c0.6,1.4,2.7,0.2,2.1-1.2c-1.1-2.5-2.9-4.9-5-6.6
			C49.2,42,47.5,43.7,48.7,44.7L48.7,44.7z"/>
	</g>
</g>
<g>
	<g>
		<path class="st6" d="M76.4,52.1c-0.3,2.8,0.2,5.7,1.3,8.2c0.6,1.4,2.9,0.8,2.3-0.6c-1-2.4-1.4-5-1.2-7.6
			C79,50.5,76.5,50.5,76.4,52.1L76.4,52.1z"/>
	</g>
</g>
<g>
	<g>
		<path class="st3" d="M96.6,54.1c-2.6,0.3-5.2-0.2-7.6-1.2c-1.4-0.6-2.1,1.8-0.6,2.3c2.5,1,5.5,1.5,8.2,1.2
			C98.2,56.4,98.2,53.9,96.6,54.1L96.6,54.1z"/>
	</g>
</g>
<g>
	<g>
		<path class="st3" d="M56.7,39c-2.6,0.3-5.2-0.2-7.6-1.2c-1.4-0.6-2.1,1.8-0.6,2.3c2.5,1,5.5,1.5,8.2,1.2
			C58.3,41.3,58.3,38.9,56.7,39L56.7,39z"/>
	</g>
</g>
<g>
	<g>
		<path class="st3" d="M60.4,82.4c-2.6,0.3-5.2-0.2-7.6-1.2c-1.4-0.6-2.1,1.8-0.6,2.3c2.5,1,5.5,1.5,8.2,1.2
			C61.9,84.7,61.9,82.3,60.4,82.4L60.4,82.4z"/>
	</g>
</g>
<g>
	<path class="st4" d="M92,67.7c0,0,1.9-3.7,5.4-5.9"/>
	<g>
		<path class="st4" d="M93.1,68.3c1.1-2.2,2.9-4.1,4.9-5.5c1.3-0.9,0.1-3-1.2-2.1c-2.4,1.6-4.5,3.8-5.8,6.4
			C90.3,68.5,92.4,69.7,93.1,68.3L93.1,68.3z"/>
	</g>
</g>
<g>
	<g>
		<path class="st6" d="M103.9,52.1c-0.3,2.8,0.2,5.7,1.3,8.2c0.6,1.4,2.9,0.8,2.3-0.6c-1-2.4-1.4-5-1.2-7.6
			C106.5,50.5,104.1,50.5,103.9,52.1L103.9,52.1z"/>
	</g>
</g>
<g>
	<g>
		<path class="st3" d="M75,116.5c-2.6,0.3-5.2-0.2-7.6-1.2c-1.4-0.6-2.1,1.8-0.6,2.3c2.5,1,5.5,1.5,8.2,1.2
			C76.5,118.8,76.5,116.4,75,116.5L75,116.5z"/>
	</g>
</g>
<g>
	<path class="st4" d="M70.4,130.1c0,0,1.9-3.7,5.4-5.9"/>
	<g>
		<path class="st4" d="M71.4,130.8c1.1-2.2,2.9-4.1,4.9-5.5c1.3-0.9,0.1-3-1.2-2.1c-2.4,1.6-4.5,3.8-5.8,6.4
			C68.6,130.9,70.7,132.1,71.4,130.8L71.4,130.8z"/>
	</g>
</g>
<g>
	<g>
		<path class="st6" d="M82.3,114.5c-0.3,2.8,0.2,5.7,1.3,8.2c0.6,1.4,2.9,0.8,2.3-0.6c-1-2.4-1.4-5-1.2-7.6
			C84.8,112.9,82.4,112.9,82.3,114.5L82.3,114.5z"/>
	</g>
</g>
<g>
	<g>
		<path class="st2" d="M161.7,117.9c0.2,2.4-0.3,5-1.2,7.3c-0.6,1.4,1.5,2.7,2.1,1.2c1.2-2.6,1.8-5.6,1.6-8.5
			C164.1,116.4,161.6,116.4,161.7,117.9L161.7,117.9z"/>
	</g>
</g>
<g>
	<g>
		<path class="st3" d="M153.4,108.4c0.4,2.4,0.2,5-0.5,7.3c-0.5,1.5,1.9,2.1,2.3,0.6c0.9-2.8,1.1-5.8,0.5-8.6
			C155.5,106.2,153.1,106.9,153.4,108.4L153.4,108.4z"/>
	</g>
</g>
<g>
	<g>
		<path class="st3" d="M162,86.4c0.4,2.4,0.2,5-0.5,7.3c-0.5,1.5,1.9,2.1,2.3,0.6c0.9-2.8,1.1-5.8,0.5-8.6
			C164,84.2,161.7,84.9,162,86.4L162,86.4z"/>
	</g>
</g>
<g>
	<g>
		<path class="st3" d="M149.3,74.2c0.4,2.4,0.2,5-0.5,7.3c-0.5,1.5,1.9,2.1,2.3,0.6c0.9-2.8,1.1-5.8,0.5-8.6
			C151.4,72,149,72.7,149.3,74.2L149.3,74.2z"/>
	</g>
</g>
<g>
	<path class="st4" d="M167.3,111.6c0,0-3.8-1.6-6.4-4.9"/>
	<g>
		<path class="st4" d="M167.9,110.6c-2.4-1-4.5-2.7-6.1-4.7c-1-1.2-2.7,0.5-1.7,1.7c1.7,2.1,4.1,4,6.6,5.1
			C168.1,113.3,169.4,111.2,167.9,110.6L167.9,110.6z"/>
	</g>
</g>
<g>
	<path class="st4" d="M148.2,91c0,0-3.8-1.6-6.4-4.9"/>
	<g>
		<path class="st4" d="M148.8,89.9c-2.4-1-4.5-2.7-6.1-4.7c-1-1.2-2.7,0.5-1.7,1.7c1.7,2.1,4.1,4,6.6,5.1
			C149,92.6,150.2,90.5,148.8,89.9L148.8,89.9z"/>
	</g>
</g>
<g>
	<g>
		<path class="st5" d="M141.4,102.9c2.3,0.8,4.5,2.4,6.1,4.2c1.1,1.2,2.8-0.6,1.7-1.7c-1.9-2.1-4.5-3.8-7.2-4.8
			C140.5,100,139.9,102.3,141.4,102.9L141.4,102.9z"/>
	</g>
</g>
<g>
	<g>
		<path class="st5" d="M154.3,128.6c1.7,1.8,2.8,4.2,3.4,6.6c0.4,1.5,2.7,0.9,2.3-0.6c-0.7-2.8-2.1-5.5-4-7.6
			C154.9,125.7,153.2,127.5,154.3,128.6L154.3,128.6z"/>
	</g>
</g>
<g>
	<g>
		<path class="st5" d="M178.7,96.2c1.7,1.8,2.8,4.2,3.4,6.6c0.4,1.5,2.7,0.9,2.3-0.6c-0.7-2.8-2.1-5.5-4-7.6
			C179.4,93.3,177.7,95.1,178.7,96.2L178.7,96.2z"/>
	</g>
</g>
<g>
	<g>
		<path class="st5" d="M74.2,137.7c1.7,1.8,2.8,4.2,3.4,6.6c0.4,1.5,2.7,0.9,2.3-0.6c-0.7-2.8-2.1-5.5-4-7.6
			C74.9,134.8,73.1,136.5,74.2,137.7L74.2,137.7z"/>
	</g>
</g>
<g>
	<g>
		<path class="st2" d="M140.2,110.8c1.7,1.8,2.8,4.2,3.4,6.6c0.4,1.5,2.7,0.9,2.3-0.6c-0.7-2.8-2.1-5.5-4-7.6
			C140.9,107.9,139.2,109.7,140.2,110.8L140.2,110.8z"/>
	</g>
</g>
<g>
	<g>
		<path class="st2" d="M169.4,96.2c1.7,1.8,2.8,4.2,3.4,6.6c0.4,1.5,2.7,0.9,2.3-0.6c-0.7-2.8-2.1-5.5-4-7.6
			C170,93.3,168.3,95.1,169.4,96.2L169.4,96.2z"/>
	</g>
</g>
<g>
	<g>
		<path class="st6" d="M147.6,128.3c1.4-2,3.4-3.8,5.5-4.9c1.4-0.7,0.2-2.8-1.2-2.1c-2.5,1.3-4.8,3.4-6.4,5.8
			C144.7,128.4,146.8,129.6,147.6,128.3L147.6,128.3z"/>
	</g>
</g>
<g>
	<g>
		<path class="st6" d="M150.6,101.1c2.9,0,5.8-0.7,8.4-2c1.4-0.7,0.2-2.8-1.2-2.1c-2.2,1.1-4.7,1.7-7.2,1.7
			C149.1,98.6,149.1,101,150.6,101.1L150.6,101.1z"/>
	</g>
</g>
<g>
	<g>
		<path class="st6" d="M174.5,112.1c2.9,0,5.8-0.7,8.4-2c1.4-0.7,0.2-2.8-1.2-2.1c-2.2,1.1-4.7,1.7-7.2,1.7
			C172.9,109.7,172.9,112.1,174.5,112.1L174.5,112.1z"/>
	</g>
</g>
<g>
	<g>
		<path class="st2" d="M140.8,58.6c2.2,1,4.3,2.6,5.8,4.6c0.9,1.2,3.1,0,2.1-1.2c-1.7-2.3-4.1-4.3-6.7-5.5
			C140.7,55.9,139.4,58,140.8,58.6L140.8,58.6z"/>
	</g>
</g>
<g>
	<g>
		<path class="st2" d="M159.2,66.3c2.2,1,4.3,2.6,5.8,4.6c0.9,1.2,3.1,0,2.1-1.2c-1.7-2.3-4.1-4.3-6.7-5.5
			C159.1,63.5,157.8,65.6,159.2,66.3L159.2,66.3z"/>
	</g>
</g>
<g>
	<g>
		<path class="st3" d="M128.5,61.3c2.3,0.8,4.5,2.2,6.2,4c1.1,1.1,2.8-0.6,1.7-1.7c-2-2.1-4.6-3.7-7.3-4.6
			C127.6,58.5,127,60.8,128.5,61.3L128.5,61.3z"/>
	</g>
</g>
<g>
	<g>
		<path class="st3" d="M120.7,43.2c2.3,0.8,4.5,2.2,6.2,4c1.1,1.1,2.8-0.6,1.7-1.7c-2-2.1-4.6-3.7-7.3-4.6
			C119.9,40.4,119.2,42.7,120.7,43.2L120.7,43.2z"/>
	</g>
</g>
<g>
	<path class="st4" d="M138,50.7c0,0-3.2,2.6-7.3,3.2"/>
	<g>
		<path class="st4" d="M137.2,49.8c0.3-0.2-0.3,0.2-0.5,0.3c-0.5,0.3-0.9,0.6-1.4,0.9c-1.5,0.8-3.2,1.4-4.9,1.7
			c-1.5,0.3-0.9,2.6,0.6,2.3c2.8-0.5,5.6-1.8,7.9-3.6C140.1,50.6,138.4,48.9,137.2,49.8L137.2,49.8z"/>
	</g>
</g>
<g>
	<g>
		<path class="st5" d="M117.8,69.3c1.8-1.6,4.2-2.8,6.6-3.4c1.5-0.4,0.9-2.7-0.6-2.3c-2.8,0.7-5.5,2.1-7.7,4
			C114.9,68.6,116.7,70.3,117.8,69.3L117.8,69.3z"/>
	</g>
</g>
<g>
	<g>
		<path class="st5" d="M72.4,36.3c1.8-1.6,4.2-2.8,6.6-3.4c1.5-0.4,0.9-2.7-0.6-2.3c-2.8,0.7-5.5,2.1-7.7,4
			C69.5,35.6,71.2,37.3,72.4,36.3L72.4,36.3z"/>
	</g>
</g>
<g>
	<g>
		<path class="st5" d="M146.7,70.3c2.4-0.6,5-0.5,7.4,0.1c1.5,0.4,2.2-2,0.6-2.3c-2.8-0.7-5.8-0.8-8.7-0.1
			C144.5,68.3,145.1,70.7,146.7,70.3L146.7,70.3z"/>
	</g>
</g>
<g>
	<g>
		<path class="st2" d="M124.3,74c2.4-0.6,5-0.5,7.4,0.1c1.5,0.4,2.2-2,0.6-2.3c-2.8-0.7-5.8-0.8-8.7-0.1
			C122.1,72.1,122.8,74.4,124.3,74L124.3,74z"/>
	</g>
</g>
<g>
	<g>
		<path class="st2" d="M96.6,38c2.4-0.6,5-0.5,7.4,0.1c1.5,0.4,2.2-2,0.6-2.3c-2.8-0.7-5.8-0.8-8.7-0.1C94.5,36,95.1,38.4,96.6,38
			L96.6,38z"/>
	</g>
</g>
<g>
	<g>
		<path class="st5" d="M108.3,44.2c1.8-1.6,4.2-2.8,6.6-3.4c1.5-0.4,0.9-2.7-0.6-2.3c-2.8,0.7-5.5,2.1-7.7,4
			C105.4,43.5,107.2,45.3,108.3,44.2L108.3,44.2z"/>
	</g>
</g>
<g>
	<g>
		<path class="st2" d="M114.8,49c2.4-0.6,5-0.5,7.4,0.1c1.5,0.4,2.2-2,0.6-2.3c-2.8-0.7-5.8-0.8-8.7-0.1
			C112.6,47,113.3,49.4,114.8,49L114.8,49z"/>
	</g>
</g>
<g>
	<g>
		<path class="st5" d="M167.3,119.5c1.8-1.6,4.2-2.8,6.6-3.4c1.5-0.4,0.9-2.7-0.6-2.3c-2.8,0.7-5.5,2.1-7.7,4
			C164.4,118.8,166.2,120.6,167.3,119.5L167.3,119.5z"/>
	</g>
</g>
<g>
	<g>
		<path class="st2" d="M173.8,124.3c2.4-0.6,5-0.5,7.4,0.1c1.5,0.4,2.2-2,0.6-2.3c-2.8-0.7-5.8-0.8-8.7-0.1
			C171.6,122.3,172.3,124.7,173.8,124.3L173.8,124.3z"/>
	</g>
</g>
<g>
	<g>
		<path class="st6" d="M143.2,76c-1.1-2.2-1.7-4.7-1.7-7.2c0-1.6-2.4-1.6-2.4,0c0,2.9,0.7,5.9,2,8.4C141.8,78.6,143.9,77.4,143.2,76
			L143.2,76z"/>
	</g>
</g>
<g>
	<g>
		<path class="st6" d="M120.7,60.3c1.4-2.5,2.2-5.5,2.3-8.3c0-1.6-2.4-1.6-2.4,0c-0.1,2.4-0.7,5-1.9,7.1
			C117.8,60.4,119.9,61.6,120.7,60.3L120.7,60.3z"/>
	</g>
</g>
<g>
	<g>
		<path class="st6" d="M79.7,44.3c1.4-2.5,2.2-5.5,2.3-8.3c0-1.6-2.4-1.6-2.4,0c-0.1,2.4-0.7,5-1.9,7.1
			C76.8,44.4,78.9,45.7,79.7,44.3L79.7,44.3z"/>
	</g>
</g>
<g>
	<g>
		<path class="st6" d="M173.5,91.4c1.4-2.5,2.2-5.5,2.3-8.3c0-1.6-2.4-1.6-2.4,0c-0.1,2.4-0.7,5-1.9,7.1
			C170.6,91.6,172.7,92.8,173.5,91.4L173.5,91.4z"/>
	</g>
</g>
<g>
	<g>
		<path class="st2" d="M59.2,98.9c2.2,1,4.3,2.6,5.8,4.6c0.9,1.2,3.1,0,2.1-1.2c-1.7-2.3-4.1-4.3-6.7-5.5
			C59,96.1,57.8,98.2,59.2,98.9L59.2,98.9z"/>
	</g>
</g>
<g>
	<g>
		<path class="st2" d="M41.3,75.1c2.2,1,4.3,2.6,5.8,4.6c0.9,1.2,3.1,0,2.1-1.2c-1.7-2.3-4.1-4.3-6.7-5.5
			C41.2,72.4,39.9,74.5,41.3,75.1L41.3,75.1z"/>
	</g>
</g>
<g>
	<g>
		<path class="st3" d="M46.8,101.6c2.3,0.8,4.5,2.2,6.2,4c1.1,1.1,2.8-0.6,1.7-1.7c-2-2.1-4.6-3.7-7.3-4.6
			C46,98.8,45.4,101.1,46.8,101.6L46.8,101.6z"/>
	</g>
</g>
<g>
	<g>
		<path class="st3" d="M46.8,122.9c2.3,0.8,4.5,2.2,6.2,4c1.1,1.1,2.8-0.6,1.7-1.7c-2-2.1-4.6-3.7-7.3-4.6
			C46,120,45.4,122.4,46.8,122.9L46.8,122.9z"/>
	</g>
</g>
<g>
	<path class="st4" d="M56.4,91c0,0-3.2,2.6-7.3,3.2"/>
	<g>
		<path class="st4" d="M55.6,90.1c0.3-0.2-0.3,0.2-0.5,0.3c-0.5,0.3-0.9,0.6-1.4,0.9c-1.5,0.8-3.2,1.4-4.9,1.7
			c-1.5,0.3-0.9,2.6,0.6,2.3c2.8-0.5,5.6-1.8,7.9-3.6C58.5,90.9,56.8,89.1,55.6,90.1L55.6,90.1z"/>
	</g>
</g>
<g>
	<path class="st4" d="M45,84.9c0,0-4.1-0.9-7.2-3.6"/>
	<g>
		<path class="st4" d="M45.3,83.7c-2.4-0.5-4.8-1.7-6.6-3.3c-1.2-1-2.9,0.7-1.7,1.7c2.2,1.9,4.9,3.3,7.7,3.9
			C46.2,86.4,46.8,84.1,45.3,83.7L45.3,83.7z"/>
	</g>
</g>
<g>
	<path class="st4" d="M70.2,69.2c0,0-3.2,2.6-7.3,3.2"/>
	<g>
		<path class="st4" d="M69.3,68.4c0.3-0.2-0.3,0.2-0.5,0.3c-0.5,0.3-0.9,0.6-1.4,0.9c-1.5,0.8-3.2,1.4-4.9,1.7
			c-1.5,0.3-0.9,2.6,0.6,2.3c2.8-0.5,5.6-1.8,7.9-3.6C72.3,69.1,70.6,67.4,69.3,68.4L69.3,68.4z"/>
	</g>
</g>
<g>
	<path class="st4" d="M101.2,42.6c0,0-3.2,2.6-7.3,3.2"/>
	<g>
		<path class="st4" d="M100.4,41.7c0.3-0.2-0.3,0.2-0.5,0.3c-0.5,0.3-0.9,0.6-1.4,0.9c-1.5,0.8-3.2,1.4-4.9,1.7
			c-1.5,0.3-0.9,2.6,0.6,2.3c2.8-0.5,5.6-1.8,7.9-3.6C103.3,42.5,101.6,40.8,100.4,41.7L100.4,41.7z"/>
	</g>
</g>
<g>
	<path class="st4" d="M28.8,66.8c0,0-3.2,2.6-7.3,3.2"/>
	<g>
		<path class="st4" d="M28,65.9c0.3-0.2-0.3,0.2-0.5,0.3c-0.5,0.3-0.9,0.6-1.4,0.9c-1.5,0.8-3.2,1.4-4.9,1.7
			c-1.5,0.3-0.9,2.6,0.6,2.3c2.8-0.5,5.6-1.8,7.9-3.6C30.9,66.7,29.2,65,28,65.9L28,65.9z"/>
	</g>
</g>
<g>
	<g>
		<path class="st5" d="M36.2,109.5c1.8-1.6,4.2-2.8,6.6-3.4c1.5-0.4,0.9-2.7-0.6-2.3c-2.8,0.7-5.5,2.1-7.7,4
			C33.3,108.9,35.1,110.6,36.2,109.5L36.2,109.5z"/>
	</g>
</g>
<g>
	<g>
		<path class="st5" d="M65,110.6c2.4-0.6,5-0.5,7.4,0.1c1.5,0.4,2.2-2,0.6-2.3c-2.8-0.7-5.8-0.8-8.7-0.1
			C62.9,108.6,63.5,111,65,110.6L65,110.6z"/>
	</g>
</g>
<g>
	<g>
		<path class="st5" d="M159.3,82.9c2.4-0.6,5-0.5,7.4,0.1c1.5,0.4,2.2-2,0.6-2.3c-2.8-0.7-5.8-0.8-8.7-0.1
			C157.1,80.9,157.8,83.3,159.3,82.9L159.3,82.9z"/>
	</g>
</g>
<g>
	<g>
		<path class="st2" d="M42.7,114.3c2.4-0.6,5-0.5,7.4,0.1c1.5,0.4,2.2-2,0.6-2.3c-2.8-0.7-5.8-0.8-8.7-0.1
			C40.5,112.3,41.1,114.7,42.7,114.3L42.7,114.3z"/>
	</g>
</g>
<g>
	<g>
		<path class="st6" d="M61.6,116.3c-1.1-2.2-1.7-4.7-1.7-7.2c0-1.6-2.4-1.6-2.4,0c0,2.9,0.7,5.9,2,8.4
			C60.2,118.9,62.3,117.7,61.6,116.3L61.6,116.3z"/>
	</g>
</g>
<g>
	<g>
		<path class="st6" d="M82.5,134.1c-1.1-2.2-1.7-4.7-1.7-7.2c0-1.6-2.4-1.6-2.4,0c0,2.9,0.7,5.9,2,8.4
			C81.2,136.7,83.3,135.5,82.5,134.1L82.5,134.1z"/>
	</g>
</g>
<g>
	<g>
		<path class="st6" d="M39.1,100.5c1.4-2.5,2.2-5.5,2.3-8.3c0-1.6-2.4-1.6-2.4,0c-0.1,2.4-0.7,5-1.9,7.1
			C36.2,100.7,38.3,101.9,39.1,100.5L39.1,100.5z"/>
	</g>
</g>
<g>
	<g>
		<path class="st2" d="M122.7,140.7c-2.4,0.5-5,0.4-7.4-0.2c-1.5-0.4-2.2,1.9-0.6,2.3c2.8,0.7,5.8,0.9,8.7,0.2
			C124.8,142.7,124.2,140.4,122.7,140.7L122.7,140.7z"/>
	</g>
</g>
<g>
	<g>
		<path class="st3" d="M131.2,131c-2.3,0.8-4.9,1-7.3,0.6c-1.5-0.2-2.2,2.1-0.6,2.3c2.8,0.4,5.9,0.3,8.6-0.6
			C133.3,132.8,132.7,130.5,131.2,131L131.2,131z"/>
	</g>
</g>
<g>
	<g>
		<path class="st3" d="M111.1,146.7c-2.3,0.8-4.9,1-7.3,0.6c-1.5-0.2-2.2,2.1-0.6,2.3c2.8,0.4,5.9,0.3,8.6-0.6
			C113.3,148.6,112.6,146.2,111.1,146.7L111.1,146.7z"/>
	</g>
</g>
<g>
	<path class="st4" d="M129.9,145.3c0,0,1-4,3.9-7"/>
	<g>
		<path class="st4" d="M131.1,145.6c0.6-2.4,1.9-4.7,3.6-6.5c1.1-1.1-0.7-2.9-1.7-1.7c-1.9,2.1-3.5,4.8-4.2,7.6
			C128.3,146.5,130.7,147.2,131.1,145.6L131.1,145.6z"/>
	</g>
</g>
<g>
	<path class="st4" d="M98.4,139.1c0,0,1-4,3.9-7"/>
	<g>
		<path class="st4" d="M99.6,139.5c0.6-2.4,1.9-4.7,3.6-6.5c1.1-1.1-0.7-2.9-1.7-1.7c-1.9,2.1-3.5,4.8-4.2,7.6
			C96.8,140.3,99.2,141,99.6,139.5L99.6,139.5z"/>
	</g>
</g>
<g>
	<path class="st4" d="M35.9,50.5c0,0,1-4,3.9-7"/>
	<g>
		<path class="st4" d="M37,50.8c0.6-2.4,1.9-4.7,3.6-6.5c1.1-1.1-0.7-2.9-1.7-1.7c-1.9,2.1-3.5,4.8-4.2,7.6
			C34.3,51.7,36.7,52.4,37,50.8L37,50.8z"/>
	</g>
</g>
<g>
	<g>
		<path class="st5" d="M134.7,118.1c-0.5,2.4-1.6,4.8-3.1,6.7c-1,1.2,0.7,2.9,1.7,1.7c1.8-2.2,3.2-4.9,3.8-7.8
			C137.4,117.3,135.1,116.6,134.7,118.1L134.7,118.1z"/>
	</g>
</g>
<g>
	<g>
		<path class="st5" d="M111.2,134.8c-1.5,1.9-3.7,3.5-5.9,4.4c-1.4,0.6-0.8,2.9,0.6,2.3c2.6-1.1,5.2-2.8,7-5.1
			C114,135.3,112.2,133.6,111.2,134.8L111.2,134.8z"/>
	</g>
</g>
<g>
	<g>
		<path class="st5" d="M96.3,124.5c-1.5,1.9-3.7,3.5-5.9,4.4c-1.4,0.6-0.8,2.9,0.6,2.3c2.6-1.1,5.2-2.8,7-5.1
			C99,125.1,97.3,123.3,96.3,124.5L96.3,124.5z"/>
	</g>
</g>
<g>
	<g>
		<path class="st2" d="M126.8,118.3c-1.5,1.9-3.7,3.5-5.9,4.4c-1.4,0.6-0.8,2.9,0.6,2.3c2.6-1.1,5.2-2.8,7-5.1
			C129.5,118.8,127.8,117.1,126.8,118.3L126.8,118.3z"/>
	</g>
</g>
<g>
	<g>
		<path class="st6" d="M110.3,128.2c2.2,1,4.3,2.7,5.7,4.7c0.9,1.2,3,0,2.1-1.2c-1.7-2.3-4-4.3-6.6-5.5
			C110.1,125.4,108.9,127.5,110.3,128.2L110.3,128.2z"/>
	</g>
</g>
<g>
	<g>
		<path class="st2" d="M34.5,56.8c-2.4,0.5-5,0.4-7.4-0.2c-1.5-0.4-2.2,1.9-0.6,2.3c2.8,0.7,5.8,0.9,8.7,0.2
			C36.7,58.8,36,56.5,34.5,56.8L34.5,56.8z"/>
	</g>
</g>
<g>
	<g>
		<path class="st5" d="M30,76.5C28.4,78.4,26.3,80,24,81c-1.4,0.6-0.8,2.9,0.6,2.3c2.6-1.1,5.2-2.8,7-5.1C32.7,77.1,31,75.3,30,76.5
			L30,76.5z"/>
	</g>
</g>
<g>
	<g>
		<path class="st2" d="M45.5,60c-1.5,1.9-3.7,3.5-5.9,4.4c-1.4,0.6-0.8,2.9,0.6,2.3c2.6-1.1,5.2-2.8,7-5.1
			C48.2,60.6,46.5,58.8,45.5,60L45.5,60z"/>
	</g>
</g>
<g>
	<g>
		<path class="st6" d="M49.1,71c2.2,1,4.3,2.7,5.7,4.7c0.9,1.2,3,0,2.1-1.2c-1.7-2.3-4-4.3-6.6-5.5C48.9,68.2,47.6,70.3,49.1,71
			L49.1,71z"/>
	</g>
</g>
<g>
	<g>
		<path class="st6" d="M137.9,127.1c0.4,2.9,1.5,5.7,3.2,8c0.9,1.3,3,0,2.1-1.2c-1-1.4-1.8-3-2.3-4.7c-0.2-0.5-0.3-1.1-0.4-1.6
			c0-0.2-0.2-1.1-0.1-0.5C140.1,125.5,137.7,125.5,137.9,127.1L137.9,127.1z"/>
	</g>
</g>
</svg>
