<?xml version="1.0" encoding="utf-8"?>
<!-- Generator: Adobe Illustrator 18.1.1, SVG Export Plug-In . SVG Version: 6.00 Build 0)  -->
<!DOCTYPE svg PUBLIC "-//W3C//DTD SVG 1.1//EN" "http://www.w3.org/Graphics/SVG/1.1/DTD/svg11.dtd">
<svg version="1.1" id="Layer_1" xmlns="http://www.w3.org/2000/svg" xmlns:xlink="http://www.w3.org/1999/xlink" x="0px" y="0px"
	 viewBox="0 0 135.8 154.1" style="enable-background:new 0 0 135.8 154.1;" xml:space="preserve">
<style type="text/css">
	.st0{fill:#A47AB5;}
</style>
<path class="st0" d="M103.2,15.3l-73,13.5c-1.4,0.3-2.3,1.6-2.1,3L41,101.3c0.2,1.2-0.8,2.3-2,2.2c-2.4-0.3-5-0.2-7.6,0.2
	c-11.5,2.1-19.5,11.7-17.7,21.3s12.6,15.7,24.1,13.6c19.6-3.6,17.5-22.7,17.1-23.3L42.6,49.1c-0.4-2,0.9-3.9,2.9-4.2l50.4-9.3
	c1.3-0.2,2.5,0.6,2.7,1.9l9.4,50.9c0.3,1.4-0.9,2.7-2.4,2.6c-2.3-0.2-4.7-0.1-7.1,0.3C87,93.4,79,102.9,80.8,112.5
	c1.8,9.6,12.6,15.7,24.1,13.6c21.2-3.8,17.4-23.1,16.9-24l-15.7-84.8C105.9,15.9,104.6,15,103.2,15.3z"/>
</svg>
