<?xml version="1.0" encoding="utf-8"?>
<!-- Generator: Adobe Illustrator 18.1.1, SVG Export Plug-In . SVG Version: 6.00 Build 0)  -->
<!DOCTYPE svg PUBLIC "-//W3C//DTD SVG 1.1//EN" "http://www.w3.org/Graphics/SVG/1.1/DTD/svg11.dtd">
<svg version="1.1" id="Layer_1" xmlns="http://www.w3.org/2000/svg" xmlns:xlink="http://www.w3.org/1999/xlink" x="0px" y="0px"
	 viewBox="0 0 377.4 374.3" style="enable-background:new 0 0 377.4 374.3;" xml:space="preserve">
<style type="text/css">
	.st0{fill:#D28E58;}
	.st1{fill:#FCCEBD;}
	.st2{opacity:0.24;fill:#EFEEEE;}
	.st3{fill:#F594A0;}
</style>
<circle class="st0" cx="190.2" cy="188.1" r="174.2"/>
<circle class="st1" cx="190.2" cy="186.3" r="155.3"/>
<path class="st0" d="M27.7,186.3c0,0,143.3-4.6,211.2-101.3c0,0,29.5,87.5,110.8,101.3c0,0-8.1-163.2-159.4-159.7
	C190.2,26.6,38.8,31,27.7,186.3z"/>
<g>
	<g>
		<g>
			<path d="M111.6,204.1c0.2-0.6,0.5-1.3,0-0.2c0.5-1.1,1-2.3,1.7-3.3c1.5-2.7,3.1-5,5.6-6.9c10.2-7.6,22.1,5.9,28.1,12.8
				c4.6,5.3,12.3-2.4,7.7-7.7c-9.5-11-25-24.3-40.2-15.3c-6.4,3.8-11.1,10.7-13.5,17.7C98.8,207.8,109.3,210.6,111.6,204.1
				L111.6,204.1z"/>
		</g>
	</g>
	<g>
		<g>
			<path d="M93.8,190c1,6.8,8.9,10.6,14.8,11.8c3.4,0.7,4.9-4.5,1.4-5.3c-3.5-0.7-7.2-2-9.5-4.9c-0.9-1.2-1.3-1.8-1.5-3.1
				C98.6,185.1,93.3,186.6,93.8,190L93.8,190z"/>
		</g>
	</g>
	<g>
		<g>
			<path d="M88.3,198.2c2.3,6.9,10.5,9.4,17,9.6c3.5,0.1,3.5-5.3,0-5.4c-3.5-0.1-7.3-0.8-9.9-3.2c-0.7-0.6-1.1-1.2-1.6-1.9
				c-0.2-0.2-0.2-0.5-0.4-0.7c0.4,0.7,0.2,0.5,0.1,0.3C92.4,193.4,87.2,194.8,88.3,198.2L88.3,198.2z"/>
		</g>
	</g>
</g>
<g>
	<g>
		<g>
			<path d="M273.6,204.5c-2.4-7-7.1-13.9-13.5-17.7c-15.1-9-30.7,4.3-40.2,15.3c-4.5,5.3,3.1,13,7.7,7.7c6-7,18-20.5,28.1-12.8
				c2.4,1.8,4,4.1,5.5,6.7c0.6,1.1,1.2,2.3,1.7,3.4c-0.2-0.5-0.2-0.6,0.1,0.3C265.4,214,275.9,211.2,273.6,204.5L273.6,204.5z"/>
		</g>
	</g>
	<g>
		<g>
			<path d="M275.6,192c-0.2,1.3-0.5,2-1.5,3.1c-2.3,2.9-6,4.2-9.5,4.9c-3.4,0.7-2,6,1.4,5.3c5.9-1.2,13.8-5,14.8-11.8
				C281.4,190,276.1,188.5,275.6,192L275.6,192z"/>
		</g>
	</g>
	<g>
		<g>
			<path d="M281.2,200.1c-0.1,0.2-0.2,0.3,0.1-0.3c-0.1,0.2-0.2,0.5-0.4,0.7c-0.5,0.7-0.9,1.3-1.6,1.9c-2.7,2.5-6.4,3.1-9.9,3.2
				c-3.5,0.1-3.5,5.6,0,5.4c6.5-0.2,14.7-2.7,17-9.6C287.5,198.2,282.3,196.8,281.2,200.1L281.2,200.1z"/>
		</g>
	</g>
</g>
<g>
	<path d="M159.3,270.3c0,0,28.1,60.4,58.7,0H159.3z"/>
	<g>
		<path d="M157,271.6c4.4,9.4,11.3,19,20.1,24.5c19.6,12.1,35.2-8.9,43.2-24.5c0.9-1.8-0.2-4.1-2.4-4.1c-19.6,0-39.1,0-58.7,0
			c-3.5,0-3.5,5.4,0,5.4c19.6,0,39.1,0,58.7,0c-0.8-1.4-1.6-2.7-2.4-4.1c-7.3,14.2-21.2,34.3-38.4,20.7c-6.7-5.3-12-13-15.6-20.7
			C160.2,265.7,155.5,268.5,157,271.6z"/>
	</g>
</g>
<line class="st2" x1="110.3" y1="253.7" x2="119.1" y2="238.9"/>
<g>
	<g>
		<path class="st3" d="M105.7,246.5c2.8-4.8,5.6-9.7,8.4-14.5c3.5-6.1-5.9-11.6-9.4-5.5c-2.8,4.8-5.6,9.7-8.4,14.5
			C92.7,247,102.1,252.5,105.7,246.5L105.7,246.5z"/>
	</g>
</g>
<g>
	<g>
		<path class="st3" d="M123.3,246.5c2.8-4.8,5.6-9.7,8.4-14.5c3.5-6.1-5.9-11.6-9.4-5.5c-2.8,4.8-5.6,9.7-8.4,14.5
			C110.4,247,119.8,252.5,123.3,246.5L123.3,246.5z"/>
	</g>
</g>
<g>
	<g>
		<path class="st3" d="M141,246.5c2.8-4.8,5.6-9.7,8.4-14.5c3.5-6.1-5.9-11.6-9.4-5.5c-2.8,4.8-5.6,9.7-8.4,14.5
			C128.1,247,137.5,252.5,141,246.5L141,246.5z"/>
	</g>
</g>
<g>
	<g>
		<path class="st3" d="M230.2,246.5c2.8-4.8,5.6-9.7,8.4-14.5c3.5-6.1-5.9-11.6-9.4-5.5c-2.8,4.8-5.6,9.7-8.4,14.5
			C217.3,247,226.7,252.5,230.2,246.5L230.2,246.5z"/>
	</g>
</g>
<g>
	<g>
		<path class="st3" d="M247.9,246.5c2.8-4.8,5.6-9.7,8.4-14.5c3.5-6.1-5.9-11.6-9.4-5.5c-2.8,4.8-5.6,9.7-8.4,14.5
			C235,247,244.4,252.5,247.9,246.5L247.9,246.5z"/>
	</g>
</g>
<g>
	<g>
		<path class="st3" d="M265.6,246.5c2.8-4.8,5.6-9.7,8.4-14.5c3.5-6.1-5.9-11.6-9.4-5.5c-2.8,4.8-5.6,9.7-8.4,14.5
			C252.6,247,262.1,252.5,265.6,246.5L265.6,246.5z"/>
	</g>
</g>
<g>
</g>
<g>
</g>
<g>
</g>
<g>
</g>
<g>
</g>
<g>
</g>
</svg>
