<?xml version="1.0" encoding="utf-8"?>
<!-- Generator: Adobe Illustrator 18.1.1, SVG Export Plug-In . SVG Version: 6.00 Build 0)  -->
<!DOCTYPE svg PUBLIC "-//W3C//DTD SVG 1.1//EN" "http://www.w3.org/Graphics/SVG/1.1/DTD/svg11.dtd">
<svg version="1.1" id="Layer_1" xmlns="http://www.w3.org/2000/svg" xmlns:xlink="http://www.w3.org/1999/xlink" x="0px" y="0px"
	 viewBox="417.2 0 888.9 864" style="enable-background:new 417.2 0 888.9 864;" xml:space="preserve">
<style type="text/css">
	.st0{fill:#D28E58;}
	.st1{fill:#FCCEBD;}
	.st2{fill:#7BD3F7;}
	.st3{fill:none;}
	.st4{fill:#F594A0;}
</style>
<circle class="st0" cx="867.5" cy="434.2" r="402.1"/>
<circle class="st1" cx="867.5" cy="430" r="358.5"/>
<path class="st0" d="M492.4,430c0,0,330.8-10.6,487.5-233.8c0,0,68.1,202,255.8,233.8c0,0-18.7-376.7-367.9-368.6
	C867.5,61.4,518,71.6,492.4,430z"/>
<g>
	<g>
		<g>
			<path d="M686,471.1c0.5-1.4,1.2-3,0-0.5c1.2-2.5,2.3-5.3,3.9-7.6c3.5-6.2,7.2-11.5,12.9-15.9c23.5-17.5,51,13.6,64.9,29.5
				c10.6,12.2,28.4-5.5,17.8-17.8c-21.9-25.4-57.7-56.1-92.8-35.3c-14.8,8.8-25.6,24.7-31.2,40.9C656.5,479.7,680.7,486.1,686,471.1
				L686,471.1z"/>
		</g>
	</g>
	<g>
		<g>
			<path d="M644.9,438.6c2.3,15.7,20.5,24.5,34.2,27.2c7.8,1.6,11.3-10.4,3.2-12.2c-8.1-1.6-16.6-4.6-21.9-11.3
				c-2.1-2.8-3-4.2-3.5-7.2C656,427.3,643.8,430.7,644.9,438.6L644.9,438.6z"/>
		</g>
	</g>
	<g>
		<g>
			<path d="M632.2,457.5c5.3,15.9,24.2,21.7,39.2,22.2c8.1,0.2,8.1-12.2,0-12.5c-8.1-0.2-16.9-1.8-22.9-7.4
				c-1.6-1.4-2.5-2.8-3.7-4.4c-0.5-0.5-0.5-1.2-0.9-1.6c0.9,1.6,0.5,1.2,0.2,0.7C641.7,446.4,629.7,449.7,632.2,457.5L632.2,457.5z"
				/>
		</g>
	</g>
</g>
<g>
	<g>
		<g>
			<path d="M1060,472c-5.5-16.2-16.4-32.1-31.2-40.9c-34.9-20.8-70.9,9.9-92.8,35.3c-10.4,12.2,7.2,30,17.8,17.8
				c13.8-16.2,41.5-47.3,64.9-29.5c5.5,4.2,9.2,9.5,12.7,15.5c1.4,2.5,2.8,5.3,3.9,7.8c-0.5-1.2-0.5-1.4,0.2,0.7
				C1041,494,1065.3,487.5,1060,472L1060,472z"/>
		</g>
	</g>
	<g>
		<g>
			<path d="M1064.6,443.2c-0.5,3-1.2,4.6-3.5,7.2c-5.3,6.7-13.8,9.7-21.9,11.3c-7.8,1.6-4.6,13.8,3.2,12.2
				c13.6-2.8,31.9-11.5,34.2-27.2C1078,438.6,1065.7,435.1,1064.6,443.2L1064.6,443.2z"/>
		</g>
	</g>
	<g>
		<g>
			<path d="M1077.5,461.9c-0.2,0.5-0.5,0.7,0.2-0.7c-0.2,0.5-0.5,1.2-0.9,1.6c-1.2,1.6-2.1,3-3.7,4.4c-6.2,5.8-14.8,7.2-22.9,7.4
				c-8.1,0.2-8.1,12.9,0,12.5c15-0.5,33.9-6.2,39.2-22.2C1092.1,457.5,1080.1,454.3,1077.5,461.9L1077.5,461.9z"/>
		</g>
	</g>
</g>
<g>
	<path class="st2" d="M1113.3,311.2c0,0,72.9,75.3,24.5,106c0,0-23.5,12.2-40.6-12.9c0,0-12.5-23.5,13.2-51.2
		C1110.1,352.9,1123.9,333.6,1113.3,311.2z"/>
	<g>
		<path class="st2" d="M1108.7,315.8c18,18.7,60.9,72.5,27.7,94.6c-7.2,4.8-17.1,4.6-24.5,0c-9.7-5.8-12.7-14.1-11.5-24.9
			c1.6-14.5,12.5-22.9,18.2-35.3c6.5-13.8,5.8-28.4,0-42.2c-3.2-7.4-14.1-0.9-10.8,6.2c6,14.1,2.8,27.7-6.2,39
			c-8.3,10.4-14.1,23.3-13.8,36.7c0.2,18.9,14.5,34.9,33.9,36.2c17.1,1.2,32.1-9.7,37.2-26.1c6-18.9-3-39.5-12.5-55.6
			c-7.8-13.6-17.8-26.5-28.6-37.9C1111.9,301,1103.1,309.8,1108.7,315.8z"/>
	</g>
</g>
<g>
	<path d="M796.1,623.9c0,0,64.9,139.4,135.5,0H796.1z"/>
	<g>
		<path d="M790.8,626.9c10.2,21.7,26.1,43.9,46.4,56.6c45.2,27.9,81.3-20.5,99.7-56.6c2.1-4.2-0.5-9.5-5.5-9.5
			c-45.2,0-90.3,0-135.5,0c-8.1,0-8.1,12.5,0,12.5c45.2,0,90.3,0,135.5,0c-1.8-3.2-3.7-6.2-5.5-9.5c-16.9,32.8-48.9,79.2-88.6,47.8
			c-15.5-12.2-27.7-30-36-47.8C798.2,613.3,787.4,619.8,790.8,626.9z"/>
	</g>
</g>
<line class="st3" x1="683" y1="585.6" x2="703.3" y2="551.5"/>
<g>
	<g>
		<path class="st4" d="M672.4,569c6.5-11.1,12.9-22.4,19.4-33.5c8.1-14.1-13.6-26.8-21.7-12.7c-6.5,11.1-12.9,22.4-19.4,33.5
			C642.4,570.2,664.1,582.8,672.4,569L672.4,569z"/>
	</g>
</g>
<g>
	<g>
		<path class="st4" d="M713,569c6.5-11.1,12.9-22.4,19.4-33.5c8.1-14.1-13.6-26.8-21.7-12.7c-6.5,11.1-12.9,22.4-19.4,33.5
			C683.3,570.2,705,582.8,713,569L713,569z"/>
	</g>
</g>
<g>
	<g>
		<path class="st4" d="M753.9,569c6.5-11.1,12.9-22.4,19.4-33.5c8.1-14.1-13.6-26.8-21.7-12.7c-6.5,11.1-12.9,22.4-19.4,33.5
			C724.1,570.2,745.8,582.8,753.9,569L753.9,569z"/>
	</g>
</g>
<g>
	<g>
		<path class="st4" d="M959.8,569c6.5-11.1,12.9-22.4,19.4-33.5c8.1-14.1-13.6-26.8-21.7-12.7c-6.5,11.1-12.9,22.4-19.4,33.5
			C930,570.2,951.7,582.8,959.8,569L959.8,569z"/>
	</g>
</g>
<g>
	<g>
		<path class="st4" d="M1000.7,569c6.5-11.1,12.9-22.4,19.4-33.5c8.1-14.1-13.6-26.8-21.7-12.7c-6.5,11.1-12.9,22.4-19.4,33.5
			C970.9,570.2,992.6,582.8,1000.7,569L1000.7,569z"/>
	</g>
</g>
<g>
	<g>
		<path class="st4" d="M1041.5,569c6.5-11.1,12.9-22.4,19.4-33.5c8.1-14.1-13.6-26.8-21.7-12.7c-6.5,11.1-12.9,22.4-19.4,33.5
			C1011.5,570.2,1033.4,582.8,1041.5,569L1041.5,569z"/>
	</g>
</g>
</svg>
