<?xml version="1.0" encoding="utf-8"?>
<!-- Generator: Adobe Illustrator 18.1.1, SVG Export Plug-In . SVG Version: 6.00 Build 0)  -->
<!DOCTYPE svg PUBLIC "-//W3C//DTD SVG 1.1//EN" "http://www.w3.org/Graphics/SVG/1.1/DTD/svg11.dtd">
<svg version="1.1" id="Layer_1" xmlns="http://www.w3.org/2000/svg" xmlns:xlink="http://www.w3.org/1999/xlink" x="0px" y="0px"
	 viewBox="0 0 200 200" style="enable-background:new 0 0 200 200;" xml:space="preserve">
<style type="text/css">
	.st0{fill:none;}
	.st1{fill:none;stroke:#F6B884;stroke-width:2.0256;stroke-miterlimit:10;}
	.st2{fill:none;stroke:#F6B884;stroke-width:2.2684;stroke-miterlimit:10;}
	.st3{fill:#EEA564;}
	.st4{fill:url(#New_Pattern_2);}
	.st5{fill:#F4EFD9;}
	.st6{fill:#A47AB6;}
	.st7{fill:#2BB673;}
	.st8{fill:#7BD3F7;}
	.st9{fill:#F594A0;}
	.st10{fill:#FFE584;}
</style>
<pattern  x="-42.3" y="-77.2" width="71.7" height="87.7" patternUnits="userSpaceOnUse" id="New_Pattern_2" viewBox="71.3 -87.7 71.7 87.7" style="overflow:visible;">
	<g>
		<polygon class="st0" points="71.3,-87.7 143.1,-87.7 143.1,0 71.3,0 		"/>
		<g>
			<line class="st1" x1="71.7" y1="-82.3" x2="143.4" y2="-82.3"/>
			<line class="st1" x1="71.7" y1="-73.6" x2="143.4" y2="-73.6"/>
			<line class="st1" x1="71.7" y1="-64.9" x2="143.4" y2="-64.9"/>
			<line class="st1" x1="71.7" y1="-56.2" x2="143.4" y2="-56.2"/>
			<line class="st1" x1="71.7" y1="-47.5" x2="143.4" y2="-47.5"/>
			<line class="st1" x1="71.7" y1="-38.9" x2="143.4" y2="-38.9"/>
			<line class="st1" x1="71.7" y1="-30.2" x2="143.4" y2="-30.2"/>
			<line class="st1" x1="71.7" y1="-21.5" x2="143.4" y2="-21.5"/>
			<line class="st1" x1="71.7" y1="-12.8" x2="143.4" y2="-12.8"/>
			<line class="st1" x1="71.7" y1="-4.1" x2="143.4" y2="-4.1"/>
			<line class="st2" x1="80.4" y1="0" x2="80.4" y2="-87.7"/>
			<line class="st2" x1="89.3" y1="0" x2="89.3" y2="-87.7"/>
			<line class="st2" x1="98.2" y1="0" x2="98.2" y2="-87.7"/>
			<line class="st2" x1="107.1" y1="0" x2="107.1" y2="-87.7"/>
			<line class="st2" x1="116" y1="0" x2="116" y2="-87.7"/>
			<line class="st2" x1="124.9" y1="0" x2="124.9" y2="-87.7"/>
			<line class="st2" x1="133.8" y1="0" x2="133.8" y2="-87.7"/>
			<line class="st2" x1="142.7" y1="0" x2="142.7" y2="-87.7"/>
		</g>
		<g>
			<line class="st1" x1="0" y1="-82.3" x2="71.7" y2="-82.3"/>
			<line class="st1" x1="0" y1="-73.6" x2="71.7" y2="-73.6"/>
			<line class="st1" x1="0" y1="-64.9" x2="71.7" y2="-64.9"/>
			<line class="st1" x1="0" y1="-56.2" x2="71.7" y2="-56.2"/>
			<line class="st1" x1="0" y1="-47.5" x2="71.7" y2="-47.5"/>
			<line class="st1" x1="0" y1="-38.9" x2="71.7" y2="-38.9"/>
			<line class="st1" x1="0" y1="-30.2" x2="71.7" y2="-30.2"/>
			<line class="st1" x1="0" y1="-21.5" x2="71.7" y2="-21.5"/>
			<line class="st1" x1="0" y1="-12.8" x2="71.7" y2="-12.8"/>
			<line class="st1" x1="0" y1="-4.1" x2="71.7" y2="-4.1"/>
			<line class="st2" x1="71" y1="0" x2="71" y2="-87.7"/>
		</g>
	</g>
</pattern>
<path class="st3" d="M92.3,85.4l-35.4-8.5c-2-0.5-3.8,1-3.6,2.9l11.2,108.9c0.3,2.7,4,3.6,5.5,1.3l59.5-91.9c1-1.6,0.1-3.8-1.9-4.3
	L92.3,85.4z"/>
<path class="st4" d="M92.3,85.4l-35.4-8.5c-2-0.5-3.8,1-3.6,2.9l11.2,108.9c0.3,2.7,4,3.6,5.5,1.3l59.5-91.9c1-1.6,0.1-3.8-1.9-4.3
	L92.3,85.4z"/>
<ellipse transform="matrix(0.9722 0.234 -0.234 0.9722 15.7982 -21.3964)" class="st5" cx="98.1" cy="55.9" rx="54.7" ry="48.5"/>
<path class="st5" d="M46.1,67.7c0,0,4,9.1,0.1,19.4c0,0-5.4,6.7,3.8,9.3c2.2,0.6,4.6,0.8,6.6,0.5c1.1-0.2,2.6-0.3,4.3-0.3
	c2.9,0.1,5.8,1.5,7.1,3.3c1.5,2,4.9,5.3,10.8,4.7c1.4-0.1,2.6-0.5,3.6-1c1.3-0.6,4.3-1.5,8.5,0.1c1.7,0.6,3.1,1.6,4.3,2.6
	c1.9,1.8,7,5.5,14.2,2.7c0,0,4.8-2.2,9.2,1.4c0.9,0.8,2,1.5,3.3,2c2.7,1.1,7.1,2.3,9.7,0.2c1.2-0.9,1.5-2.2,1.2-3.6
	c-0.8-3.2-3.2-12.1,4.8-17.8C146.7,84.9,46.1,67.7,46.1,67.7z"/>
<g>
	<g>
		<path class="st6" d="M64.1,38.3c-0.5-1.8-0.5-3.7-0.1-5.5c0.3-1.2-1.5-1.7-1.8-0.5c-0.5,2.1-0.5,4.4,0.1,6.5
			C62.6,40,64.4,39.5,64.1,38.3L64.1,38.3z"/>
	</g>
</g>
<g>
	<g>
		<path class="st7" d="M72,44.6c-0.7-1.8-1-3.8-0.7-5.8c0.1-1.2-1.7-1.2-1.9,0c-0.3,2.1,0,4.3,0.8,6.3C70.7,46.2,72.5,45.7,72,44.6
			L72,44.6z"/>
	</g>
</g>
<g>
	<path class="st8" d="M53.2,42c0,0,3.2,0.7,5.7,2.8"/>
	<g>
		<path class="st8" d="M53,42.9c1.9,0.4,3.8,1.4,5.3,2.6c0.9,0.8,2.3-0.6,1.3-1.3c-1.7-1.5-3.9-2.6-6.1-3.1
			C52.3,40.8,51.8,42.6,53,42.9L53,42.9z"/>
	</g>
</g>
<g>
	<g>
		<path class="st9" d="M82.4,47.1c-2-0.3-4-1.2-5.6-2.4c-1-0.7-1.9,0.9-0.9,1.6c1.8,1.3,3.9,2.2,6.1,2.6
			C83.1,49.2,83.6,47.3,82.4,47.1L82.4,47.1z"/>
	</g>
</g>
<g>
	<g>
		<path class="st9" d="M68.3,29.5c0.2,0.1-0.1-0.1-0.3-0.2c-0.4-0.3-0.7-0.6-1-1c-1-1-1.7-2.1-2.3-3.3c-0.5-1.1-2.1-0.1-1.6,0.9
			c1,2,2.5,3.8,4.3,5.2C68.3,31.8,69.2,30.2,68.3,29.5L68.3,29.5z"/>
	</g>
</g>
<g>
	<g>
		<path class="st6" d="M83.8,39.6c0.2,0.1-0.1-0.1-0.3-0.2c-0.4-0.3-0.7-0.6-1-1c-1-1-1.7-2.1-2.3-3.3C79.6,34,78,34.9,78.5,36
			c1,2,2.5,3.8,4.3,5.2C83.8,41.9,84.8,40.3,83.8,39.6L83.8,39.6z"/>
	</g>
</g>
<g>
	<g>
		<path class="st10" d="M73.6,28.9c-0.8,1.7-2,3.3-3.5,4.4c-1,0.7,0,2.3,0.9,1.6c1.7-1.3,3.3-3,4.2-5C75.8,28.7,74.1,27.7,73.6,28.9
			L73.6,28.9z"/>
	</g>
</g>
<g>
	<g>
		<path class="st10" d="M75.2,49.6c-2.1,0.3-4.3,1.2-6,2.4c-1,0.7,0,2.3,0.9,1.6c1.6-1.2,3.6-2,5.6-2.2
			C76.9,51.2,76.4,49.4,75.2,49.6L75.2,49.6z"/>
	</g>
</g>
<g>
	<g>
		<path class="st6" d="M98.4,12.8c2-0.1,4,0.4,5.8,1.2c1.1,0.5,2-1.1,0.9-1.6c-2.1-0.9-4.4-1.5-6.7-1.4C97.2,11,97.2,12.9,98.4,12.8
			L98.4,12.8z"/>
	</g>
</g>
<g>
	<g>
		<path class="st7" d="M87.5,22.7c-0.4,0.1,0.2,0,0.4,0c0.5,0,0.9,0,1.4,0c1.4,0,2.7,0.3,4.1,0.7c1.1,0.4,1.6-1.4,0.5-1.8
			c-2.2-0.7-4.6-1-6.8-0.7C85.8,21,86.3,22.8,87.5,22.7L87.5,22.7z"/>
	</g>
</g>
<g>
	<path class="st8" d="M90.2,12.3c0,0-1.3,2.8-3.9,4.6"/>
	<g>
		<path class="st8" d="M89.4,11.8c-0.8,1.7-2.1,3.2-3.6,4.3c-1,0.7,0,2.3,0.9,1.6c1.8-1.3,3.3-3,4.3-5
			C91.5,11.7,89.9,10.7,89.4,11.8L89.4,11.8z"/>
	</g>
</g>
<g>
	<g>
		<path class="st9" d="M81.7,28.5C81.8,28.3,81.6,28.7,81.7,28.5c0.1-0.1,0.1-0.2,0.2-0.3c0.2-0.4,0.4-0.8,0.6-1.1
			c0.7-1.1,1.6-2.1,2.6-3c0.9-0.8-0.4-2.1-1.3-1.3c-1.7,1.4-3.1,3.2-3.9,5.3C79.5,29.1,81.3,29.6,81.7,28.5L81.7,28.5z"/>
	</g>
</g>
<g>
	<g>
		<path class="st9" d="M103.5,22.6c1.2-1,3.4-2,5.2-2.3c1.2-0.2,0.7-2-0.5-1.8c-2.2,0.4-4.3,1.4-6.1,2.8
			C101.3,22.1,102.6,23.4,103.5,22.6L103.5,22.6z"/>
	</g>
</g>
<g>
	<g>
		<path class="st6" d="M62.8,79.9c1.2-1,3.4-2,5.2-2.3c1.2-0.2,0.7-2-0.5-1.8c-2.2,0.4-4.3,1.4-6.1,2.8
			C60.6,79.3,61.9,80.6,62.8,79.9L62.8,79.9z"/>
	</g>
</g>
<g>
	<g>
		<path class="st10" d="M103.2,27.6c-1.6-1.1-2.9-2.6-3.8-4.3c-0.6-1.1-2.2-0.1-1.6,0.9c1.1,2,2.7,3.7,4.5,5
			C103.2,29.9,104.2,28.3,103.2,27.6L103.2,27.6z"/>
	</g>
</g>
<g>
	<g>
		<path class="st10" d="M73.7,22.6c0.1-2.2-0.5-4.4-1.5-6.4c-0.6-1.1-2.2-0.1-1.6,0.9c0.8,1.7,1.3,3.6,1.3,5.4
			C71.8,23.8,73.7,23.8,73.7,22.6L73.7,22.6z"/>
	</g>
</g>
<g>
	<g>
		<path class="st6" d="M105.2,50.8c0.2,1.8-0.2,3.8-0.9,5.4c-0.5,1.1,1.1,2.1,1.6,0.9c0.9-2,1.4-4.2,1.2-6.4
			C107,49.6,105.1,49.6,105.2,50.8L105.2,50.8z"/>
	</g>
</g>
<g>
	<g>
		<path class="st7" d="M126.7,100.7c0.4,1.8,0.2,3.8-0.4,5.5c-0.4,1.2,1.4,1.6,1.8,0.5c0.7-2.1,0.8-4.4,0.4-6.5
			C128.3,99,126.5,99.5,126.7,100.7L126.7,100.7z"/>
	</g>
</g>
<g>
	<path class="st8" d="M55.6,87.4c0,0-3-1.2-5.1-3.7"/>
	<g>
		<path class="st8" d="M55.8,86.5c0.4,0.2-0.2-0.1-0.3-0.2c-0.4-0.2-0.8-0.4-1.2-0.7c-1.2-0.7-2.2-1.6-3.1-2.7
			c-0.8-0.9-2.1,0.4-1.3,1.3c1.5,1.7,3.4,3.1,5.5,4C56.5,88.8,57,87,55.8,86.5L55.8,86.5z"/>
	</g>
</g>
<g>
	<g>
		<path class="st9" d="M98.5,37.8c1.8,0.6,3.6,1.8,4.9,3.2c0.8,0.9,2.2-0.5,1.3-1.3c-1.6-1.6-3.6-2.9-5.7-3.7
			C97.8,35.6,97.4,37.4,98.5,37.8L98.5,37.8z"/>
	</g>
</g>
<g>
	<g>
		<path class="st9" d="M99.4,58.7c1.3,1.4,2.3,3.1,2.8,5c0.3,1.2,2.1,0.7,1.8-0.5c-0.6-2.1-1.7-4.2-3.3-5.8
			C99.9,56.5,98.6,57.9,99.4,58.7L99.4,58.7z"/>
	</g>
</g>
<g>
	<g>
		<path class="st6" d="M89.2,39c1.3,1.4,2.3,3.1,2.8,5c0.3,1.2,2.1,0.7,1.8-0.5c-0.6-2.1-1.7-4.2-3.3-5.8
			C89.7,36.8,88.4,38.1,89.2,39L89.2,39z"/>
	</g>
</g>
<g>
	<g>
		<path class="st10" d="M93.4,55.9c1-1.4,2.7-2.8,4.3-3.6c1.1-0.5,0.1-2.2-0.9-1.6c-2,1-3.8,2.5-5,4.3C91.1,56,92.7,56.9,93.4,55.9
			L93.4,55.9z"/>
	</g>
</g>
<g>
	<g>
		<path class="st10" d="M86.5,31.1c2.3,0.1,4.6-0.5,6.6-1.5c1.1-0.5,0.1-2.1-0.9-1.6c-1.7,0.8-3.8,1.3-5.7,1.2
			C85.3,29.2,85.3,31.1,86.5,31.1L86.5,31.1z"/>
	</g>
</g>
<g>
	<g>
		<path class="st6" d="M129.9,28.9c1.1,1.5,1.8,3.4,2,5.3c0.1,1.2,2,1.2,1.9,0c-0.2-2.2-1-4.4-2.3-6.2
			C130.8,26.9,129.2,27.9,129.9,28.9L129.9,28.9z"/>
	</g>
</g>
<g>
	<g>
		<path class="st7" d="M120.4,25.5c1.2,1.4,2.1,3.2,2.5,5.1c0.3,1.2,2.1,0.7,1.8-0.5c-0.5-2.2-1.6-4.2-3-5.9
			C120.9,23.3,119.6,24.6,120.4,25.5L120.4,25.5z"/>
	</g>
</g>
<g>
	<path class="st8" d="M131.2,22.6c0,0-3.3,0.3-6.3-0.9"/>
	<g>
		<path class="st8" d="M131.2,21.7c-2,0.2-4.1-0.2-6-0.9c-1.1-0.4-1.6,1.4-0.5,1.8c2,0.8,4.4,1.2,6.5,1
			C132.4,23.5,132.4,21.6,131.2,21.7L131.2,21.7z"/>
	</g>
</g>
<g>
	<g>
		<path class="st9" d="M109.9,26.1c-0.1,0,0.2,0,0.4,0c0.5,0,0.9-0.1,1.4,0c1.4,0,2.7,0.2,4.1,0.7c1.2,0.4,1.6-1.4,0.5-1.8
			c-2.2-0.7-4.6-0.9-6.8-0.6C108.2,24.5,108.7,26.3,109.9,26.1L109.9,26.1z"/>
	</g>
</g>
<g>
	<g>
		<path class="st9" d="M138.8,43.5c1.8,0.6,3.6,1.7,4.9,3.1c0.9,0.9,2.2-0.5,1.3-1.3c-1.6-1.6-3.6-2.9-5.8-3.6
			C138.1,41.3,137.7,43.1,138.8,43.5L138.8,43.5z"/>
	</g>
</g>
<g>
	<g>
		<path class="st6" d="M112.2,31.8c1.8,0.6,3.6,1.7,4.9,3.1c0.9,0.9,2.2-0.5,1.3-1.3c-1.6-1.6-3.6-2.9-5.8-3.6
			C111.6,29.6,111.1,31.4,112.2,31.8L112.2,31.8z"/>
	</g>
</g>
<g>
	<g>
		<path class="st10" d="M124.2,40.7c0.1-1.8,0.8-3.7,1.9-5.2c0.7-1-1-2-1.6-0.9c-1.2,1.8-2,4-2.1,6.2
			C122.2,41.9,124.1,41.9,124.2,40.7L124.2,40.7z"/>
	</g>
</g>
<g>
	<g>
		<path class="st10" d="M113.8,21.2c2-1,3.7-2.6,5-4.4c0.7-1-0.9-1.9-1.6-0.9c-1.1,1.5-2.6,2.9-4.3,3.7
			C111.8,20.1,112.7,21.7,113.8,21.2L113.8,21.2z"/>
	</g>
</g>
<g>
	<g>
		<path class="st6" d="M118.2,60.5c-1.3-1.4-2.3-3.2-2.7-5c-0.3-1.2-2.1-0.7-1.8,0.5c0.6,2.1,1.7,4.2,3.2,5.8
			C117.7,62.7,119,61.4,118.2,60.5L118.2,60.5z"/>
	</g>
</g>
<g>
	<g>
		<path class="st7" d="M128.4,57.4c-1.4-1.2-2.6-2.9-3.3-4.7c-0.4-1.1-2.2-0.6-1.8,0.5c0.8,2.1,2.1,4,3.8,5.5
			C127.9,59.5,129.3,58.2,128.4,57.4L128.4,57.4z"/>
	</g>
</g>
<g>
	<path class="st8" d="M123.2,66.1c0,0,3.2-0.7,6.4,0.1"/>
	<g>
		<path class="st8" d="M123.5,67c1.9-0.4,4-0.4,5.9,0.1c1.2,0.3,1.7-1.5,0.5-1.8c-2.2-0.5-4.6-0.6-6.9-0.1
			C121.8,65.4,122.3,67.3,123.5,67L123.5,67z"/>
	</g>
</g>
<g>
	<g>
		<path class="st9" d="M76.9,91.5c-1.9,0.5-3.9,0.6-5.8,0.3c-1.2-0.2-1.7,1.6-0.5,1.8c2.2,0.4,4.6,0.4,6.8-0.3
			C78.6,92.9,78.1,91.1,76.9,91.5L76.9,91.5z"/>
	</g>
</g>
<g>
	<g>
		<path class="st9" d="M119.9,46.9c-2-0.4-3.9-1.3-5.6-2.5c-1-0.7-1.9,0.9-0.9,1.6c1.7,1.3,3.9,2.3,6,2.7
			C120.5,48.9,121,47.1,119.9,46.9L119.9,46.9z"/>
	</g>
</g>
<g>
	<g>
		<path class="st6" d="M140.7,54.4c-2-0.4-3.9-1.3-5.6-2.5c-1-0.7-1.9,0.9-0.9,1.6c1.7,1.3,3.9,2.3,6,2.7
			C141.3,56.5,141.8,54.7,140.7,54.4L140.7,54.4z"/>
	</g>
</g>
<g>
	<g>
		<path class="st10" d="M130.4,42.7c0.1,1.8-0.2,3.8-1,5.4c-0.5,1.1,1.1,2,1.6,0.9c0.9-2,1.4-4.2,1.2-6.4
			C132.2,41.5,130.3,41.5,130.4,42.7L130.4,42.7z"/>
	</g>
</g>
<g>
	<g>
		<path class="st10" d="M146.1,62c-1.8,1.2-3.3,3-4.3,5c-0.5,1.1,1.1,2,1.6,0.9c0.8-1.7,2.1-3.3,3.6-4.3C148,63,147.1,61.4,146.1,62
			L146.1,62z"/>
	</g>
</g>
<g>
	<g>
		<path class="st6" d="M53.7,64.4c-1.3-1.4-2.3-3.2-2.7-5c-0.3-1.2-2.1-0.7-1.8,0.5c0.6,2.1,1.7,4.2,3.2,5.8
			C53.2,66.6,54.6,65.3,53.7,64.4L53.7,64.4z"/>
	</g>
</g>
<g>
	<g>
		<path class="st7" d="M63.8,66.6c-1.4-1.2-2.6-2.9-3.3-4.7c-0.4-1.1-2.2-0.6-1.8,0.5c0.8,2.1,2.1,4,3.8,5.5
			C63.4,68.8,64.7,67.4,63.8,66.6L63.8,66.6z"/>
	</g>
</g>
<g>
	<path class="st8" d="M53.4,70.9c0,0,3.2-0.7,6.4,0.1"/>
	<g>
		<path class="st8" d="M53.7,71.8c1.9-0.4,4-0.4,5.9,0.1c1.2,0.3,1.7-1.5,0.5-1.8c-2.2-0.5-4.6-0.6-6.9-0.1
			C52,70.2,52.5,72,53.7,71.8L53.7,71.8z"/>
	</g>
</g>
<g>
	<g>
		<path class="st9" d="M74,64.5c-1.9,0.5-3.9,0.6-5.8,0.3c-1.2-0.2-1.7,1.6-0.5,1.8c2.2,0.4,4.6,0.4,6.8-0.3
			C75.7,66,75.2,64.2,74,64.5L74,64.5z"/>
	</g>
</g>
<g>
	<g>
		<path class="st9" d="M53.4,54.7c-2-0.4-3.9-1.3-5.6-2.5c-1-0.7-1.9,0.9-0.9,1.6c1.7,1.3,3.9,2.3,6,2.7
			C54.1,56.8,54.6,55,53.4,54.7L53.4,54.7z"/>
	</g>
</g>
<g>
	<g>
		<path class="st6" d="M70.9,59.2c-2-0.4-3.9-1.3-5.6-2.5c-1-0.7-1.9,0.9-0.9,1.6c1.7,1.3,3.9,2.3,6,2.7
			C71.5,61.3,72,59.5,70.9,59.2L70.9,59.2z"/>
	</g>
</g>
<g>
	<g>
		<path class="st10" d="M57.6,51.9c0.1,1.8-0.2,3.8-1,5.4c-0.5,1.1,1.1,2,1.6,0.9c0.9-2,1.4-4.2,1.2-6.4
			C59.4,50.7,57.5,50.7,57.6,51.9L57.6,51.9z"/>
	</g>
</g>
<g>
	<g>
		<path class="st10" d="M111.5,97.4c-1.8,1.2-3.3,3-4.3,5c-0.5,1.1,1.1,2,1.6,0.9c0.8-1.7,2.1-3.3,3.6-4.3
			C113.4,98.3,112.5,96.7,111.5,97.4L111.5,97.4z"/>
	</g>
</g>
<g>
	<g>
		<path class="st6" d="M84.7,96.4c2.1-0.7,4.1-2,5.5-3.7c0.8-0.9-0.5-2.2-1.3-1.3c-1.3,1.4-2.9,2.6-4.7,3.2
			C83,95,83.5,96.8,84.7,96.4L84.7,96.4z"/>
	</g>
</g>
<g>
	<g>
		<path class="st7" d="M85.5,78.5c2.2-0.5,4.2-1.7,5.9-3.1c0.9-0.8-0.4-2.1-1.3-1.3c-1.4,1.3-3.2,2.2-5.1,2.7
			C83.8,77,84.3,78.8,85.5,78.5L85.5,78.5z"/>
	</g>
</g>
<g>
	<path class="st8" d="M98.8,87.7c0,0-2.5-2.1-5.7-2.8"/>
	<g>
		<path class="st8" d="M99.5,87c-1.7-1.5-3.9-2.5-6.1-3c-1.2-0.3-1.7,1.5-0.5,1.8c1.9,0.4,3.8,1.3,5.3,2.6
			C99,89.1,100.4,87.8,99.5,87L99.5,87z"/>
	</g>
</g>
<g>
	<g>
		<path class="st9" d="M82.1,64.5c1.7,1.6,3.8,2.7,5.9,3.4c1.2,0.3,1.7-1.5,0.5-1.8c-1.9-0.5-3.7-1.5-5.1-2.9
			C82.5,62.4,81.2,63.7,82.1,64.5L82.1,64.5z"/>
	</g>
</g>
<g>
	<g>
		<path class="st9" d="M99.2,72.6c2.2,0.6,4.6,0.7,6.8,0.3c1.2-0.2,0.7-2-0.5-1.8c-1.9,0.3-4,0.2-5.9-0.3
			C98.5,70.5,98,72.3,99.2,72.6L99.2,72.6z"/>
	</g>
</g>
<g>
	<g>
		<path class="st6" d="M80,55.8c2.2,0.6,4.6,0.7,6.8,0.3c1.2-0.2,0.7-2-0.5-1.8c-1.9,0.3-4,0.2-5.9-0.3C79.3,53.7,78.8,55.5,80,55.8
			L80,55.8z"/>
	</g>
</g>
<g>
	<g>
		<path class="st10" d="M95.5,65.4c-1.1,1.9-1.8,4.1-1.8,6.2c0,1.2,1.8,1.2,1.9,0c0.1-1.8,0.6-3.7,1.6-5.3
			C97.8,65.4,96.2,64.4,95.5,65.4L95.5,65.4z"/>
	</g>
</g>
<g>
	<g>
		<path class="st10" d="M77.2,78c0.9,1.6,1.3,3.6,1.3,5.4c0,1.2,1.9,1.2,1.9,0c0-2.2-0.5-4.5-1.5-6.4C78.3,76,76.6,76.9,77.2,78
			L77.2,78z"/>
	</g>
</g>
<g>
	<g>
		<path class="st6" d="M129.2,81c1.3,1.4,2.3,3.2,2.7,5c0.3,1.2,2.1,0.7,1.8-0.5c-0.6-2.1-1.7-4.2-3.2-5.8
			C129.7,78.8,128.4,80.1,129.2,81L129.2,81z"/>
	</g>
</g>
<g>
	<g>
		<path class="st7" d="M119.1,78.8c1.4,1.2,2.6,2.9,3.3,4.7c0.4,1.1,2.2,0.6,1.8-0.5c-0.8-2.1-2.1-4-3.8-5.5
			C119.6,76.7,118.2,78,119.1,78.8L119.1,78.8z"/>
	</g>
</g>
<g>
	<path class="st8" d="M129.5,74.6c0,0-3.2,0.7-6.4-0.1"/>
	<g>
		<path class="st8" d="M129.3,73.7c-1.9,0.4-4,0.4-5.9-0.1c-1.2-0.3-1.7,1.5-0.5,1.8c2.2,0.5,4.6,0.6,6.9,0.1
			C130.9,75.2,130.4,73.4,129.3,73.7L129.3,73.7z"/>
	</g>
</g>
<g>
	<g>
		<path class="st9" d="M108.9,81c1.9-0.5,3.9-0.6,5.8-0.3c1.2,0.2,1.7-1.6,0.5-1.8c-2.2-0.4-4.6-0.4-6.8,0.3
			C107.2,79.5,107.7,81.3,108.9,81L108.9,81z"/>
	</g>
</g>
<g>
	<g>
		<path class="st9" d="M136,77.2c2,0.4,3.9,1.3,5.6,2.5c1,0.7,1.9-0.9,0.9-1.6c-1.7-1.3-3.9-2.3-6-2.7C135.3,75.2,134.8,77,136,77.2
			L136,77.2z"/>
	</g>
</g>
<g>
	<g>
		<path class="st6" d="M109.5,89.2c2,0.4,3.9,1.3,5.6,2.5c1,0.7,1.9-0.9,0.9-1.6c-1.7-1.3-3.9-2.3-6-2.7
			C108.8,87.1,108.3,88.9,109.5,89.2L109.5,89.2z"/>
	</g>
</g>
<g>
	<g>
		<path class="st10" d="M125.3,93.6c-0.1-1.8,0.2-3.8,1-5.4c0.5-1.1-1.1-2-1.6-0.9c-0.9,2-1.4,4.2-1.2,6.4
			C123.5,94.8,125.4,94.8,125.3,93.6L125.3,93.6z"/>
	</g>
</g>
<g>
	<g>
		<path class="st10" d="M113.1,72.6c1.8-1.2,3.3-3,4.3-5c0.5-1.1-1.1-2-1.6-0.9c-0.8,1.7-2.1,3.3-3.6,4.3
			C111.2,71.7,112.1,73.3,113.1,72.6L113.1,72.6z"/>
	</g>
</g>
</svg>
