<?xml version="1.0" encoding="utf-8"?>
<!-- Generator: Adobe Illustrator 18.1.1, SVG Export Plug-In . SVG Version: 6.00 Build 0)  -->
<!DOCTYPE svg PUBLIC "-//W3C//DTD SVG 1.1//EN" "http://www.w3.org/Graphics/SVG/1.1/DTD/svg11.dtd">
<svg version="1.1" id="Layer_1" xmlns="http://www.w3.org/2000/svg" xmlns:xlink="http://www.w3.org/1999/xlink" x="0px" y="0px"
	 viewBox="0 0 209.8 348.5" style="enable-background:new 0 0 209.8 348.5;" xml:space="preserve">
<style type="text/css">
	.st0{fill:none;}
	.st1{fill:none;stroke:#F6B884;stroke-width:2.0256;stroke-miterlimit:10;}
	.st2{fill:none;stroke:#F6B884;stroke-width:2.2684;stroke-miterlimit:10;}
	.st3{fill:#EEA564;}
	.st4{fill:url(#New_Pattern_2);}
	.st5{fill:#F4EFD9;}
	.st6{fill:#A47AB6;}
	.st7{fill:#2BB673;}
	.st8{fill:#7BD3F7;}
	.st9{fill:#F594A0;}
	.st10{fill:#FFE584;}
</style>
<pattern  x="-37.4" y="-2.9" width="71.7" height="87.7" patternUnits="userSpaceOnUse" id="New_Pattern_2" viewBox="71.3 -87.7 71.7 87.7" style="overflow:visible;">
	<g>
		<polygon class="st0" points="71.3,-87.7 143.1,-87.7 143.1,0 71.3,0 		"/>
		<g>
			<line class="st1" x1="71.7" y1="-82.3" x2="143.4" y2="-82.3"/>
			<line class="st1" x1="71.7" y1="-73.6" x2="143.4" y2="-73.6"/>
			<line class="st1" x1="71.7" y1="-64.9" x2="143.4" y2="-64.9"/>
			<line class="st1" x1="71.7" y1="-56.2" x2="143.4" y2="-56.2"/>
			<line class="st1" x1="71.7" y1="-47.5" x2="143.4" y2="-47.5"/>
			<line class="st1" x1="71.7" y1="-38.9" x2="143.4" y2="-38.9"/>
			<line class="st1" x1="71.7" y1="-30.2" x2="143.4" y2="-30.2"/>
			<line class="st1" x1="71.7" y1="-21.5" x2="143.4" y2="-21.5"/>
			<line class="st1" x1="71.7" y1="-12.8" x2="143.4" y2="-12.8"/>
			<line class="st1" x1="71.7" y1="-4.1" x2="143.4" y2="-4.1"/>
			<line class="st2" x1="80.4" y1="0" x2="80.4" y2="-87.7"/>
			<line class="st2" x1="89.3" y1="0" x2="89.3" y2="-87.7"/>
			<line class="st2" x1="98.2" y1="0" x2="98.2" y2="-87.7"/>
			<line class="st2" x1="107.1" y1="0" x2="107.1" y2="-87.7"/>
			<line class="st2" x1="116" y1="0" x2="116" y2="-87.7"/>
			<line class="st2" x1="124.9" y1="0" x2="124.9" y2="-87.7"/>
			<line class="st2" x1="133.8" y1="0" x2="133.8" y2="-87.7"/>
			<line class="st2" x1="142.7" y1="0" x2="142.7" y2="-87.7"/>
		</g>
		<g>
			<line class="st1" x1="0" y1="-82.3" x2="71.7" y2="-82.3"/>
			<line class="st1" x1="0" y1="-73.6" x2="71.7" y2="-73.6"/>
			<line class="st1" x1="0" y1="-64.9" x2="71.7" y2="-64.9"/>
			<line class="st1" x1="0" y1="-56.2" x2="71.7" y2="-56.2"/>
			<line class="st1" x1="0" y1="-47.5" x2="71.7" y2="-47.5"/>
			<line class="st1" x1="0" y1="-38.9" x2="71.7" y2="-38.9"/>
			<line class="st1" x1="0" y1="-30.2" x2="71.7" y2="-30.2"/>
			<line class="st1" x1="0" y1="-21.5" x2="71.7" y2="-21.5"/>
			<line class="st1" x1="0" y1="-12.8" x2="71.7" y2="-12.8"/>
			<line class="st1" x1="0" y1="-4.1" x2="71.7" y2="-4.1"/>
			<line class="st2" x1="71" y1="0" x2="71" y2="-87.7"/>
		</g>
	</g>
</pattern>
<path class="st3" d="M109.4,152.5H51.8c-3.2,0-5.5,3.1-4.5,6.2l57.6,173.2c1.4,4.3,7.5,4.3,8.9,0l57.6-173.2c1-3.1-1.3-6.2-4.5-6.2
	H109.4z"/>
<path class="st4" d="M109.4,152.5H51.8c-3.2,0-5.5,3.1-4.5,6.2l57.6,173.2c1.4,4.3,7.5,4.3,8.9,0l57.6-173.2c1-3.1-1.3-6.2-4.5-6.2
	H109.4z"/>
<ellipse class="st5" cx="107.3" cy="102.1" rx="86.6" ry="81.3"/>
<path class="st5" d="M31.7,141.7c0,0,9.5,13.2,7.4,31.6c0,0-5.8,13.1,9.4,13.7c3.7,0.2,7.3-0.5,10.3-1.9c1.7-0.7,3.9-1.6,6.4-2.2
	c4.5-1,9.4,0.1,12.2,2.6c3,2.7,9.5,6.8,18.3,3.5c2-0.8,3.8-1.8,5.2-3c1.8-1.5,6.1-4.1,13.2-3.1c2.9,0.4,5.4,1.3,7.5,2.6
	c3.6,2.2,12.7,6.2,22.9-1.1c0,0,6.6-5.5,14.6-1.4c1.7,0.9,3.6,1.6,5.8,2c4.5,0.7,11.8,1,15.1-3.4c1.4-2,1.5-4.2,0.5-6.2
	c-2.4-5-9.4-18.5,0.8-30.9C192.8,130.3,31.7,141.7,31.7,141.7z"/>
<g>
	<g>
		<path class="st6" d="M48.5,86.8c-1.4-2.7-2.2-6-2.1-9c0-2-3.1-2-3.1,0c0,3.6,0.9,7.4,2.6,10.6C46.8,90.1,49.4,88.5,48.5,86.8
			L48.5,86.8z"/>
	</g>
</g>
<g>
	<g>
		<path class="st7" d="M63.1,94c-1.7-2.6-2.9-5.7-3.2-8.7c-0.2-1.9-3.3-2-3.1,0c0.4,3.6,1.6,7.2,3.6,10.3
			C61.6,97.1,64.2,95.6,63.1,94L63.1,94z"/>
	</g>
</g>
<g>
	<path class="st8" d="M33.2,97c0,0,5.2-0.1,9.8,2.4"/>
	<g>
		<path class="st8" d="M33.2,98.6c3.1,0,6.3,0.8,9,2.2c1.7,0.9,3.3-1.7,1.5-2.6c-3.2-1.7-6.9-2.7-10.6-2.6
			C31.2,95.5,31.2,98.6,33.2,98.6L33.2,98.6z"/>
	</g>
</g>
<g>
	<g>
		<path class="st9" d="M79.9,94.1c-3.1,0.2-6.3-0.4-9.1-1.6c-1.8-0.8-3.3,1.8-1.5,2.6c3.3,1.5,7.1,2.3,10.7,2
			C81.9,97,81.9,93.9,79.9,94.1L79.9,94.1z"/>
	</g>
</g>
<g>
	<g>
		<path class="st9" d="M52,71c-2.8-1.3-5.5-3.3-7.3-5.7c-1.2-1.5-3.8,0-2.6,1.5c2.2,2.9,5.1,5.4,8.4,6.8C52.3,74.4,53.8,71.8,52,71
			L52,71z"/>
	</g>
</g>
<g>
	<g>
		<path class="st6" d="M79.7,81.3c-2.8-1.3-5.5-3.3-7.3-5.7c-1.2-1.5-3.8,0-2.6,1.5c2.2,2.9,5.1,5.4,8.4,6.8
			C79.9,84.7,81.5,82.1,79.7,81.3L79.7,81.3z"/>
	</g>
</g>
<g>
	<g>
		<path class="st10" d="M59.7,67.7c-0.5,3-1.9,6.1-3.8,8.5c-1.2,1.5,0.9,3.7,2.2,2.2c2.2-2.8,3.9-6.3,4.6-9.9
			C63,66.6,60,65.7,59.7,67.7L59.7,67.7z"/>
	</g>
</g>
<g>
	<g>
		<path class="st10" d="M70.1,100.8c-3.3,1.4-6.4,3.7-8.7,6.5c-1.2,1.5,0.9,3.7,2.2,2.2c1.4-1.7,3-3.2,4.9-4.3
			c0.6-0.4,1.3-0.8,1.9-1.1c0.2-0.1,1.3-0.6,0.5-0.3C72.7,103,71.9,100,70.1,100.8L70.1,100.8z"/>
	</g>
</g>
<g>
	<g>
		<path class="st6" d="M91.9,31.7c3-0.9,6.2-0.9,9.3-0.3c1.9,0.4,2.7-2.6,0.8-3c-3.6-0.7-7.4-0.7-10.9,0.3
			C89.2,29.3,90,32.3,91.9,31.7L91.9,31.7z"/>
	</g>
</g>
<g>
	<g>
		<path class="st7" d="M78.5,52.3c3-1.2,6.4-1.7,9.6-1.4c2,0.2,1.9-2.9,0-3.1c-3.5-0.3-7.2,0.1-10.4,1.5C75.8,50,76.6,53,78.5,52.3
			L78.5,52.3z"/>
	</g>
</g>
<g>
	<path class="st8" d="M79.1,34.1c0,0-1,5.1-4.3,9.1"/>
	<g>
		<path class="st8" d="M77.6,33.7c-0.6,3-2,6-3.9,8.4c-1.2,1.5,0.9,3.7,2.2,2.2c2.3-2.8,4-6.2,4.7-9.8C81,32.6,78,31.8,77.6,33.7
			L77.6,33.7z"/>
	</g>
</g>
<g>
	<g>
		<path class="st9" d="M72.1,63.8c-0.1,0.8,0.1-0.5,0.1-0.7c0.1-0.7,0.3-1.4,0.5-2c0.6-2.1,1.6-4.1,2.9-5.9c1.2-1.6-1.5-3.1-2.6-1.5
			c-2.1,3-3.5,6.5-4,10.1C68.8,65.7,71.8,65.7,72.1,63.8L72.1,63.8z"/>
	</g>
</g>
<g>
	<g>
		<path class="st9" d="M103.5,45.7C103.5,45.7,103.7,45.5,103.5,45.7c0.1-0.1,0.2-0.3,0.3-0.4c0.5-0.6,1-1.1,1.5-1.7
			c1.6-1.6,3.3-2.8,5.3-3.8c1.8-0.9,0.2-3.5-1.5-2.6c-3.3,1.6-6.2,4.1-8.3,7C99.7,45.8,102.3,47.3,103.5,45.7L103.5,45.7z"/>
	</g>
</g>
<g>
	<g>
		<path class="st6" d="M62.1,155C62.1,154.9,62.2,154.8,62.1,155c0.1-0.1,0.2-0.3,0.3-0.4c0.5-0.6,1-1.1,1.5-1.7
			c1.6-1.6,3.3-2.8,5.3-3.8c1.8-0.9,0.2-3.5-1.5-2.6c-3.3,1.6-6.2,4.1-8.3,7C58.3,155.1,60.9,156.6,62.1,155L62.1,155z"/>
	</g>
</g>
<g>
	<g>
		<path class="st10" d="M104.7,54C104.4,53.9,105.1,54.2,104.7,54c-0.2-0.1-0.4-0.2-0.5-0.3c-0.7-0.3-1.3-0.7-1.9-1
			c-1.9-1.1-3.6-2.5-5-4.2c-1.3-1.5-3.4,0.7-2.2,2.2c2.3,2.8,5.5,5,8.8,6.3C105.7,57.7,106.5,54.8,104.7,54L104.7,54z"/>
	</g>
</g>
<g>
	<g>
		<path class="st10" d="M57.6,57.4c-0.7-3.6-2.5-7-4.7-9.8c-1.2-1.5-3.4,0.7-2.2,2.2c2,2.4,3.4,5.4,3.9,8.4
			C55,60.1,58,59.3,57.6,57.4L57.6,57.4z"/>
	</g>
</g>
<g>
	<g>
		<path class="st6" d="M116.4,91c0.9,2.9,1.1,6.2,0.6,9.3c-0.3,1.9,2.6,2.8,3,0.8c0.6-3.6,0.5-7.4-0.6-10.9
			C118.8,88.3,115.8,89.1,116.4,91L116.4,91z"/>
	</g>
</g>
<g>
	<g>
		<path class="st7" d="M168,164c-0.1-0.3,0.2,0.4,0.2,0.6c0.2,0.7,0.5,1.4,0.6,2.1c0.6,2.1,0.8,4.3,0.6,6.5c-0.1,2,2.9,2,3.1,0
			c0.3-3.6-0.4-7.4-1.9-10.7C169.8,160.6,167.2,162.2,168,164L168,164z"/>
	</g>
</g>
<g>
	<path class="st8" d="M53.7,170.2c0,0-5.1-0.8-9.2-4.1"/>
	<g>
		<path class="st8" d="M54.1,168.7c-3.2-0.5-6.3-2-8.8-3.9c-1.6-1.2-3.1,1.5-1.5,2.6c2.7,2.1,6.2,3.7,9.6,4.3
			C55.2,172,56,169.1,54.1,168.7L54.1,168.7z"/>
	</g>
</g>
<g>
	<g>
		<path class="st9" d="M101.3,72.4c2.6,0.3,6.2,1.6,8.7,3.3c1.6,1.1,3.2-1.5,1.5-2.6c-3-2-6.6-3.4-10.2-3.7
			C99.4,69.2,99.4,72.2,101.3,72.4L101.3,72.4z"/>
	</g>
</g>
<g>
	<g>
		<path class="st9" d="M110.5,106.2c2.5,1.7,4.7,4.3,6.1,7c0.9,1.8,3.5,0.2,2.6-1.5c-1.7-3.2-4.2-6.1-7.2-8.1
			C110.4,102.5,108.8,105.1,110.5,106.2L110.5,106.2z"/>
	</g>
</g>
<g>
	<g>
		<path class="st6" d="M87.4,78c2.5,1.7,4.7,4.3,6.1,7c0.9,1.8,3.5,0.2,2.6-1.5c-1.7-3.2-4.2-6.1-7.2-8.1
			C87.3,74.3,85.8,76.9,87.4,78L87.4,78z"/>
	</g>
</g>
<g>
	<g>
		<path class="st10" d="M100.2,104c1.1-2.9,3-5.6,5.3-7.6c1.5-1.3-0.7-3.5-2.2-2.2c-2.7,2.4-4.9,5.6-6.1,9
			C96.6,105.1,99.5,105.9,100.2,104L100.2,104z"/>
	</g>
</g>
<g>
	<g>
		<path class="st10" d="M80.4,66.2c3.5-0.8,6.9-2.6,9.7-5c1.5-1.3-0.7-3.4-2.2-2.2c-2.3,2-5.3,3.5-8.3,4.2
			C77.7,63.7,78.5,66.6,80.4,66.2L80.4,66.2z"/>
	</g>
</g>
<g>
	<g>
		<path class="st6" d="M146.2,45.6c2.3,2.1,4,4.9,5,7.8c0.6,1.9,3.6,1.1,3-0.8c-1.2-3.4-3.2-6.7-5.8-9.2
			C146.9,42.1,144.8,44.2,146.2,45.6L146.2,45.6z"/>
	</g>
</g>
<g>
	<g>
		<path class="st7" d="M130.4,43.8c-0.3-0.2,0.2,0.2,0.4,0.4c0.6,0.5,1.1,1,1.6,1.6c1.5,1.6,2.8,3.4,3.7,5.4
			c0.8,1.8,3.5,0.2,2.6-1.5c-1.5-3.3-4-6.2-6.9-8.4C130.3,40,128.8,42.7,130.4,43.8L130.4,43.8z"/>
	</g>
</g>
<g>
	<path class="st8" d="M146,34.9c0,0-4.9,1.8-10,0.9"/>
	<g>
		<path class="st8" d="M145.6,33.4c-2.9,1-6.2,1.4-9.2,0.9c-1.9-0.3-2.8,2.7-0.8,3c3.6,0.5,7.4,0.3,10.9-0.9
			C148.2,35.7,147.4,32.8,145.6,33.4L145.6,33.4z"/>
	</g>
</g>
<g>
	<g>
		<path class="st9" d="M114.5,48.9c-0.6,0.3,0.4-0.2,0.6-0.2c0.7-0.2,1.4-0.4,2.1-0.6c2.2-0.5,4.3-0.7,6.5-0.5c2,0.2,2-2.9,0-3.1
			c-3.6-0.3-7.4,0.3-10.7,1.7C111.2,47,112.7,49.7,114.5,48.9L114.5,48.9z"/>
	</g>
</g>
<g>
	<g>
		<path class="st9" d="M165.4,65.8c3,0.3,6.2,1.5,8.7,3.2c1.7,1.1,3.2-1.6,1.5-2.6c-3-2-6.6-3.3-10.3-3.6
			C163.5,62.6,163.5,65.7,165.4,65.8L165.4,65.8z"/>
	</g>
</g>
<g>
	<g>
		<path class="st6" d="M120.3,57.3c3,0.3,6.2,1.5,8.7,3.2c1.7,1.1,3.2-1.6,1.5-2.6c-3-2-6.6-3.3-10.3-3.6
			C118.3,54,118.3,57.1,120.3,57.3L120.3,57.3z"/>
	</g>
</g>
<g>
	<g>
		<path class="st10" d="M141.9,67.1c0,0.3,0-0.4-0.1-0.6c-0.1-0.7-0.1-1.5-0.1-2.2c0-2.2,0.4-4.3,1.1-6.4c0.6-1.9-2.3-2.7-3-0.8
			c-1.2,3.4-1.5,7.2-0.9,10.9C139.3,69.8,142.2,69,141.9,67.1L141.9,67.1z"/>
	</g>
</g>
<g>
	<g>
		<path class="st10" d="M118.8,39.3c2.7-2.4,4.8-5.7,6-9.1c0.7-1.9-2.3-2.7-3-0.8c-1.1,2.9-2.9,5.6-5.2,7.7
			C115.1,38.5,117.3,40.6,118.8,39.3L118.8,39.3z"/>
	</g>
</g>
<g>
	<g>
		<path class="st6" d="M140,101.8c-2.3-1.6-4.7-4.4-6-7.1c-0.9-1.8-3.5-0.2-2.6,1.5c1.6,3.2,4.2,6.1,7.1,8.2
			C140.1,105.6,141.6,102.9,140,101.8L140,101.8z"/>
	</g>
</g>
<g>
	<g>
		<path class="st7" d="M154.5,92.7c-2.7-1.5-5.1-3.8-6.8-6.3c-1.1-1.6-3.7-0.1-2.6,1.5c2,3,4.7,5.7,7.9,7.4
			C154.7,96.3,156.2,93.7,154.5,92.7L154.5,92.7z"/>
	</g>
</g>
<g>
	<path class="st8" d="M149.8,108.9c0,0,4.6-2.5,9.8-2.3"/>
	<g>
		<path class="st8" d="M150.6,110.2c2.7-1.4,6-2.1,9-2.1c2,0,2-3.1,0-3.1c-3.6,0-7.4,0.8-10.6,2.5
			C147.3,108.5,148.8,111.1,150.6,110.2L150.6,110.2z"/>
	</g>
</g>
<g>
	<g>
		<path class="st9" d="M87.9,168.5c-2.6,1.6-5.8,2.5-8.9,2.7c-2,0.1-2,3.2,0,3.1c3.6-0.2,7.3-1.2,10.4-3.1
			C91.2,170.1,89.6,167.5,87.9,168.5L87.9,168.5z"/>
	</g>
</g>
<g>
	<g>
		<path class="st9" d="M137.5,78.9c-3.1,0.2-6.3-0.5-9.1-1.8c-1.8-0.8-3.3,1.8-1.5,2.6c3.3,1.5,7,2.4,10.7,2.2
			C139.4,81.9,139.4,78.8,137.5,78.9L137.5,78.9z"/>
	</g>
</g>
<g>
	<g>
		<path class="st6" d="M172.3,83.1c-3.1,0.2-6.3-0.5-9.1-1.8c-1.8-0.8-3.3,1.8-1.5,2.6c3.3,1.5,7,2.4,10.7,2.2
			C174.2,86.1,174.2,83,172.3,83.1L172.3,83.1z"/>
	</g>
</g>
<g>
	<g>
		<path class="st10" d="M152.2,68.1c0.9,3,1.1,6.2,0.5,9.3c-0.4,1.9,2.6,2.8,3,0.8c0.7-3.6,0.6-7.4-0.5-10.9
			C154.5,65.4,151.6,66.2,152.2,68.1L152.2,68.1z"/>
	</g>
</g>
<g>
	<g>
		<path class="st10" d="M183.4,93.4c-2.3,2.8-4,6.2-4.8,9.8c-0.4,1.9,2.5,2.7,3,0.8c0.6-3,2-6,4-8.4C186.9,94,184.7,91.9,183.4,93.4
			L183.4,93.4z"/>
	</g>
</g>
<g>
	<g>
		<path class="st6" d="M42.3,133.5c-2.3-1.6-4.7-4.4-6-7.1c-0.9-1.8-3.5-0.2-2.6,1.5c1.6,3.2,4.2,6.1,7.1,8.2
			C42.3,137.2,43.9,134.6,42.3,133.5L42.3,133.5z"/>
	</g>
</g>
<g>
	<g>
		<path class="st7" d="M58.5,133.2c-2.7-1.5-5.1-3.8-6.8-6.3c-1.1-1.6-3.7-0.1-2.6,1.5c2,3,4.7,5.7,7.9,7.4
			C58.7,136.7,60.3,134.1,58.5,133.2L58.5,133.2z"/>
	</g>
</g>
<g>
	<path class="st8" d="M44.2,144.1c0,0,4.6-2.5,9.8-2.3"/>
	<g>
		<path class="st8" d="M44.9,145.4c2.7-1.4,6-2.1,9-2.1c2,0,2-3.1,0-3.1c-3.6,0-7.4,0.8-10.6,2.5C41.6,143.7,43.2,146.3,44.9,145.4
			L44.9,145.4z"/>
	</g>
</g>
<g>
	<g>
		<path class="st9" d="M73.5,125.6c-2.6,1.6-5.8,2.5-8.9,2.7c-2,0.1-2,3.2,0,3.1c3.6-0.2,7.3-1.2,10.4-3.1
			C76.7,127.3,75.2,124.6,73.5,125.6L73.5,125.6z"/>
	</g>
</g>
<g>
	<g>
		<path class="st9" d="M38.1,117.8c-3.1,0.2-6.3-0.5-9.1-1.8c-1.8-0.8-3.3,1.8-1.5,2.6c3.3,1.5,7,2.4,10.7,2.2
			C40.1,120.8,40.1,117.7,38.1,117.8L38.1,117.8z"/>
	</g>
</g>
<g>
	<g>
		<path class="st6" d="M66.6,118.3c-3.1,0.2-6.3-0.5-9.1-1.8c-1.8-0.8-3.3,1.8-1.5,2.6c3.3,1.5,7,2.4,10.7,2.2
			C68.6,121.3,68.6,118.2,66.6,118.3L66.6,118.3z"/>
	</g>
</g>
<g>
	<g>
		<path class="st10" d="M43.5,111.5c0.9,3,1.1,6.2,0.5,9.3c-0.4,1.9,2.6,2.8,3,0.8c0.7-3.6,0.6-7.4-0.5-10.9
			C45.9,108.8,43,109.6,43.5,111.5L43.5,111.5z"/>
	</g>
</g>
<g>
	<g>
		<path class="st10" d="M143.3,164.6c-2.3,2.8-4,6.2-4.8,9.8c-0.4,1.9,2.5,2.7,3,0.8c0.6-3,2-6,4-8.4
			C146.7,165.3,144.5,163.1,143.3,164.6L143.3,164.6z"/>
	</g>
</g>
<g>
	<g>
		<path class="st6" d="M101.8,173.3c3-2.1,5.5-5,7.1-8.2c0.9-1.8-1.8-3.3-2.6-1.5c-1.4,2.7-3.7,5.5-6,7.1
			C98.6,171.8,100.1,174.4,101.8,173.3L101.8,173.3z"/>
	</g>
</g>
<g>
	<g>
		<path class="st7" d="M96.4,143.9c3.2-1.7,6-4.4,7.9-7.4c1.1-1.7-1.6-3.2-2.6-1.5c-1.7,2.6-4.1,4.9-6.8,6.3
			C93.1,142.2,94.7,144.8,96.4,143.9L96.4,143.9z"/>
	</g>
</g>
<g>
	<path class="st8" d="M120.2,153.7c0,0-4.6-2.5-9.8-2.3"/>
	<g>
		<path class="st8" d="M121,152.3c-3.2-1.7-7-2.6-10.6-2.5c-2,0-2,3.1,0,3.1c3.1,0,6.3,0.7,9,2.1C121.2,155.9,122.7,153.3,121,152.3
			L121,152.3z"/>
	</g>
</g>
<g>
	<g>
		<path class="st9" d="M85.9,122.5c3.1,1.9,6.8,2.9,10.4,3.1c2,0.1,2-3,0-3.1c-3.1-0.2-6.2-1.1-8.9-2.7
			C85.8,118.8,84.2,121.5,85.9,122.5L85.9,122.5z"/>
	</g>
</g>
<g>
	<g>
		<path class="st9" d="M115.3,129c3.6,0.2,7.4-0.7,10.7-2.2c1.8-0.8,0.2-3.5-1.5-2.6c-2.8,1.3-6,1.9-9.1,1.8
			C113.3,125.8,113.3,128.9,115.3,129L115.3,129z"/>
	</g>
</g>
<g>
	<g>
		<path class="st6" d="M79.5,109.1c3.6,0.2,7.4-0.7,10.7-2.2c1.8-0.8,0.2-3.5-1.5-2.6c-2.8,1.3-6,1.9-9.1,1.8
			C77.6,105.9,77.6,109,79.5,109.1L79.5,109.1z"/>
	</g>
</g>
<g>
	<g>
		<path class="st10" d="M106.9,118.8c-1.1,3.5-1.2,7.3-0.5,10.9c0.4,1.9,3.3,1.1,3-0.8c-0.6-3-0.4-6.3,0.5-9.3
			C110.4,117.7,107.5,116.9,106.9,118.8L106.9,118.8z"/>
	</g>
</g>
<g>
	<g>
		<path class="st10" d="M83.4,146.4c2,2.4,3.3,5.4,4,8.4c0.4,1.9,3.4,1.1,3-0.8c-0.7-3.5-2.4-7-4.8-9.8
			C84.3,142.7,82.1,144.9,83.4,146.4L83.4,146.4z"/>
	</g>
</g>
<g>
	<g>
		<path class="st6" d="M164.5,130.9c2.3,1.6,4.7,4.4,6,7.1c0.9,1.8,3.5,0.2,2.6-1.5c-1.6-3.2-4.2-6.1-7.1-8.2
			C164.4,127.1,162.9,129.8,164.5,130.9L164.5,130.9z"/>
	</g>
</g>
<g>
	<g>
		<path class="st7" d="M148.2,131.2c2.7,1.5,5.1,3.8,6.8,6.3c1.1,1.6,3.7,0.1,2.6-1.5c-2-3-4.7-5.7-7.9-7.4
			C148.1,127.6,146.5,130.3,148.2,131.2L148.2,131.2z"/>
	</g>
</g>
<g>
	<path class="st8" d="M162.6,120.3c0,0-4.6,2.5-9.8,2.3"/>
	<g>
		<path class="st8" d="M161.9,119c-2.7,1.4-6,2.1-9,2.1c-2,0-2,3.1,0,3.1c3.6,0,7.4-0.8,10.6-2.5C165.1,120.7,163.6,118,161.9,119
			L161.9,119z"/>
	</g>
</g>
<g>
	<g>
		<path class="st9" d="M133.3,138.7c2.6-1.6,5.8-2.5,8.9-2.7c2-0.1,2-3.2,0-3.1c-3.6,0.2-7.3,1.2-10.4,3.1
			C130.1,137.1,131.6,139.7,133.3,138.7L133.3,138.7z"/>
	</g>
</g>
<g>
	<g>
		<path class="st9" d="M173.6,122c3.1-0.2,6.3,0.5,9.1,1.8c1.8,0.8,3.3-1.8,1.5-2.6c-3.3-1.5-7-2.4-10.7-2.2
			C171.7,119,171.6,122.1,173.6,122L173.6,122z"/>
	</g>
</g>
<g>
	<g>
		<path class="st6" d="M137.2,151.9c3.1-0.2,6.3,0.5,9.1,1.8c1.8,0.8,3.3-1.8,1.5-2.6c-3.3-1.5-7-2.4-10.7-2.2
			C135.3,148.9,135.3,152,137.2,151.9L137.2,151.9z"/>
	</g>
</g>
<g>
	<g>
		<path class="st10" d="M163.2,152.9c-0.9-3-1.1-6.2-0.5-9.3c0.4-1.9-2.6-2.8-3-0.8c-0.7,3.6-0.6,7.4,0.5,10.9
			C160.9,155.6,163.8,154.8,163.2,152.9L163.2,152.9z"/>
	</g>
</g>
<g>
	<g>
		<path class="st10" d="M136.8,123.5c2.3-2.8,4-6.2,4.8-9.8c0.4-1.9-2.5-2.7-3-0.8c-0.6,3-2,6-4,8.4
			C133.3,122.8,135.5,125,136.8,123.5L136.8,123.5z"/>
	</g>
</g>
</svg>
