<?xml version="1.0" encoding="utf-8"?>
<!-- Generator: Adobe Illustrator 18.1.1, SVG Export Plug-In . SVG Version: 6.00 Build 0)  -->
<!DOCTYPE svg PUBLIC "-//W3C//DTD SVG 1.1//EN" "http://www.w3.org/Graphics/SVG/1.1/DTD/svg11.dtd">
<svg version="1.1" id="Layer_1" xmlns="http://www.w3.org/2000/svg" xmlns:xlink="http://www.w3.org/1999/xlink" x="0px" y="0px"
	 viewBox="617.8 0 503.6 864" style="enable-background:new 617.8 0 503.6 864;" xml:space="preserve">
<style type="text/css">
	.st0{fill:#FCCEBD;}
	.st1{fill:#FFFFFF;}
	.st2{fill:#7BD3F7;}
	.st3{fill:#2BB673;}
	.st4{fill:#A47AB6;}
	.st5{fill:#FFE584;}
	.st6{fill:#F594A0;}
</style>
<g>
	<path class="st0" d="M873.2,809L873.2,809c-11.9,0-21.3-9.7-21.3-21.3V408.3c0-11.9,9.7-21.3,21.3-21.3l0,0
		c11.9,0,21.3,9.7,21.3,21.3v379.3C894.5,799.3,885.1,809,873.2,809z"/>
	<circle class="st1" cx="868" cy="248.9" r="190.2"/>
	<path class="st2" d="M792.1,79.3c0,0,88-3.5,115.8,64c0,0,27.8,9.7,34,14.4c0,0,2-51.6-50.6-89C891.5,68.7,849.6,56.3,792.1,79.3z"
		/>
	<path class="st3" d="M712.8,150c0,0,68.2-48.8,132.4-6.7c0,0,29.3-7.9,37.4-7.7c0,0-29.5-45.6-96.4-47.4
		C786.2,88.5,747.5,96.4,712.8,150z"/>
	<path class="st4" d="M680,271.2c0,0,26-86.5,107.6-90.5c0,0,20.8-25.8,28-30.5c0,0-53.6-21.6-113.1,19.8
		C702.9,170.1,677.8,201.6,680,271.2z"/>
	<path class="st5" d="M757.1,371.6c0,0-39.4-65.5,9.4-131.1c0,0,1.7-33,4.7-41.4c0,0-50.6,9.2-78.8,94.5
		C692.4,293.8,686.7,337.2,757.1,371.6z"/>
	<path class="st6" d="M840.2,388.5c0,0-54.5-30.7-42.4-78.8c0,0-20.3-5.7-26.5-38.2c0,0-23.3,32,3.5,111.1
		C774.7,382.3,799,399.6,840.2,388.5z"/>
	<path class="st2" d="M928.7,363.2c0,0-56.3,8.4-80.1-31.5c0,0-25.8-1.5-33-6.4c0,0,6,40.2,51.3,61.7
		C867,386.8,898.7,383.5,928.7,363.2z"/>
	<path class="st3" d="M974.1,285.4c0,0-39.4,50.3-83.3,35.7c0,0-18.1,8.4-26.8,9.4c0,0,30,33.5,78.1,19.8
		C942.1,350.6,964.7,340.4,974.1,285.4z"/>
	<path class="st4" d="M965.9,193.6c0,0-2.7,65.2-41.9,81.3c0,0,1,18.8-5,25.3c0,0,29,7.2,56.8-34
		C976.1,266.3,987.2,243.7,965.9,193.6z"/>
	<path class="st5" d="M893.8,144.5c0,0,43.1,39.9,21.8,84.5c0,0,6.7,21.6,6.7,31.2c0,0,37.2-31,27.5-89
		C949.8,171.3,936.1,154.5,893.8,144.5z"/>
	<path class="st6" d="M811.9,161.9c0,0,55,4.2,70.7,43.6c0,0,13.1-3.2,26.5,19.6c0,0,1.5-50.6-43.9-86.3
		C865.5,139.1,841.4,139.1,811.9,161.9z"/>
	<path class="st2" d="M770.8,241.5c0,0,21.6-45.9,82.3-25.8c0,0,4-7.7,13.9-8.9c0,0-30-39.4-87-23.6
		C780,183.2,767.1,202.3,770.8,241.5z"/>
	<path class="st3" d="M797.8,309.7c0,0-11.2-47.6,41.9-75.4c0,0-3.2-6.7,2-13.6c0,0-46.4-3.5-70.7,45.9
		C771.3,266.3,770,284.6,797.8,309.7z"/>
	<path class="st4" d="M862.8,327.3c0,0-37.9-18.3-18.6-74.6c0,0-6.4-1.2-7.2-9.2c0,0-34.5,33.2-20.1,79.6
		C816.9,323,827.6,334.2,862.8,327.3z"/>
	<path class="st5" d="M916.6,302.2c0,0-37.4,6.7-57-35.2c0,0-5.5,2.2-10.4-2c0,0-4.5,35.2,33,55.8
		C881.9,320.8,896,322.5,916.6,302.2z"/>
	<path class="st6" d="M923,241.5c0,0-12.9,32.7-48.3,27.5c0,0,4,3-1.2,4.7c0,0,14.4,20.1,45.6,4C919,277.4,928.7,265.3,923,241.5z"
		/>
	<path class="st2" d="M881.4,207c0,0,21.6,24,0.7,51.1c0,0,4.5-2,3.2,3c0,0,23.6-3.5,24.3-35.7C909.6,225.1,903.9,212,881.4,207z"/>
	<path class="st3" d="M839.7,234c0,0,24-14.4,41.7,17.4c0,0-0.5-6,3.2-2.7c0,0,2-24.3-23.8-38.7C860.8,210.2,848.6,208.5,839.7,234z
		"/>
	<path class="st4" d="M853.1,265c0,0-5-15.4,28.5-11.9c0,0-1.5-3.2-1.5-2.2c0,0-23.8-18.8-41.4-3.2
		C838.5,247.7,834.5,252.9,853.1,265z"/>
	<path class="st6" d="M923,74.9c0,0,42.6,27,36.4,107.3c0,0,19.1,35.5,20.8,43.1c0,0,17.9-56.5,9.7-110.3
		C989.9,114.8,981.5,94.7,923,74.9z"/>
	<path class="st5" d="M1008.8,131.6c0,0,13.6,71.2-32,132.1c0,0,2.7,42.6-7.4,45.9c0,0,62.7-35.2,73.9-94.5
		C1043.2,215.2,1043.7,182.7,1008.8,131.6z"/>
	<path class="st4" d="M1048.5,247.4c0,0-11.2,57.8-83.3,82.1c0,0-39.9,45.1-50.1,41.9c0,0,74.4-4.2,117.3-46.4
		C1032.1,325,1048.2,309.4,1048.5,247.4z"/>
	<path class="st3" d="M1020.9,353.5c0,0-51.6,39.9-126.7,28.8c0,0-28.5,11.4-41.2,10.7c0,0,57.5,24,116.3,10.7
		C969.4,403.6,989.2,394.9,1020.9,353.5z"/>
	<path class="st2" d="M940.9,417.5c0,0-72.9,10.7-128.9-26.3c0,0-26.5-3.2-37.4-8.9c0,0,30.7,39.9,88.5,52.6
		C863.3,434.9,897,436.8,940.9,417.5z"/>
	<g>
		<path class="st1" d="M1053.9,170.8c-5.7-22.1-16.1-41.9-31.7-58.8c-13.4-14.6-29.8-25.5-47.8-33.7c-31-14.1-63.7-21.3-97.7-23.1
			c-26.5-1.2-52.3,2.2-77.6,11.9c-15.9,6.2-30.5,14.1-43.9,24.5c-11.4,8.7-21.6,18.6-31,29.3c-17.9,20.6-32,42.9-40.4,69.2
			c-9.2,28.3-10.4,56.8-5.5,85.8c4,23.1,10.2,45.4,21.1,66.4c7.2,14.1,15.6,27.5,26.3,39.2c12.1,13.4,26.3,24.5,42.4,33
			c14.4,7.7,29.8,13.9,45.6,17.6c9.2,2.2,18.3,4.2,27.3,6.2c3,0.7,19.8,3,22.6,3c6.9-0.2,20.8-2,25.3-2.5c0.5-0.7,1.2-0.5,2.7-0.5
			c4.7,0.2,9.7,0.7,14.4,0c13.9-1.7,27.3-6.2,40.2-11.9c13.9-6.4,27.8-13.4,41.2-20.6c16.9-9.2,30-22.6,40.4-38.7
			c10.7-16.4,17.6-34.5,22.6-53.3c7.2-27.3,9.7-55.3,10.7-83.3C1061.1,210.5,1059.1,190.4,1053.9,170.8z M1044.7,254.9
			c-1,12.4-3,24.8-5.2,37.2c-1.5,8.2-3.7,16.6-6.7,24.3c-3.7,9.4-7.9,18.6-12.9,27.5c-8.4,15.6-20.6,28.3-33.7,40.2
			c-9.7,8.7-19.6,17.4-31.2,23.6c-15.4,8.4-31.2,15.9-48.8,19.1c-14.9,3-29.8,6.2-45.1,5c-1.2,0-2.7,0-4-0.5
			c-14.1-3.2-28.5-5.5-41.9-10.4c-13.1-5-25.5-12.1-37.4-19.3c-12.6-7.7-24.3-16.9-36.4-25.5c-0.7-0.5-1.2-1.7-2-2.7
			c1,0.2,2.5,0,3.2,0.5c13.9,9.7,30,13.9,45.9,18.3c11.9,3.2,24.3,5.2,37.2,4.5c8.9-0.5,18.1,0,27-0.2c16.9,0,33.2-1.5,48.8-8.7
			c10.4-5,21.1-8.9,31.2-14.4c6.4-3.5,11.7-9.2,17.1-14.1c6.4-6,12.6-12.1,18.8-18.3c1-1,1.7-2,2.5-3.2c2.5-4.7,4.2-9.4,6.9-13.9
			c7.7-12.9,8.2-27.5,10.4-41.7c1.5-9.9,2.7-19.8,2.7-29.8c0.2-17.6-2.5-34.7-10.2-50.8c-3.2-7.2-6-14.6-8.7-22.1
			c-5.5-14.1-14.9-25-28.3-32.2c-5.2-2.7-10.4-5.5-15.6-8.4c-7.2-4-15.6-3.5-23.3-4.7c-19.6-3.7-39.7-3.5-59,0.2
			c-13.4,2.7-26.5,6.9-38.4,15.6c-11.7,8.7-21.3,18.8-29.3,30.7c-4.5,6.7-7.7,14.6-9.2,22.6c-2.7,13.6-3.7,27.5-5.5,41.2
			c-1.2,8.7,1.7,17.1,3,25.5c1,6,2.2,12.1,3.7,17.9c2.7,10.7,9.9,18.3,17.1,26c8.7,8.9,20.1,12.6,30.5,18.1c6.7,3.5,13.9,3,20.8,4.5
			c8.9,1.7,17.6,1.2,26.5,1c11.4-0.5,22.6-2.5,33-7.2c11.9-5.5,20.3-14.6,26.5-26c2-3.5,3.5-7.2,5-10.9c6.9-18.8,6.4-37.4-2.2-55.5
			c-5.7-11.7-13.6-21.8-24-30c-4.7-3.7-8.4-8.9-14.9-9.4c-6.7-0.2-14.1-1.2-20.1,1.2c-7.2,3-13.1,8.9-19.3,14.1
			c-7.2,6.2-11.9,13.9-14.6,23.1c-0.5,1.5-1,3.2-0.5,4.2c2.5,5.5,2.7,11.7,7.2,16.4c7.2,7.4,13.9,15.1,23.1,20.1
			c2.7,1.5,6,2.7,9.2,3.2c2,0.2,4.5-0.2,6.4-1.2c8.4-4.7,13.6-12.1,17.1-20.8c0.7-1.7,1-3.5,2-5c1.7-3.5,1-6.2-1.7-8.9
			s-6-3.7-9.4-2.2c-10.9,5-10.2,0.7-6.9,12.6c1.5,6,1.2,6.4-4.7,7.9c-11.9,2.7-25-6.2-24.8-21.6c0-5,0.5-10.4,2-14.9
			c1.5-4,4.2-8.2,7.4-10.9c5.2-4.2,11.2-8.2,18.3-6.4c8.2,2,17.1,4,24,8.4c10.9,6.9,16.1,18.3,17.4,31.2c0.2,3.7,1.2,7.4,1.7,10.9
			c1.7,15.1-2.7,28.3-13.4,39.4c-7.2,7.4-16.6,10.9-26,13.9c-7.9,2.7-15.9,5.5-24,6.4c-13.1,2-26.3,1.7-38.2-5.2
			c-0.7-0.2-1.2-0.7-2-1c-14.1-3.7-19.1-16.1-25-26.8c-6.2-11.2-11.9-23.1-15.1-35.2c-4.5-16.6-2.2-33.2,6.2-48.6
			c5-8.9,9.9-18.1,15.9-26.3c3.5-5,8.7-8.4,13.4-12.4c2.2-2,4.2-4.5,6.7-5.7c5.5-3,11.2-5.7,16.9-7.7c6.2-2.2,12.6-4.2,19.3-5.7
			c2.7-0.7,6-0.5,8.9-0.5c7.9,0,16.1,0,24,0.2c1.5,0,3,0.5,4.2,1c18.3,8.7,36.9,17.6,55.3,26.3c1.5,0.7,3,1.7,4,3
			c4.2,6.4,5,11.2,8.9,17.9c7.2,11.9,12.6,27,13.1,40.7c0.5,11.7,0.7,23.6,0,35.5c-0.7,9.7-3.5,19.3-4.7,29
			c-1.2,9.2-6.7,16.1-11.2,23.6c-6.2,10.4-13.4,20.3-20.6,30.2c-6,7.9-14.1,12.9-23.3,16.6c-10.9,4.2-21.6,8.9-32.5,12.6
			c-14.6,5.2-29.8,7.4-45.1,6.9c-7.2-0.2-14.4,1-21.3-0.2c-11.2-2-22.3-5.2-33.2-8.4c-4.7-1.5-8.7-4.5-12.9-6.7
			c-7.9-4.2-16.1-8.4-24.3-12.1c-9.7-4.7-16.4-12.6-24-19.8c-8.2-7.4-11.4-17.6-16.9-26.5c-1-1.7-0.7-4-1.2-6
			c-1.2-6.2-2-12.6-4-18.6c-6-17.1-7.4-34.7-5-52.8c2-14.6,4-29.3,6-43.6c0.2-1.5,0.5-3.2,1.2-4.7c5.7-11.4,10.4-23.3,17.1-34.2
			c5.7-8.9,13.9-16.4,19.8-25.3c6.4-9.7,16.4-15.1,25.3-21.8c8.2-6,16.9-11.4,25.8-16.1c6.7-3.5,14.4-5.7,21.6-8.2
			c17.6-6,35.9-5,58-5c10.2-0.5,24,1.2,38.2,3c18.1,2.5,35.2,7.9,52.1,15.1c18.6,7.9,34.7,19.3,48.8,33.5c4,4,7.2,8.9,9.9,13.6
			c4.2,7.2,7.9,14.4,11.2,21.8c2.7,6.4,5.2,13.4,6.9,20.3c3,12.1,6.2,24.3,7.9,36.7C1046,233,1045.5,244,1044.7,254.9z"/>
	</g>
</g>
</svg>
