<?xml version="1.0" encoding="utf-8"?>
<!-- Generator: Adobe Illustrator 18.1.1, SVG Export Plug-In . SVG Version: 6.00 Build 0)  -->
<!DOCTYPE svg PUBLIC "-//W3C//DTD SVG 1.1//EN" "http://www.w3.org/Graphics/SVG/1.1/DTD/svg11.dtd">
<svg version="1.1" id="Layer_1" xmlns="http://www.w3.org/2000/svg" xmlns:xlink="http://www.w3.org/1999/xlink" x="0px" y="0px"
	 viewBox="0 0 200 200" style="enable-background:new 0 0 200 200;" xml:space="preserve">
<style type="text/css">
	.st0{fill:#FCCEBD;}
	.st1{fill:#FFFFFF;}
	.st2{fill:#7BD3F7;}
	.st3{fill:#2BB673;}
	.st4{fill:#A47AB6;}
	.st5{fill:#FFE584;}
	.st6{fill:#F594A0;}
</style>
<g>
	<path class="st0" d="M145.7,189L145.7,189c-2.7,0.9-5.7-0.5-6.7-3.2l-30.5-88.2c-0.9-2.7,0.5-5.7,3.2-6.7h0
		c2.7-0.9,5.7,0.5,6.7,3.2l30.5,88.2C149.9,185.1,148.4,188,145.7,189z"/>
	<circle class="st1" cx="99.4" cy="59.2" r="46.8"/>
	<path class="st2" d="M68.1,25.8c0,0,20.2-7.9,32.1,5.6c0,0,7.2,0,9.1,0.6c0,0-3.7-12.1-18.9-16.6C90.3,15.4,79.6,15.9,68.1,25.8z"
		/>
	<path class="st3" d="M55.4,48.7c0,0,11.9-16.8,30.3-12.2c0,0,6.2-4.2,8.1-4.8c0,0-10.6-8.3-26.2-3.2C67.5,28.5,59.1,33.4,55.4,48.7
		z"/>
	<path class="st4" d="M57.5,79.5c0,0-0.9-22.2,17.8-29.7c0,0,2.8-7.7,4.1-9.4c0,0-14.2-0.7-24.7,13.7C54.6,54.1,51.4,63.5,57.5,79.5
		z"/>
	<path class="st5" d="M83.5,96.7c0,0-14.4-12-8.4-31.3c0,0-2.3-7.8-2.2-10c0,0-11,6.2-10.8,28.3C62.1,83.7,64.4,94.3,83.5,96.7z"/>
	<path class="st6" d="M104.1,93.9c0,0-15.2-2.8-16.2-14.9c0,0-5.2,0.3-9.2-6.8c0,0-2.9,9.3,9.7,25.5C88.4,97.7,95.5,99.8,104.1,93.9
		z"/>
	<path class="st2" d="M122.7,80.9c0,0-12.4,6.5-21.1-0.9c0,0-6.1,1.7-8.2,1.1c0,0,4.7,8.9,16.9,10.2C110.3,91.4,117.4,88,122.7,80.9
		z"/>
	<path class="st3" d="M127,59.1c0,0-5.1,14.9-16.5,15c0,0-3.5,3.4-5.5,4.4c0,0,9.6,5.4,19.7-1.6C124.8,76.9,129.3,72.7,127,59.1z"/>
	<path class="st4" d="M117.7,38.4c0,0,4.6,15.4-3.2,22.3c0,0,1.7,4.3,0.9,6.3c0,0,7.3-0.6,10.5-12.5
		C125.9,54.5,126.7,48.4,117.7,38.4z"/>
	<path class="st5" d="M97,32.9c0,0,13.3,5.8,11.9,17.9c0,0,3.3,4.5,4.1,6.7c0,0,6.1-10.2-0.8-22.9C112.1,34.6,107.6,31.7,97,32.9z"
		/>
	<path class="st6" d="M79.4,43.5c0,0,13.2-3.4,20,4.5c0,0,2.8-1.8,7.8,2.4c0,0-3.7-11.9-17.1-16.5C90,33.9,84.4,35.8,79.4,43.5z"/>
	<path class="st2" d="M76.1,65.3c0,0,1.3-12.4,17.1-12.6c0,0,0.3-2.1,2.5-3.2c0,0-10.1-6.7-22.1,1.5C73.6,51,72.2,56.5,76.1,65.3z"
		/>
	<path class="st3" d="M87.9,78.9c0,0-6.4-10.2,3.7-20.9c0,0-1.3-1.3-0.6-3.3c0,0-11,2.9-12.7,16.3C78.3,71,79.5,75.4,87.9,78.9z"/>
	<path class="st4" d="M104.5,77.8c0,0-10.3-1.2-10.3-15.9c0,0-1.6,0.2-2.4-1.6c0,0-5.3,10.5,1.7,20.1
		C93.5,80.5,96.9,82.3,104.5,77.8z"/>
	<path class="st5" d="M115,67.7c0,0-8.2,4.6-16.1-3.6c0,0-1.1,1-2.6,0.4c0,0,1.8,8.6,12.1,10.3C108.4,74.8,111.8,74,115,67.7z"/>
	<path class="st6" d="M111.6,53c0,0-0.3,8.7-9,10.3c0,0,1.2,0.4,0.1,1.2c0,0,5,3.5,10.9-2.7C113.5,61.8,114.8,58.1,111.6,53z"/>
	<path class="st2" d="M99.1,48.4c0,0,6.9,3.8,4.3,11.8c0,0,0.9-0.8,1,0.4c0,0,5.2-2.7,2.8-10.3C107.2,50.3,104.8,47.7,99.1,48.4z"/>
	<path class="st3" d="M91.6,58c0,0,4.5-5.3,11.1,0.7c0,0-0.6-1.4,0.5-0.9c0,0-1.5-5.8-8.7-7.1C94.6,50.8,91.6,51.4,91.6,58z"/>
	<path class="st4" d="M97.2,64.2c0,0-2.4-3.2,5.7-5c0,0-0.6-0.6-0.5-0.4c0,0-7.1-2.4-9.9,2.6C92.4,61.3,91.9,62.8,97.2,64.2z"/>
	<path class="st6" d="M98.2,14.3c0,0,12.1,2.9,17.1,22c0,0,7.3,6.7,8.3,8.3c0,0-0.4-14.6-6.6-26.5C117,18.2,113.4,14.2,98.2,14.3z"
		/>
	<path class="st5" d="M122.7,20.6c0,0,8.9,15.5,3.2,33.3c0,0,4.1,9.7,1.9,11.2c0,0,11.8-13.3,9.6-27.9
		C137.4,37.2,134.9,29.6,122.7,20.6z"/>
	<path class="st4" d="M141.2,44.3c0,0,2.1,14.3-12.8,25.8c0,0-5.7,13.7-8.3,13.8c0,0,17-6.9,23.5-20.2
		C143.7,63.7,146.2,58.7,141.2,44.3z"/>
	<path class="st3" d="M143.4,71.2c0,0-8.8,13.4-27.1,16.9c0,0-5.7,4.9-8.7,5.8c0,0,15.3,1,27.9-6.9C135.4,87,139.3,83.4,143.4,71.2z
		"/>
	<path class="st2" d="M129.9,92.5c0,0-16.1,8.3-32.1,4.2c0,0-6.4,1.4-9.4,0.9c0,0,10.3,6.8,24.8,5.1
		C113.2,102.8,121.2,100.6,129.9,92.5z"/>
	<g>
		<path class="st1" d="M136.3,26.1c-3.1-4.7-7.1-8.4-12.1-11.1c-4.3-2.3-9-3.6-13.8-4c-8.3-0.8-16.5,0.2-24.5,2.5
			c-6.3,1.8-12,4.7-17.1,9c-3.2,2.7-5.9,5.8-8.2,9.2c-2,2.9-3.5,6-4.9,9.3c-2.5,6.2-4,12.6-3.9,19.3c0.1,7.3,2.1,14.1,5.6,20.4
			c2.8,5.1,6,9.7,10.2,13.8c2.8,2.7,5.8,5.1,9.2,7c3.9,2.1,8.1,3.6,12.5,4.3c4,0.6,8,0.8,12,0.4c2.3-0.2,4.6-0.5,6.9-0.8
			c0.7-0.1,4.9-0.9,5.5-1.1c1.6-0.6,4.7-2.2,5.7-2.6c0-0.2,0.2-0.2,0.6-0.3c1.1-0.3,2.3-0.6,3.3-1.1c3.1-1.5,5.9-3.6,8.4-6
			c2.7-2.6,5.4-5.3,7.9-8.1c3.2-3.5,5.2-7.7,6.3-12.3c1.2-4.7,1.3-9.4,1-14.2c-0.5-6.9-2.2-13.6-4.2-20.3
			C141.2,34.7,139.1,30.2,136.3,26.1z M140.9,46.3c0.8,3,1.3,6,1.8,9c0.3,2,0.5,4.1,0.4,6.2c-0.1,2.5-0.4,5-0.8,7.4
			c-0.7,4.3-2.5,8.2-4.6,12c-1.6,2.8-3.2,5.6-5.4,8c-2.9,3.2-6,6.2-9.8,8.4c-3.2,1.9-6.4,3.9-10.1,4.8c-0.3,0.1-0.6,0.2-1,0.2
			c-3.5,0.4-7.1,1.1-10.6,1c-3.4-0.1-6.9-0.7-10.3-1.5c-3.6-0.8-7-2-10.5-3c-0.2-0.1-0.4-0.3-0.6-0.5c0.3,0,0.6-0.2,0.8-0.1
			c4,1.1,8.1,0.8,12.1,0.6c3-0.2,6.1-0.7,9-1.9c2-0.9,4.2-1.5,6.3-2.2c3.9-1.4,7.6-3,10.7-6c2-2,4.2-3.8,6.1-5.9
			c1.2-1.3,1.9-3.1,2.8-4.7c1-1.9,1.9-3.8,2.9-5.8c0.1-0.3,0.3-0.6,0.3-0.9c0.2-1.3,0.2-2.6,0.5-3.8c0.7-3.6-0.3-7.1-0.9-10.5
			c-0.4-2.4-1-4.8-1.7-7.2c-1.4-4.1-3.4-7.9-6.4-11c-1.4-1.4-2.6-2.9-3.8-4.4c-2.4-2.9-5.5-4.6-9.2-5.2c-1.4-0.2-2.9-0.5-4.3-0.7
			c-2-0.3-3.9,0.5-5.8,0.8c-4.9,0.7-9.5,2.4-13.7,4.8c-2.9,1.7-5.6,3.7-7.7,6.7c-2,3-3.5,6.1-4.3,9.5c-0.5,1.9-0.6,4-0.3,6
			c0.5,3.4,1.4,6.7,2.1,10c0.4,2.1,1.8,3.8,2.7,5.7c0.7,1.3,1.5,2.6,2.3,3.9c1.5,2.2,3.8,3.5,6.1,4.7c2.7,1.4,5.7,1.3,8.5,1.7
			c1.8,0.3,3.5-0.4,5.2-0.7c2.2-0.3,4.2-1.1,6.3-1.9c2.6-1,5-2.4,7.1-4.3c2.3-2.2,3.5-5.1,4.1-8.2c0.2-1,0.2-2,0.3-3
			c0.1-4.9-1.5-9.2-5-12.7c-2.3-2.3-4.9-4-8-5c-1.4-0.5-2.7-1.4-4.2-1c-1.6,0.5-3.4,0.9-4.6,1.9c-1.4,1.3-2.4,3.1-3.3,4.8
			c-1.2,2-1.7,4.2-1.5,6.5c0,0.4,0,0.8,0.2,1c1,1.1,1.6,2.5,3,3.2c2.3,1.1,4.4,2.4,7,2.8c0.8,0.1,1.6,0.1,2.4,0
			c0.5-0.1,1-0.4,1.4-0.8c1.6-1.8,2.2-3.9,2.3-6.2c0-0.4,0-0.9,0-1.3c0.2-1-0.3-1.5-1.1-1.9c-0.8-0.4-1.7-0.4-2.3,0.3
			c-2.1,2-2.3,1-0.6,3.5c0.9,1.3,0.8,1.4-0.4,2.2c-2.6,1.6-6.3,0.6-7.5-3c-0.4-1.2-0.7-2.4-0.7-3.7c0-1.1,0.3-2.2,0.9-3.1
			c0.9-1.4,2-2.8,3.7-3c2.1-0.2,4.3-0.5,6.3,0c3.1,0.8,5.2,3,6.6,5.9c0.4,0.8,0.9,1.6,1.3,2.4c1.7,3.4,1.7,6.8,0.1,10.2
			c-1.1,2.3-3,3.9-4.9,5.4c-1.6,1.2-3.3,2.5-5.1,3.5c-2.9,1.5-5.9,2.5-9.3,1.9c-0.2,0-0.4-0.1-0.5-0.1c-3.6,0.3-5.7-2.2-8-4.2
			c-2.3-2.1-4.6-4.4-6.4-7c-2.4-3.5-3.2-7.5-2.5-11.8c0.4-2.5,0.9-5,1.6-7.4c0.4-1.4,1.4-2.6,2.1-4c0.4-0.6,0.6-1.4,1.1-1.9
			c1-1.1,2.1-2.2,3.3-3.2c1.3-1,2.6-2,4-2.9c0.6-0.4,1.3-0.6,2-0.8c1.9-0.7,3.7-1.3,5.6-1.9c0.3-0.1,0.7-0.1,1.1-0.1
			c5,0.5,10,1.1,15,1.7c0.4,0,0.8,0.1,1.1,0.4c1.5,1.2,2,2.2,3.5,3.4c2.6,2.2,5.1,5.3,6.4,8.4c1,2.7,2.1,5.4,2.8,8.2
			c0.6,2.3,0.7,4.8,1.2,7.1c0.5,2.2-0.2,4.3-0.7,6.4c-0.6,2.9-1.5,5.8-2.4,8.7c-0.7,2.3-2.2,4.2-4.1,5.7c-2.2,1.9-4.3,3.8-6.5,5.6
			c-3,2.4-6.3,4.1-10,5.2c-1.7,0.5-3.3,1.4-5,1.6c-2.8,0.4-5.6,0.6-8.4,0.7c-1.2,0-2.4-0.3-3.6-0.5c-2.2-0.3-4.4-0.7-6.6-0.9
			c-2.6-0.3-4.8-1.6-7.2-2.7c-2.5-1.1-4.1-3.2-6.1-4.8c-0.4-0.3-0.5-0.9-0.8-1.3c-0.8-1.3-1.5-2.8-2.4-4c-2.8-3.5-4.5-7.5-5.4-11.9
			c-0.7-3.6-1.4-7.1-2.1-10.7c-0.1-0.4-0.2-0.8-0.1-1.2c0.4-3.1,0.6-6.3,1.2-9.3c0.6-2.6,1.9-4.9,2.6-7.5c0.8-2.8,2.6-4.8,4.1-7.1
			c1.4-2,3-4,4.7-5.8c1.3-1.4,2.9-2.5,4.4-3.6c3.6-2.8,7.9-4,13.1-5.9c2.3-0.9,5.7-1.7,9.1-2.4c4.4-0.9,8.8-1,13.3-0.7
			c5,0.3,9.6,1.7,14.1,3.9c1.2,0.6,2.4,1.5,3.4,2.4c1.5,1.3,3,2.7,4.4,4.2c1.2,1.3,2.3,2.7,3.3,4.1c1.7,2.6,3.4,5.1,4.8,7.9
			C139.5,41.2,140.3,43.8,140.9,46.3z"/>
	</g>
</g>
</svg>
