<?xml version="1.0" encoding="utf-8"?>
<!-- Generator: Adobe Illustrator 18.1.1, SVG Export Plug-In . SVG Version: 6.00 Build 0)  -->
<!DOCTYPE svg PUBLIC "-//W3C//DTD SVG 1.1//EN" "http://www.w3.org/Graphics/SVG/1.1/DTD/svg11.dtd">
<svg version="1.1" xmlns="http://www.w3.org/2000/svg" xmlns:xlink="http://www.w3.org/1999/xlink" x="0px" y="0px"
	 viewBox="0 0 200 200" style="enable-background:new 0 0 200 200;" xml:space="preserve">
<style type="text/css">
	.st0{fill:#FCCEBD;}
	.st1{fill:#F27581;}
	.st2{fill:#A47AB6;}
	.st3{fill:#2BB673;}
	.st4{fill:#7BD3F7;}
	.st5{fill:#F594A0;}
	.st6{fill:#FFE584;}
	.st7{fill:#FFFFFF;}
</style>
<g id="donut">
	<g id="body">
		<g>
			<path class="st0" d="M108.7,33.1c-48.7-7.1-92.1,15.9-97,51.3c-4.9,35.5,30.7,70,79.4,77.2c48.7,7.1,92.1-15.9,97-51.3
				C192.9,74.7,157.4,40.2,108.7,33.1z M134.7,102.1c-1.5,10.9-18.3,17.4-37.5,14.6c-19.2-2.8-33.6-13.9-32.1-24.7
				c1.5-10.9,18.3-17.4,37.5-14.6C121.8,80.1,136.2,91.2,134.7,102.1z"/>
		</g>
	</g>
	<path id="icing" class="st1" d="M183.6,81.7c-6.4-15.5-19.8-25.4-19.8-25.4c-35.4-30.2-82-24.3-82-24.3
		c-60.2,6.8-69.5,44.5-69.5,44.5s-2.9,9-0.7,14.6c0.9,2.3,3.3,3.3,5.8,3.2c0.9-0.1,2,0.6,2.6,3.8c0.2,1.2,0.3,2.4,0.2,3.6
		c-0.2,3.6-0.1,13.4,9.4,9.7c0,0,5.9-2.2,3.3,8.3c-0.3,1.2-0.4,2.4-0.1,3.5c0.5,2.3,2.2,5.3,7.8,3.1c0,0,3.4-1.8,6.2,0.1
		c1.2,0.8,1.9,2.2,2,3.7c0.6,4.8,3.3,19.8,14.2,12.6c0,0,10.3-10.1,14.6,0c0,0,6.6,21.5,18.4,3.3c0,0,4.8-8.7,12.4-1.1
		c0,0,10.8,19.5,14.7,2.7c0,0,2.2-12.4,13.4-3.9c0,0,17,15.1,14.6-9.9c0,0,0-10.3,9.6-5.3c0,0,11.4,8.9,12.8-5.8
		c0,0,0.1-10.8,5.3-8.9c0,0,11.2,3.8,9.2-16.5C188.1,97.4,186.4,87.6,183.6,81.7z M98.4,115.7c0,0-38.9-5.7-32.9-33.4
		c0.5-1.7,1-2.7,1.8-2.4c5.8,1.8,6.7-2.9,6.7-2.9c0.8-9,9.8-3.8,9.8-3.8c9.7,4.1,13.8-4.6,13.8-4.6c5.4-4.9,8.8,2.8,8.8,2.8
		c3.6,7.1,12.3,3.4,12.3,3.4c7.7-2.2,8.6,4.7,8.6,4.7c0,11.2,7.1,5.5,7.1,5.5c2.8-1,3.8,2.6,3.6,6.7c-0.5,11.3-4.7,14.4-4.7,14.4
		S123.3,118.4,98.4,115.7z"/>
	<g>
		<g>
			<path class="st2" d="M51.8,67.8c-2.4,0.4-5,0.1-7.3-0.6c-1.5-0.5-2.1,1.9-0.6,2.3c2.8,0.9,5.8,1.1,8.6,0.6
				C54,69.9,53.4,67.5,51.8,67.8L51.8,67.8z"/>
		</g>
	</g>
	<g>
		<g>
			<path class="st3" d="M60.9,58.5c-2.4,0.7-5,0.7-7.4,0.2c-1.5-0.3-2.2,2-0.6,2.3c2.8,0.6,5.9,0.6,8.7-0.2
				C63,60.4,62.4,58.1,60.9,58.5L60.9,58.5z"/>
		</g>
	</g>
	<g>
		<path class="st4" d="M58.9,72.7c0,0,1.2-4,4.2-6.8"/>
		<g>
			<path class="st4" d="M60,73c0.7-2.3,2.2-4.6,3.9-6.3c1.1-1.1-0.6-2.8-1.7-1.7c-2.1,2-3.7,4.6-4.5,7.3C57.2,73.9,59.6,74.5,60,73
				L60,73z"/>
		</g>
	</g>
	<g>
		<g>
			<path class="st5" d="M65.1,45.9c-0.6,2.4-1.9,4.7-3.5,6.5c-1.1,1.2,0.7,2.9,1.7,1.7c1.9-2.1,3.4-4.8,4.1-7.6
				C67.8,45,65.5,44.4,65.1,45.9L65.1,45.9z"/>
		</g>
	</g>
	<g>
		<g>
			<path class="st5" d="M78,42.9c-0.6,2.4-1.9,4.7-3.5,6.5c-1.1,1.2,0.7,2.9,1.7,1.7c1.9-2.1,3.4-4.8,4.1-7.6
				C80.7,42,78.4,41.3,78,42.9L78,42.9z"/>
		</g>
	</g>
	<g>
		<g>
			<path class="st5" d="M40.8,61.2c-1.7,1.8-3.9,3.3-6.2,4.1c-1.5,0.5-0.8,2.9,0.6,2.3c2.7-1,5.3-2.6,7.2-4.7
				C43.5,61.8,41.8,60.1,40.8,61.2L40.8,61.2z"/>
		</g>
	</g>
	<g>
		<g>
			<path class="st5" d="M33.7,97.7c-1.7,1.8-3.9,3.3-6.2,4.1c-1.5,0.5-0.8,2.9,0.6,2.3c2.7-1,5.3-2.6,7.2-4.7
				C36.5,98.2,34.7,96.5,33.7,97.7L33.7,97.7z"/>
		</g>
	</g>
	<g>
		<g>
			<path class="st2" d="M57.1,45.6c-1.7,1.8-3.9,3.3-6.2,4.1c-1.5,0.5-0.8,2.9,0.6,2.3c2.7-1,5.3-2.6,7.2-4.7
				C59.9,46.1,58.2,44.4,57.1,45.6L57.1,45.6z"/>
		</g>
	</g>
	<g>
		<g>
			<path class="st6" d="M40.3,54.6c2.2,1.2,4.1,2.9,5.5,5c0.9,1.3,3,0.1,2.1-1.2c-1.6-2.4-3.8-4.5-6.3-5.9
				C40.1,51.8,38.9,53.9,40.3,54.6L40.3,54.6z"/>
		</g>
	</g>
	<g>
		<g>
			<path class="st6" d="M68.7,56.7c0.2,2.9,1.2,5.8,2.8,8.2c0.8,1.3,3,0.1,2.1-1.2c-1.3-2.1-2.3-4.5-2.4-7
				C71,55.2,68.6,55.1,68.7,56.7L68.7,56.7z"/>
		</g>
	</g>
	<g>
		<g>
			<path class="st3" d="M88.9,55.4c-2.4,0.7-5,0.7-7.4,0.2c-1.5-0.3-2.2,2-0.6,2.3c2.8,0.6,5.9,0.6,8.7-0.2
				C91.1,57.3,90.4,54.9,88.9,55.4L88.9,55.4z"/>
		</g>
	</g>
	<g>
		<g>
			<path class="st3" d="M47,47.6c-2.4,0.7-5,0.7-7.4,0.2c-1.5-0.3-2.2,2-0.6,2.3c2.8,0.6,5.9,0.6,8.7-0.2
				C49.1,49.5,48.5,47.2,47,47.6L47,47.6z"/>
		</g>
	</g>
	<g>
		<g>
			<path class="st3" d="M58.3,89.7c-2.4,0.7-5,0.7-7.4,0.2c-1.5-0.3-2.2,2-0.6,2.3c2.8,0.6,5.9,0.6,8.7-0.2
				C60.4,91.6,59.8,89.3,58.3,89.7L58.3,89.7z"/>
		</g>
	</g>
	<g>
		<path class="st4" d="M86.9,69.6c0,0,1.2-4,4.2-6.8"/>
		<g>
			<path class="st4" d="M88.1,69.9c0.7-2.3,2.2-4.6,3.9-6.3c1.1-1.1-0.6-2.8-1.7-1.7c-2.1,2-3.7,4.6-4.5,7.3
				C85.3,70.7,87.6,71.4,88.1,69.9L88.1,69.9z"/>
		</g>
	</g>
	<g>
		<g>
			<path class="st6" d="M95.8,51.8c0.2,2.9,1.2,5.8,2.8,8.2c0.8,1.3,3,0.1,2.1-1.2c-1.3-2.1-2.3-4.5-2.4-7
				C98.2,50.3,95.7,50.3,95.8,51.8L95.8,51.8z"/>
		</g>
	</g>
	<g>
		<g>
			<path class="st3" d="M78.6,120.6c-2.4,0.7-5,0.7-7.4,0.2c-1.5-0.3-2.2,2-0.6,2.3c2.8,0.6,5.9,0.6,8.7-0.2
				C80.8,122.6,80.2,120.2,78.6,120.6L78.6,120.6z"/>
		</g>
	</g>
	<g>
		<path class="st4" d="M76.6,134.9c0,0,1.2-4,4.2-6.8"/>
		<g>
			<path class="st4" d="M77.8,135.2c0.7-2.3,2.2-4.6,3.9-6.3c1.1-1.1-0.6-2.8-1.7-1.7c-2.1,2-3.7,4.6-4.5,7.3
				C75,136,77.3,136.7,77.8,135.2L77.8,135.2z"/>
		</g>
	</g>
	<g>
		<g>
			<path class="st2" d="M164.4,106.8c0.6,2.4,0.6,5,0,7.4c-0.4,1.5,2,2.2,2.3,0.6c0.7-2.8,0.7-5.9,0-8.7
				C166.4,104.6,164,105.2,164.4,106.8L164.4,106.8z"/>
		</g>
	</g>
	<g>
		<g>
			<path class="st3" d="M154.4,98.5c0.9,2.4,1.2,5.1,0.8,7.6c-0.2,1.5,2.2,1.5,2.4,0c0.3-2.7,0.1-5.7-0.9-8.3
				C156.2,96.4,153.9,97.1,154.4,98.5L154.4,98.5z"/>
		</g>
	</g>
	<g>
		<g>
			<path class="st3" d="M159,75.4c0.9,2.4,1.2,5.1,0.8,7.6c-0.2,1.5,2.2,1.5,2.4,0c0.3-2.7,0.1-5.7-0.9-8.3
				C160.8,73.3,158.4,73.9,159,75.4L159,75.4z"/>
		</g>
	</g>
	<g>
		<g>
			<path class="st3" d="M144.4,65.6c0.9,2.4,1.2,5.1,0.8,7.6c-0.2,1.5,2.2,1.5,2.4,0c0.3-2.7,0.1-5.7-0.9-8.3
				C146.2,63.5,143.8,64.2,144.4,65.6L144.4,65.6z"/>
		</g>
	</g>
	<g>
		<path class="st4" d="M168.8,99.5c0,0-4-0.9-7.1-3.7"/>
		<g>
			<path class="st4" d="M169.1,98.3c-2.4-0.5-4.7-1.7-6.6-3.4c-1.2-1-2.9,0.7-1.7,1.7c2.2,1.9,4.9,3.3,7.7,4
				C170,101,170.7,98.6,169.1,98.3L169.1,98.3z"/>
		</g>
	</g>
	<g>
		<path class="st4" d="M146.3,82.5c0,0-4-0.9-7.1-3.7"/>
		<g>
			<path class="st4" d="M146.6,81.3c-2.4-0.5-4.7-1.7-6.6-3.4c-1.2-1-2.9,0.7-1.7,1.7c2.2,1.9,4.9,3.3,7.7,4
				C147.5,84,148.1,81.7,146.6,81.3L146.6,81.3z"/>
		</g>
	</g>
	<g>
		<g>
			<path class="st5" d="M159,118.6c-0.5-0.4,0.2,0.2,0.4,0.3c0.4,0.4,0.8,0.8,1.2,1.2c1.2,1.3,2.2,2.7,2.9,4.3
				c0.6,1.4,2.7,0.2,2.1-1.2c-1.2-2.6-3.1-5-5.4-6.8C159,115.5,157.8,117.6,159,118.6L159,118.6z"/>
		</g>
	</g>
	<g>
		<g>
			<path class="st5" d="M177.4,82.3c-0.5-0.4,0.2,0.2,0.4,0.3c0.4,0.4,0.8,0.8,1.2,1.2c1.2,1.3,2.2,2.7,2.9,4.3
				c0.6,1.4,2.7,0.2,2.1-1.2c-1.2-2.6-3.1-5-5.4-6.8C177.4,79.3,176.2,81.4,177.4,82.3L177.4,82.3z"/>
		</g>
	</g>
	<g>
		<g>
			<path class="st5" d="M81.8,141.6c-0.5-0.4,0.2,0.2,0.4,0.3c0.4,0.4,0.8,0.8,1.2,1.2c1.2,1.3,2.2,2.7,2.9,4.3
				c0.6,1.4,2.7,0.2,2.1-1.2c-1.2-2.6-3.1-5-5.4-6.8C81.8,138.6,80.6,140.7,81.8,141.6L81.8,141.6z"/>
		</g>
	</g>
	<g>
		<g>
			<path class="st2" d="M142.1,103.5c-0.5-0.4,0.2,0.2,0.4,0.3c0.4,0.4,0.8,0.8,1.2,1.2c1.2,1.3,2.2,2.7,2.9,4.3
				c0.6,1.4,2.7,0.2,2.1-1.2c-1.2-2.6-3.1-5-5.4-6.8C142.1,100.4,140.9,102.6,142.1,103.5L142.1,103.5z"/>
		</g>
	</g>
	<g>
		<g>
			<path class="st6" d="M150.6,92c2.7-0.4,5.4-1.7,7.6-3.4c1.2-0.9,0-3.1-1.2-2.1c-2,1.6-4.5,2.7-7,3.1
				C148.4,89.9,149.1,92.2,150.6,92L150.6,92z"/>
		</g>
	</g>
	<g>
		<g>
			<path class="st2" d="M133.4,52c2.4,0.6,4.7,1.9,6.5,3.5c1.2,1.1,2.9-0.7,1.7-1.7c-2.1-1.9-4.8-3.4-7.6-4.1
				C132.6,49.3,131.9,51.6,133.4,52L133.4,52z"/>
		</g>
	</g>
	<g>
		<g>
			<path class="st2" d="M152.9,56.3c2.4,0.6,4.7,1.9,6.5,3.5c1.2,1.1,2.9-0.7,1.7-1.7c-2.1-1.9-4.8-3.4-7.6-4.1
				C152,53.5,151.4,55.9,152.9,56.3L152.9,56.3z"/>
		</g>
	</g>
	<g>
		<g>
			<path class="st3" d="M121.4,56.8c2.6,0.4,5,1.4,7.1,2.9c1.3,0.9,2.5-1.2,1.2-2.1c-2.2-1.6-5-2.8-7.7-3.2
				C120.5,54.2,119.9,56.6,121.4,56.8L121.4,56.8z"/>
		</g>
	</g>
	<g>
		<g>
			<path class="st3" d="M110.6,40.3c2.6,0.4,5,1.4,7.1,2.9c1.3,0.9,2.5-1.2,1.2-2.1c-2.2-1.6-5-2.8-7.7-3.2
				C109.7,37.8,109.1,40.1,110.6,40.3L110.6,40.3z"/>
		</g>
	</g>
	<g>
		<path class="st4" d="M129.2,44.7c0,0-2.7,3.1-6.6,4.5"/>
		<g>
			<path class="st4" d="M128.3,43.8c-1.6,1.8-3.8,3.3-6.1,4.2c-1.5,0.5-0.8,2.9,0.6,2.3c2.7-1,5.3-2.6,7.2-4.8
				C131.1,44.3,129.3,42.6,128.3,43.8L128.3,43.8z"/>
		</g>
	</g>
	<g>
		<g>
			<path class="st5" d="M112.4,66.7c1.6-2,3.8-3.7,6.1-4.7c1.4-0.6,0.2-2.7-1.2-2.1c-2.5,1.1-4.9,2.9-6.6,5.1
				C109.8,66.2,111.5,67.9,112.4,66.7L112.4,66.7z"/>
		</g>
	</g>
	<g>
		<g>
			<path class="st5" d="M61.8,42.3c1.6-2,3.8-3.7,6.1-4.7c1.4-0.6,0.2-2.7-1.2-2.1c-2.5,1.1-4.9,2.9-6.6,5.1
				C59.2,41.8,60.9,43.5,61.8,42.3L61.8,42.3z"/>
		</g>
	</g>
	<g>
		<g>
			<path class="st5" d="M141.2,62.4c-0.2,0.1,0.3-0.1,0.5-0.2c0.5-0.2,1.1-0.4,1.6-0.5c1.7-0.4,3.4-0.6,5.2-0.4
				c1.6,0.1,1.6-2.3,0-2.4c-2.9-0.2-5.9,0.3-8.5,1.5C138.6,60.9,139.8,63,141.2,62.4L141.2,62.4z"/>
		</g>
	</g>
	<g>
		<g>
			<path class="st2" d="M119.9,70c-0.2,0.1,0.3-0.1,0.5-0.2c0.5-0.2,1.1-0.4,1.6-0.5c1.7-0.4,3.4-0.6,5.2-0.4c1.6,0.1,1.6-2.3,0-2.4
				c-2.9-0.2-5.9,0.3-8.5,1.5C117.2,68.6,118.4,70.7,119.9,70L119.9,70z"/>
		</g>
	</g>
	<g>
		<g>
			<path class="st2" d="M86.3,39.5c-0.2,0.1,0.3-0.1,0.5-0.2c0.5-0.2,1.1-0.4,1.6-0.5c1.7-0.4,3.4-0.6,5.2-0.4
				c1.6,0.1,1.6-2.3,0-2.4c-2.9-0.2-5.9,0.3-8.5,1.5C83.6,38,84.9,40.1,86.3,39.5L86.3,39.5z"/>
		</g>
	</g>
	<g>
		<g>
			<path class="st5" d="M98.7,43.7c1.6-2,3.8-3.7,6.1-4.7c1.4-0.6,0.2-2.7-1.2-2.1c-2.5,1.1-4.9,2.9-6.6,5.1
				C96,43.2,97.7,45,98.7,43.7L98.7,43.7z"/>
		</g>
	</g>
	<g>
		<g>
			<path class="st2" d="M106.1,47.1c-0.2,0.1,0.3-0.1,0.5-0.2c0.5-0.2,1.1-0.4,1.6-0.5c1.7-0.4,3.4-0.6,5.2-0.4
				c1.6,0.1,1.6-2.3,0-2.4c-2.9-0.2-5.9,0.3-8.5,1.5C103.4,45.6,104.7,47.7,106.1,47.1L106.1,47.1z"/>
		</g>
	</g>
	<g>
		<g>
			<path class="st2" d="M177.5,110.7c-0.2,0.1,0.3-0.1,0.5-0.2c0.5-0.2,1.1-0.4,1.6-0.5c1.7-0.4,3.4-0.6,5.2-0.4
				c1.6,0.1,1.6-2.3,0-2.4c-2.9-0.2-5.9,0.3-8.5,1.5C174.8,109.3,176.1,111.4,177.5,110.7L177.5,110.7z"/>
		</g>
	</g>
	<g>
		<g>
			<path class="st6" d="M138.7,68.6c0.4,0.5-0.2-0.3-0.3-0.5c-0.3-0.5-0.6-0.9-0.9-1.4c-0.8-1.5-1.4-3.2-1.7-4.9
				c-0.3-1.5-2.6-0.9-2.3,0.6c0.5,2.8,1.7,5.6,3.5,7.9C137.9,71.5,139.6,69.8,138.7,68.6L138.7,68.6z"/>
		</g>
	</g>
	<g>
		<g>
			<path class="st6" d="M113.9,57.1c1-2.7,1.1-5.8,0.7-8.6c-0.2-1.5-2.6-0.9-2.3,0.6c0.4,2.4,0.1,5-0.7,7.3
				C111,57.9,113.3,58.5,113.9,57.1L113.9,57.1z"/>
		</g>
	</g>
	<g>
		<g>
			<path class="st6" d="M70.6,48.6c1-2.7,1.1-5.8,0.7-8.6c-0.2-1.5-2.6-0.9-2.3,0.6c0.4,2.4,0.1,5-0.7,7.3
				C67.8,49.5,70.1,50.1,70.6,48.6L70.6,48.6z"/>
		</g>
	</g>
	<g>
		<g>
			<path class="st6" d="M171.3,78.4c1-2.7,1.1-5.8,0.7-8.6c-0.2-1.5-2.6-0.9-2.3,0.6c0.4,2.4,0.1,5-0.7,7.3
				C168.4,79.2,170.8,79.9,171.3,78.4L171.3,78.4z"/>
		</g>
	</g>
	<g>
		<g>
			<path class="st2" d="M60.3,106.1c2.4,0.6,4.7,1.9,6.5,3.5c1.2,1.1,2.9-0.7,1.7-1.7c-2.1-1.9-4.8-3.4-7.6-4.1
				C59.4,103.4,58.7,105.7,60.3,106.1L60.3,106.1z"/>
		</g>
	</g>
	<g>
		<g>
			<path class="st2" d="M38.4,85.9c2.4,0.6,4.7,1.9,6.5,3.5c1.2,1.1,2.9-0.7,1.7-1.7c-2.1-1.9-4.8-3.4-7.6-4.1
				C37.6,83.1,36.9,85.5,38.4,85.9L38.4,85.9z"/>
		</g>
	</g>
	<g>
		<g>
			<path class="st3" d="M48.2,110.9c2.6,0.4,5,1.4,7.1,2.9c1.3,0.9,2.5-1.2,1.2-2.1c-2.2-1.6-5-2.8-7.7-3.2
				C47.3,108.3,46.7,110.7,48.2,110.9L48.2,110.9z"/>
		</g>
	</g>
	<g>
		<g>
			<path class="st3" d="M52,131.8c2.6,0.4,5,1.4,7.1,2.9c1.3,0.9,2.5-1.2,1.2-2.1c-2.2-1.6-5-2.8-7.7-3.2
				C51.1,129.3,50.4,131.6,52,131.8L52,131.8z"/>
		</g>
	</g>
	<g>
		<path class="st4" d="M56,98.8c0,0-2.7,3.1-6.6,4.5"/>
		<g>
			<path class="st4" d="M55.1,97.9c-1.6,1.8-3.8,3.3-6.1,4.2c-1.5,0.5-0.8,2.9,0.6,2.3c2.7-1,5.3-2.6,7.2-4.8
				C57.9,98.4,56.2,96.7,55.1,97.9L55.1,97.9z"/>
		</g>
	</g>
	<g>
		<path class="st4" d="M43.6,94.8c0,0-4.1-0.1-7.7-2.3"/>
		<g>
			<path class="st4" d="M43.6,93.6c-2.5-0.1-5-0.9-7.1-2.1c-1.4-0.8-2.6,1.3-1.2,2.1c2.5,1.4,5.4,2.3,8.3,2.4
				C45.2,96.1,45.2,93.6,43.6,93.6L43.6,93.6z"/>
		</g>
	</g>
	<g>
		<path class="st4" d="M65.7,74.9c0,0-2.7,3.1-6.6,4.5"/>
		<g>
			<path class="st4" d="M64.8,74.1c-1.6,1.8-3.8,3.3-6.1,4.2c-1.5,0.5-0.8,2.9,0.6,2.3c2.7-1,5.3-2.6,7.2-4.8
				C67.6,74.6,65.9,72.9,64.8,74.1L64.8,74.1z"/>
		</g>
	</g>
	<g>
		<path class="st4" d="M91.5,43.2c0,0-2.7,3.1-6.6,4.5"/>
		<g>
			<path class="st4" d="M90.6,42.3c-1.6,1.8-3.8,3.3-6.1,4.2c-1.5,0.5-0.8,2.9,0.6,2.3c2.7-1,5.3-2.6,7.2-4.8
				C93.4,42.9,91.7,41.2,90.6,42.3L90.6,42.3z"/>
		</g>
	</g>
	<g>
		<path class="st4" d="M24.5,79.8c0,0-2.7,3.1-6.6,4.5"/>
		<g>
			<path class="st4" d="M23.7,79c-1.6,1.8-3.8,3.3-6.1,4.2c-1.5,0.5-0.8,2.9,0.6,2.3c2.7-1,5.3-2.6,7.2-4.8
				C26.4,79.5,24.7,77.8,23.7,79L23.7,79z"/>
		</g>
	</g>
	<g>
		<g>
			<path class="st5" d="M39.3,120.8c1.6-2,3.8-3.7,6.1-4.7c1.4-0.6,0.2-2.7-1.2-2.1c-2.5,1.1-4.9,2.9-6.6,5.1
				C36.6,120.3,38.3,122,39.3,120.8L39.3,120.8z"/>
		</g>
	</g>
	<g>
		<g>
			<path class="st5" d="M68,116.5c-0.2,0.1,0.3-0.1,0.5-0.2c0.5-0.2,1.1-0.4,1.6-0.5c1.7-0.4,3.4-0.6,5.2-0.4c1.6,0.1,1.6-2.3,0-2.4
				c-2.9-0.2-5.9,0.3-8.5,1.5C65.4,115,66.6,117.1,68,116.5L68,116.5z"/>
		</g>
	</g>
	<g>
		<g>
			<path class="st5" d="M155.9,72.6c-0.2,0.1,0.3-0.1,0.5-0.2c0.5-0.2,1.1-0.4,1.6-0.5c1.7-0.4,3.4-0.6,5.2-0.4
				c1.6,0.1,1.6-2.3,0-2.4c-2.9-0.2-5.9,0.3-8.5,1.5C153.2,71.1,154.5,73.2,155.9,72.6L155.9,72.6z"/>
		</g>
	</g>
	<g>
		<g>
			<path class="st2" d="M46.7,124.1c-0.2,0.1,0.3-0.1,0.5-0.2c0.5-0.2,1.1-0.4,1.6-0.5c1.7-0.4,3.4-0.6,5.2-0.4
				c1.6,0.1,1.6-2.3,0-2.4c-2.9-0.2-5.9,0.3-8.5,1.5C44,122.7,45.3,124.8,46.7,124.1L46.7,124.1z"/>
		</g>
	</g>
	<g>
		<g>
			<path class="st6" d="M65.5,122.7c0.4,0.5-0.2-0.3-0.3-0.5c-0.3-0.5-0.6-0.9-0.9-1.4c-0.8-1.5-1.4-3.2-1.7-4.9
				c-0.3-1.5-2.6-0.9-2.3,0.6c0.5,2.8,1.7,5.6,3.5,7.9C64.7,125.6,66.4,123.9,65.5,122.7L65.5,122.7z"/>
		</g>
	</g>
	<g>
		<g>
			<path class="st6" d="M89.3,136.5c0.4,0.5-0.2-0.3-0.3-0.5c-0.3-0.5-0.6-0.9-0.9-1.4c-0.8-1.5-1.4-3.2-1.7-4.9
				c-0.3-1.5-2.6-0.9-2.3,0.6c0.5,2.8,1.7,5.6,3.5,7.9C88.5,139.4,90.2,137.7,89.3,136.5L89.3,136.5z"/>
		</g>
	</g>
	<g>
		<g>
			<path class="st6" d="M40.7,111.2c1-2.7,1.1-5.8,0.7-8.6c-0.2-1.5-2.6-0.9-2.3,0.6c0.4,2.4,0.1,5-0.7,7.3
				C37.8,112,40.2,112.6,40.7,111.2L40.7,111.2z"/>
		</g>
	</g>
	<g>
		<g>
			<path class="st2" d="M129.9,136.1c0.5-0.2-0.3,0.1-0.5,0.2c-0.5,0.2-1.1,0.3-1.6,0.5c-1.7,0.4-3.4,0.5-5.2,0.4
				c-1.6-0.1-1.6,2.3,0,2.4c2.9,0.2,5.9-0.2,8.5-1.4C132.6,137.6,131.3,135.5,129.9,136.1L129.9,136.1z"/>
		</g>
	</g>
	<g>
		<path class="st4" d="M137.9,139.2c0,0,0.3-4.1,2.6-7.6"/>
		<g>
			<path class="st4" d="M139.1,139.2c0.2-2.4,1.1-4.9,2.4-7c0.8-1.3-1.3-2.5-2.1-1.2c-1.5,2.4-2.5,5.3-2.7,8.2
				C136.6,140.8,139,140.8,139.1,139.2L139.1,139.2z"/>
		</g>
	</g>
	<g>
		<path class="st4" d="M105.8,138.7c0,0,0.3-4.1,2.6-7.6"/>
		<g>
			<path class="st4" d="M107,138.7c0.2-2.4,1.1-4.9,2.4-7c0.8-1.3-1.3-2.5-2.1-1.2c-1.5,2.4-2.5,5.3-2.7,8.2
				C104.5,140.3,106.9,140.3,107,138.7L107,138.7z"/>
		</g>
	</g>
	<g>
		<path class="st4" d="M28.6,62.6c0,0,0.3-4.1,2.6-7.6"/>
		<g>
			<path class="st4" d="M29.8,62.6c0.2-2.4,1.1-4.9,2.4-7c0.8-1.3-1.3-2.5-2.1-1.2c-1.5,2.4-2.5,5.3-2.7,8.2
				C27.3,64.2,29.7,64.1,29.8,62.6L29.8,62.6z"/>
		</g>
	</g>
	<g>
		<g>
			<path class="st2" d="M130,113.2c-1.2,2.2-3,4.1-5.1,5.4c-1.3,0.8-0.1,2.9,1.2,2.1c2.4-1.5,4.6-3.7,6-6.2
				C132.9,113.1,130.8,111.9,130,113.2L130,113.2z"/>
		</g>
	</g>
	<g>
		<g>
			<path class="st6" d="M115.7,125.9c2.4,0.6,4.7,1.9,6.4,3.6c1.1,1.1,2.9-0.6,1.7-1.7c-2.1-2-4.7-3.5-7.5-4.2
				C114.9,123.1,114.2,125.5,115.7,125.9L115.7,125.9z"/>
		</g>
	</g>
	<g>
		<g>
			<path class="st2" d="M28.3,69.1c0.5-0.2-0.3,0.1-0.5,0.2c-0.5,0.2-1.1,0.3-1.6,0.5c-1.7,0.4-3.4,0.5-5.2,0.4
				c-1.6-0.1-1.6,2.3,0,2.4c2.9,0.2,5.9-0.2,8.5-1.4C30.9,70.6,29.7,68.5,28.3,69.1L28.3,69.1z"/>
		</g>
	</g>
	<g>
		<g>
			<path class="st5" d="M27.3,89.3c-1.2,2.2-3,4.1-5.1,5.4c-1.3,0.8-0.1,2.9,1.2,2.1c2.4-1.5,4.6-3.7,6-6.2
				C30.2,89.2,28.1,88,27.3,89.3L27.3,89.3z"/>
		</g>
	</g>
	<g>
		<g>
			<path class="st2" d="M39.7,70.3c-1.2,2.2-3,4.1-5.1,5.4c-1.3,0.8-0.1,2.9,1.2,2.1c2.4-1.5,4.6-3.7,6-6.2
				C42.6,70.2,40.5,69,39.7,70.3L39.7,70.3z"/>
		</g>
	</g>
	<g>
		<g>
			<path class="st6" d="M45.3,80.4c2.4,0.6,4.7,1.9,6.4,3.6c1.1,1.1,2.9-0.6,1.7-1.7c-2.1-2-4.7-3.5-7.5-4.2
				C44.4,77.7,43.8,80,45.3,80.4L45.3,80.4z"/>
		</g>
	</g>
	<g>
		<g>
			<path class="st5" d="M137.9,111.7c0,2.5-0.8,5-1.9,7.1c-0.8,1.4,1.3,2.6,2.1,1.2c1.4-2.5,2.2-5.5,2.3-8.3
				C140.3,110.2,137.9,110.2,137.9,111.7L137.9,111.7z"/>
		</g>
	</g>
	<g>
		<g>
			<path class="st6" d="M85.6,117.1c0.2,2.9,1.2,5.8,2.8,8.2c0.8,1.3,3,0.1,2.1-1.2c-1.3-2.1-2.3-4.5-2.4-7
				C87.9,115.6,85.4,115.5,85.6,117.1L85.6,117.1z"/>
		</g>
	</g>
</g>
<g id="sprinkles">
	<g>
		<g>
			<path class="st5" d="M141.5,95.4c2.5,0.4,5,1.5,7,3.1c1.2,1,2.5-1.2,1.2-2.1c-2.2-1.7-4.9-2.9-7.6-3.4
				C140.6,92.8,139.9,95.1,141.5,95.4L141.5,95.4z"/>
		</g>
	</g>
	<g>
		<g>
			<path class="st2" d="M168.2,84c-0.5-0.4,0.2,0.2,0.4,0.3c0.4,0.4,0.8,0.8,1.2,1.2c1.2,1.3,2.2,2.7,2.9,4.3
				c0.6,1.4,2.7,0.2,2.1-1.2c-1.2-2.6-3.1-5-5.4-6.8C168.2,80.9,166.9,83,168.2,84L168.2,84z"/>
		</g>
	</g>
	<g>
		<g>
			<path class="st3" d="M136.6,125c-2.1,1.2-4.7,1.8-7.1,1.9c-1.6,0-1.6,2.5,0,2.4c2.9-0.1,5.8-0.8,8.4-2.2
				C139.2,126.3,137.9,124.2,136.6,125L136.6,125z"/>
		</g>
	</g>
	<g>
		<g>
			<path class="st5" d="M101.1,124.8c-1.2,2.2-3,4.1-5.1,5.4c-1.3,0.8-0.1,2.9,1.2,2.1c2.4-1.5,4.6-3.7,6-6.2
				C104,124.7,101.8,123.5,101.1,124.8L101.1,124.8z"/>
		</g>
	</g>
	<g>
		<g>
			<path class="st6" d="M152.3,119.5c1-2.4,2.7-4.5,4.7-6.1c1.2-1-0.5-2.7-1.7-1.7c-2.1,1.7-4,4-5.1,6.6
				C149.5,119.7,151.6,121,152.3,119.5L152.3,119.5z"/>
		</g>
	</g>
	<g>
		<g>
			<path class="st5" d="M117.7,132.2c-1.2,2.2-3,4.1-5.1,5.4c-1.3,0.8-0.1,2.9,1.2,2.1c2.4-1.5,4.6-3.7,6-6.2
				C120.5,132.1,118.4,130.9,117.7,132.2L117.7,132.2z"/>
		</g>
	</g>
	<g>
		<g>
			<path class="st3" d="M119.6,144c-2.1,1.2-4.7,1.8-7.1,1.9c-1.6,0-1.6,2.5,0,2.4c2.9-0.1,5.8-0.8,8.4-2.2
				C122.2,145.4,121,143.2,119.6,144L119.6,144z"/>
		</g>
	</g>
	<g>
		<g>
			<path class="st6" d="M176.1,98.6c2.7-0.4,5.4-1.7,7.6-3.4c1.2-0.9,0-3.1-1.2-2.1c-2,1.6-4.5,2.7-7,3.1
				C173.9,96.5,174.5,98.9,176.1,98.6L176.1,98.6z"/>
		</g>
	</g>
	<g>
		<g>
			<path class="st5" d="M170.1,107.4c1.6-2,3.8-3.7,6.1-4.7c1.4-0.6,0.2-2.7-1.2-2.1c-2.5,1.1-4.9,2.9-6.6,5.1
				C167.4,106.9,169.1,108.6,170.1,107.4L170.1,107.4z"/>
		</g>
	</g>
	<g>
		<g>
			<path class="st6" d="M142.6,120c0.9,2.7,2.5,5.3,4.6,7.3c1.1,1.1,2.9-0.6,1.7-1.7c-1.8-1.7-3.2-3.9-4-6.2
				C144.4,117.8,142.1,118.5,142.6,120L142.6,120z"/>
		</g>
	</g>
</g>
<g id="bite">
	<path class="st7" d="M188.5,98c1.1,9.3,1,34.4-23.1,49c-2.8,1.7-6.3,1.9-9,0.1c-2.4-1.6-4-4.5-0.6-10.1c0,0-12-3-2.3-12.6
		c0,0-3.6-11.3,8.3-11.4c0,0-1.8-12.7,12.6-10.6c0,0-0.3-7.1,7.1-8.3C184.2,93.7,188,94.2,188.5,98z"/>
</g>
</svg>
