<?xml version="1.0" encoding="utf-8"?>
<!-- Generator: Adobe Illustrator 18.1.1, SVG Export Plug-In . SVG Version: 6.00 Build 0)  -->
<!DOCTYPE svg PUBLIC "-//W3C//DTD SVG 1.1//EN" "http://www.w3.org/Graphics/SVG/1.1/DTD/svg11.dtd">
<svg version="1.1" id="Layer_1" xmlns="http://www.w3.org/2000/svg" xmlns:xlink="http://www.w3.org/1999/xlink" x="0px" y="0px"
	 viewBox="0 0 781 781" style="enable-background:new 0 0 781 781;" xml:space="preserve">
<style type="text/css">
	.st0{fill:#A47AB5;}
</style>
<g>
	<line class="st0" x1="577.8" y1="567.6" x2="188.3" y2="567.7"/>
	<g>
		<path class="st0" d="M577.8,564.6c-12.9,0-25.7,0-38.6,0c-31.1,0-62.2,0-93.2,0c-37.5,0-74.9,0-112.4,0c-32.4,0-64.8,0-97.2,0
			c-10.8,0-21.5,0-32.3,0c-5,0-10.2-0.4-15.2,0c-0.2,0-0.4,0-0.7,0c-3.9,0-3.9,6,0,6c12.9,0,25.7,0,38.6,0c31.1,0,62.2,0,93.2,0
			c37.5,0,74.9,0,112.4,0c32.4,0,64.8,0,97.2,0c10.8,0,21.5,0,32.3,0c5,0,10.2,0.4,15.2,0c0.2,0,0.4,0,0.7,0
			C581.7,570.6,581.7,564.6,577.8,564.6L577.8,564.6z"/>
	</g>
</g>
</svg>
