<?xml version="1.0" encoding="utf-8"?>
<!-- Generator: Adobe Illustrator 18.1.1, SVG Export Plug-In . SVG Version: 6.00 Build 0)  -->
<!DOCTYPE svg PUBLIC "-//W3C//DTD SVG 1.1//EN" "http://www.w3.org/Graphics/SVG/1.1/DTD/svg11.dtd">
<svg version="1.1" id="Layer_1" xmlns="http://www.w3.org/2000/svg" xmlns:xlink="http://www.w3.org/1999/xlink" x="0px" y="0px"
	 viewBox="0 0 781 781" style="enable-background:new 0 0 781 781;" xml:space="preserve">
<style type="text/css">
	.st0{fill:#E3DE8E;}
	.st1{fill:#FCCEBD;}
	.st2{fill:#A47AB5;}
	.st3{fill:#FFFFFF;}
	.st4{fill:#F493A0;}
</style>
<rect x="183" y="181" class="st0" width="410.8" height="394.7"/>
<g>
	<path class="st1" d="M226,428.9l-42.2,138.9c-0.6,1.9,1.3,3.6,3.1,2.8l140.4-58.8c0.7-0.3,1.2-0.9,1.4-1.6
		c3.2-12.3,28.6-120.8-101.2-82.9C226.9,427.6,226.3,428.2,226,428.9z"/>
	<path class="st2" d="M198.9,525.3c6.2,0.7,24.4,4.8,28.5,26.3c0.2,1.1-0.4,2.3-1.5,2.7l-38.7,16.3c-1.9,0.8-3.9-1-3.3-3l12.4-40.6
		C196.6,525.8,197.7,525.1,198.9,525.3z"/>
	<path class="st2" d="M225.3,430.3l-4.1,15.7l2.9,11.1c0.4,1.6,2.2,2.6,3.8,2l30.8-11l8.5,39.4c0.5,2.2,2.4,3.8,4.6,3.8l34.8,0.8
		l3.1,24.6c0.2,1.3,1.6,2.1,2.8,1.6l12.2-5.2c2.3-1,4.3-2.4,6-4.2l80.2-84.9c0,0-30.7-53.3-96.4-89.8l-86.5,91.3
		C226.7,427.1,225.8,428.6,225.3,430.3z"/>
	<path class="st3" d="M314.4,334.7l45.6-48.2c0,0,59,32.1,95.6,89.8l-44.8,48C410.8,424.2,379.9,372.8,314.4,334.7z"/>
	<path class="st4" d="M359.4,286.9l26.4-27.9c11.6-12.2,30.4-14,44-4c15.2,11.1,35.1,27.7,53.1,49.3c10.8,13,10.3,32.1-1.4,44.4
		l-26.1,27.6C455.4,376.3,424.9,325,359.4,286.9z"/>
</g>
</svg>
