<?xml version="1.0" encoding="utf-8"?>
<!-- Generator: Adobe Illustrator 18.1.1, SVG Export Plug-In . SVG Version: 6.00 Build 0)  -->
<!DOCTYPE svg PUBLIC "-//W3C//DTD SVG 1.1//EN" "http://www.w3.org/Graphics/SVG/1.1/DTD/svg11.dtd">
<svg version="1.1" id="Layer_1" xmlns="http://www.w3.org/2000/svg" xmlns:xlink="http://www.w3.org/1999/xlink" x="0px" y="0px"
	 viewBox="0 0 200 200" style="enable-background:new 0 0 200 200;" xml:space="preserve">
<style type="text/css">
	.st0{fill:#FCCEBD;}
	.st1{fill:#7BD3F7;}
</style>
<g>
	<path class="st0" d="M112.8,189.3l-2.2,0.6c-2.7,0.8-5.6-0.8-6.4-3.5l-20.3-69.9c-0.8-2.7,0.8-5.6,3.5-6.4l2.2-0.6
		c2.7-0.8,5.6,0.8,6.4,3.5l20.3,69.9C117.1,185.6,115.5,188.5,112.8,189.3z"/>
	<path class="st0" d="M143.6,180.3l-2.2,0.6c-2.7,0.8-5.6-0.8-6.4-3.5l-20.3-69.9c-0.8-2.7,0.8-5.6,3.5-6.4l2.2-0.6
		c2.7-0.8,5.6,0.8,6.4,3.5l20.3,69.9C147.8,176.7,146.3,179.5,143.6,180.3z"/>
	<g>
		<path class="st1" d="M132.4,132c-2.6,1.5-10.4,3.5-12.5,3c-1.4-0.3-2.8-0.3-4.2-0.1c-3.1,0.4-6,1.4-9,2.8
			c-0.3,0.2-0.6,0.5-0.9,0.7c-3.8,2.8-8.3,4.4-12.9,5.2c-1.7,0.1-3,0.4-4.3,0.4c-2.4-0.1-4.9-0.1-7.2-0.7c-3-0.8-5.2-2.9-5.9-6
			c-2.8-11.1-5.5-22.2-8.3-33.2c-1.1-4.4-2-8.9-3-13.3c-2.5-10.9-5.1-21.8-7.7-32.6c-1.6-6.8-3.2-13.6-5.1-20.4
			c-2-7.2,2.7-15.3,7.7-18.1c1.4-0.8,3.3-1.2,4.9-1.2c2.6,0,5.1,0.4,7.7,0.9c4.3,0.8,8,0,11.3-2.9c1-0.9,2.1-1.7,3.1-2.6
			c3-3,7.1-4.2,11.2-3.8c6.1,0.6,11.3,4.8,13.5,10.5c1,2.4,1.8,4.9,2.6,7.4c2.9,8.8,5.7,17.5,8.5,26.3c3.5,10.9,6.9,21.8,10.4,32.7
			c3.3,10.3,6.7,20.5,10.1,30.8c1.7,5.1-0.5,9.8-5.5,12.1c-0.7,0.3-2.9,1.3-3.8,1.8C132.9,131.7,132.7,131.8,132.4,132z"/>
	</g>
</g>
</svg>
