<?xml version="1.0" encoding="utf-8"?>
<!-- Generator: Adobe Illustrator 18.1.1, SVG Export Plug-In . SVG Version: 6.00 Build 0)  -->
<!DOCTYPE svg PUBLIC "-//W3C//DTD SVG 1.1//EN" "http://www.w3.org/Graphics/SVG/1.1/DTD/svg11.dtd">
<svg version="1.1" id="Layer_1" xmlns="http://www.w3.org/2000/svg" xmlns:xlink="http://www.w3.org/1999/xlink" x="0px" y="0px"
	 viewBox="0 0 200 200" style="enable-background:new 0 0 200 200;" xml:space="preserve">
<style type="text/css">
	.st0{fill:#FCCEBD;}
	.st1{fill:#8ED8F8;}
</style>
<g>
	<path class="st0" d="M122.3,190.1l-2.2,0.9c-2.7,1.1-5.8-0.3-6.8-3l-27.2-69.6c-1.1-2.7,0.3-5.8,3-6.8l2.2-0.9
		c2.7-1.1,5.8,0.3,6.8,3l27.2,69.6C126.3,186,125,189.1,122.3,190.1z"/>
	<path class="st0" d="M152.9,178.2l-2.2,0.9c-2.7,1.1-5.8-0.3-6.8-3l-27.2-69.6c-1.1-2.7,0.3-5.8,3-6.8l2.2-0.9
		c2.7-1.1,5.8,0.3,6.8,3l27.2,69.6C157,174.1,155.6,177.1,152.9,178.2z"/>
	<g>
		<path class="st1" d="M137.1,129.8c-2.6,1.8-10.3,4.6-12.5,4.2c-1.4-0.2-2.9,0-4.3,0.3c-3.2,0.7-6.1,2-8.9,3.7
			c-0.3,0.2-0.5,0.6-0.8,0.8c-3.6,3.2-8,5.3-12.7,6.5c-1.7,0.3-3,0.7-4.3,0.8c-2.5,0.1-5,0.3-7.5-0.1c-3.2-0.5-5.5-2.5-6.6-5.6
			c-3.9-11.1-7.7-22.1-11.5-33.2c-1.5-4.4-2.8-8.9-4.3-13.3C60,82.9,56.4,72.1,52.7,61.2c-2.3-6.8-4.6-13.6-7.1-20.3
			c-2.7-7.2,1.4-15.9,6.2-19.2c1.4-0.9,3.2-1.6,4.9-1.7c2.6-0.2,5.3,0,7.9,0.2c4.4,0.4,8.2-0.7,11.3-4c0.9-1,2-1.9,2.9-3
			c2.8-3.3,6.9-4.9,11.1-4.9c6.3,0,12,3.9,14.8,9.5c1.2,2.4,2.3,4.9,3.4,7.4c3.7,8.7,7.5,17.4,11.2,26.1
			c4.6,10.8,9.1,21.6,13.7,32.4c4.3,10.2,8.7,20.4,13.1,30.6c2.2,5,0.4,10.1-4.5,12.9c-0.7,0.4-2.8,1.6-3.7,2.1
			C137.5,129.4,137.3,129.6,137.1,129.8z"/>
	</g>
</g>
</svg>
