<?xml version="1.0" encoding="utf-8"?>
<!-- Generator: Adobe Illustrator 18.1.1, SVG Export Plug-In . SVG Version: 6.00 Build 0)  -->
<!DOCTYPE svg PUBLIC "-//W3C//DTD SVG 1.1//EN" "http://www.w3.org/Graphics/SVG/1.1/DTD/svg11.dtd">
<svg version="1.1" id="Layer_1" xmlns="http://www.w3.org/2000/svg" xmlns:xlink="http://www.w3.org/1999/xlink" x="0px" y="0px"
	 viewBox="619.3 0 493.4 864" style="enable-background:new 619.3 0 493.4 864;" xml:space="preserve">
<style type="text/css">
	.st0{fill:#FCCEBD;}
	.st1{fill:#7BD3F7;}
</style>
<g>
	<path class="st0" d="M805.7,814.4h-9.9c-12.1,0-22.1-9.9-22.1-22.1V479.7c0-12.1,9.9-22.1,22.1-22.1h9.9c12.1,0,22.1,9.9,22.1,22.1
		v312.6C827.8,804.7,817.9,814.4,805.7,814.4z"/>
	<path class="st0" d="M943.1,814.4h-9.9c-12.1,0-22.1-9.9-22.1-22.1V479.7c0-12.1,9.9-22.1,22.1-22.1h9.9c12.1,0,22.1,9.9,22.1,22.1
		v312.6C965.2,804.7,955.2,814.4,943.1,814.4z"/>
	<g>
		<path class="st1" d="M955.2,601.7c-12.6,3-47.1,2-55.3-2.5c-5.2-3-11.2-4.5-17.1-5.5c-13.4-2.2-26.5-1.5-40.4,0.7
			c-1.7,0.2-3,1.2-4.5,2c-19.1,7.2-39.4,8.4-59.5,6c-6.9-1.5-12.6-1.7-18.1-3.7c-9.9-3.5-20.1-6.4-29-11.7
			c-11.7-6.9-17.9-18.1-17.4-31.7c1.7-49.1,3.7-97.9,5.7-147c0.7-19.6,2.5-38.9,3.5-58.5c2.5-47.8,5-95.9,7.4-143.8
			c1.5-30,3-60,3.2-90c0.5-32.2,29.8-60.2,53.6-65.7c6.9-1.5,14.9-1.2,21.6,0.7c10.7,3.5,20.8,8.2,30.5,13.1
			c16.6,8.4,33.2,9.7,50.1,1.5c5.2-2.5,10.9-4.2,15.9-6.9c15.9-8.7,34.5-8.7,50.8-2.2c24.5,9.7,40.7,33.2,43.1,59.5
			c1,11.2,1.5,22.6,2,33.7c1.5,39.4,2.7,79.1,3.7,118.5c1.5,49.1,2.5,98.2,4,147c1.2,46.4,3,92.7,4.7,139.1
			c0.7,22.8-13.9,39.9-37.4,43.4c-3.5,0.5-13.6,2-17.6,2.7C957.5,601.2,956.5,601.5,955.2,601.7z"/>
	</g>
</g>
</svg>
