<?xml version="1.0" encoding="utf-8"?>
<!-- Generator: Adobe Illustrator 18.1.1, SVG Export Plug-In . SVG Version: 6.00 Build 0)  -->
<!DOCTYPE svg PUBLIC "-//W3C//DTD SVG 1.1//EN" "http://www.w3.org/Graphics/SVG/1.1/DTD/svg11.dtd">
<svg version="1.1" id="Layer_1" xmlns:sketch="http://www.bohemiancoding.com/sketch/ns"
	 xmlns="http://www.w3.org/2000/svg" xmlns:xlink="http://www.w3.org/1999/xlink" x="0px" y="0px" viewBox="-663 233 400 400"
	 style="enable-background:new -663 233 400 400;" xml:space="preserve">
<style type="text/css">
	.st0{fill:#A47AB5;}
	.st1{fill:#29B473;}
	.st2{fill:#7BD2F6;}
	.st3{fill:#F493A0;}
	.st4{fill:#FFE483;}
</style>
<g>
	<g>
		<path class="st0" d="M-374.2,249.1c-4.8-2.1-9.1-5.5-12.3-9.5c-2-2.5-5.4,1-3.5,3.5c3.4,4.3,8.2,8.1,13.2,10.3
			C-373.8,254.6-371.3,250.4-374.2,249.1L-374.2,249.1z"/>
	</g>
</g>
<g>
	<g>
		<path class="st1" d="M-569,309.9c-4.7-1.5-9.2-4.3-12.7-7.8c-2.2-2.3-5.7,1.2-3.5,3.5c4,4.1,9.3,7.4,14.8,9.1
			C-567.3,315.6-566,310.9-569,309.9L-569,309.9z"/>
	</g>
</g>
<g>
	<path class="st2" d="M-477.6,426c0,0,6.4-5.3,14.6-6.8"/>
	<g>
		<path class="st2" d="M-475.9,427.7c3.2-2.6,8.8-5.2,13.6-6.1c3.1-0.6,1.8-5.3-1.3-4.7c-5.7,1.1-11.2,3.7-15.7,7.4
			C-481.8,426.3-478.3,429.7-475.9,427.7L-475.9,427.7z"/>
	</g>
</g>
<g>
	<g>
		<path class="st3" d="M-284.7,302.5c-3.6,3.4-8.4,5.8-13.1,7c-3.1,0.8-1.8,5.5,1.3,4.7c5.6-1.4,11-4.3,15.3-8.3
			C-278.9,303.8-282.4,300.4-284.7,302.5L-284.7,302.5z"/>
	</g>
</g>
<g>
	<g>
		<path class="st3" d="M-286.8,608.4c-3.6,3.4-8.4,5.8-13.1,7c-3.1,0.8-1.8,5.5,1.3,4.7c5.6-1.4,11-4.3,15.3-8.3
			C-281,609.7-284.5,606.3-286.8,608.4L-286.8,608.4z"/>
	</g>
</g>
<g>
	<g>
		<path class="st3" d="M-557.7,242.1c-4.7,1.6-9.9,2.1-14.8,1.4c-3.1-0.5-4.4,4.3-1.3,4.7c5.7,0.9,11.9,0.6,17.4-1.4
			C-553.4,245.8-554.7,241.1-557.7,242.1L-557.7,242.1z"/>
	</g>
</g>
<g>
	<g>
		<path class="st3" d="M-630.6,295.8c-4.8,1.2-10.1,1.1-14.8,0c-3.1-0.7-4.4,4-1.3,4.7c5.7,1.3,11.8,1.4,17.4,0
			C-626.3,299.7-627.5,295-630.6,295.8L-630.6,295.8z"/>
	</g>
</g>
<g>
	<g>
		<path class="st0" d="M-275.5,357.8c-4.8,1.2-10.1,1.1-14.8,0c-3.1-0.7-4.4,4-1.3,4.7c5.7,1.3,11.8,1.4,17.4,0
			C-271.1,361.7-272.4,357-275.5,357.8L-275.5,357.8z"/>
	</g>
</g>
<g>
	<g>
		<path class="st4" d="M-555.3,603.6c2.4,4.4,3.6,9.5,3.6,14.4c0,3.2,4.9,3.2,4.9,0c-0.1-5.8-1.5-11.8-4.3-16.9
			C-552.5,598.3-556.8,600.8-555.3,603.6L-555.3,603.6z"/>
	</g>
</g>
<g>
	<g>
		<path class="st4" d="M-436.9,473.2c-2.8,5.1-4.2,11.1-4.3,16.9c0,3.2,4.9,3.2,4.9,0c0.1-4.9,1.3-10.1,3.6-14.4
			C-431.2,472.9-435.4,470.4-436.9,473.2L-436.9,473.2z"/>
	</g>
</g>
<g>
	<g>
		<path class="st0" d="M-609.7,246.6c-5.1,2.2-9.8,6-13.2,10.3c-1.9,2.4,1.5,5.9,3.5,3.5c3.2-4.1,7.5-7.5,12.3-9.5
			C-604.3,249.6-606.8,245.3-609.7,246.6L-609.7,246.6z"/>
	</g>
</g>
<g>
	<g>
		<path class="st1" d="M-336.1,418.8c-5.5,1.7-10.8,5-14.8,9.1c-2.2,2.3,1.3,5.7,3.5,3.5c3.5-3.5,7.9-6.4,12.7-7.8
			C-331.8,422.6-333.1,417.9-336.1,418.8L-336.1,418.8z"/>
	</g>
</g>
<g>
	<path class="st2" d="M-344.9,347.9c0,0,6.4,5.3,14.6,6.8"/>
	<g>
		<path class="st2" d="M-346.6,349.6c4.5,3.7,10,6.3,15.7,7.4c3.1,0.6,4.4-4.1,1.3-4.7c-4.7-0.9-10.4-3.5-13.6-6.1
			C-345.6,344.1-349.1,347.6-346.6,349.6L-346.6,349.6z"/>
	</g>
</g>
<g>
	<g>
		<path class="st3" d="M-536.4,275.1c-4.3-3.9-9.7-6.8-15.3-8.3c-3.1-0.8-4.4,3.9-1.3,4.7c4.8,1.2,9.5,3.6,13.1,7
			C-537.6,280.7-534.1,277.2-536.4,275.1L-536.4,275.1z"/>
	</g>
</g>
<g>
	<g>
		<path class="st3" d="M-636.3,264.5c-4.3-3.9-9.7-6.8-15.3-8.3c-3.1-0.8-4.4,3.9-1.3,4.7c4.8,1.2,9.5,3.6,13.1,7
			C-637.4,270.2-634,266.7-636.3,264.5L-636.3,264.5z"/>
	</g>
</g>
<g>
	<g>
		<path class="st3" d="M-631.9,563.2c-5.7-1.4-11.8-1.3-17.4,0c-3.1,0.7-1.8,5.5,1.3,4.7c4.8-1.1,10-1.2,14.8,0
			C-630.1,568.7-628.8,564-631.9,563.2L-631.9,563.2z"/>
	</g>
</g>
<g>
	<g>
		<path class="st0" d="M-311.6,454c-5.7-1.4-11.8-1.3-17.4,0c-3.1,0.7-1.8,5.5,1.3,4.7c4.8-1.1,10-1.2,14.8,0
			C-309.9,459.5-308.6,454.8-311.6,454L-311.6,454z"/>
	</g>
</g>
<g>
	<g>
		<path class="st0" d="M-365.7,517.1c-5.7-1.4-11.8-1.3-17.4,0c-3.1,0.7-1.8,5.5,1.3,4.7c4.8-1.1,10-1.2,14.8,0
			C-364,522.6-362.7,517.8-365.7,517.1L-365.7,517.1z"/>
	</g>
</g>
<g>
	<g>
		<path class="st4" d="M-279.6,262.7c2.8-5.1,4.2-11.1,4.3-16.9c0-3.2-4.9-3.2-4.9,0c-0.1,4.9-1.3,10.1-3.6,14.4
			C-285.4,263-281.2,265.5-279.6,262.7L-279.6,262.7z"/>
	</g>
</g>
<g>
	<g>
		<path class="st4" d="M-514.9,260.2c-2.4-4.4-3.6-9.5-3.6-14.4c0-3.2-4.9-3.2-4.9,0c0.1,5.8,1.5,11.8,4.3,16.9
			C-517.6,265.5-513.4,263-514.9,260.2L-514.9,260.2z"/>
	</g>
</g>
<g>
	<g>
		<path class="st0" d="M-435.9,532.6c4.2,4,9.7,6.9,15.3,8.4c3.1,0.8,4.4-3.9,1.3-4.7c-4.8-1.3-9.5-3.7-13.1-7.1
			C-434.8,526.9-438.3,530.4-435.9,532.6L-435.9,532.6z"/>
	</g>
</g>
<g>
	<g>
		<path class="st0" d="M-474.4,245.6c5.2,2.6,11.2,3.9,17,3.7c3.1-0.1,3.2-5,0-4.9c-4.9,0.1-10.1-0.8-14.5-3
			C-474.8,240-477.2,244.2-474.4,245.6L-474.4,245.6z"/>
	</g>
</g>
<g>
	<g>
		<path class="st1" d="M-293.4,410.5c3.8,4.4,9,7.8,14.3,9.8c3,1.1,4.2-3.6,1.3-4.7c-4.6-1.8-9-4.8-12.2-8.6
			C-292,404.7-295.5,408.2-293.4,410.5L-293.4,410.5z"/>
	</g>
</g>
<g>
	<g>
		<path class="st1" d="M-403.8,614.9c3.8,4.4,9,7.8,14.3,9.8c3,1.1,4.2-3.6,1.3-4.7c-4.6-1.8-9-4.8-12.2-8.6
			C-402.4,609.1-405.9,612.5-403.8,614.9L-403.8,614.9z"/>
	</g>
</g>
<g>
	<g>
		<path class="st1" d="M-634.7,336.4c0.5,5.8,2.6,11.6,5.7,16.4c1.7,2.6,6,0.2,4.2-2.5c-2.7-4.1-4.6-9.2-5.1-14
			C-630,333.3-634.9,333.2-634.7,336.4L-634.7,336.4z"/>
	</g>
</g>
<g>
	<g>
		<path class="st1" d="M-304.4,261.9c3.8,4.4,9,7.8,14.3,9.8c3,1.1,4.2-3.6,1.3-4.7c-4.6-1.8-9-4.8-12.2-8.6
			C-303,256-306.4,259.5-304.4,261.9L-304.4,261.9z"/>
	</g>
</g>
<g>
	<path class="st2" d="M-532.3,339.1c0,0,2.3-8,0.4-16.1"/>
	<g>
		<path class="st2" d="M-530,339.7c1.6-5.6,1.6-11.8,0.4-17.4c-0.7-3.1-5.4-1.8-4.7,1.3c1,4.8,1,10.1-0.4,14.8
			C-535.5,341.5-530.8,342.8-530,339.7L-530,339.7z"/>
	</g>
</g>
<g>
	<g>
		<path class="st3" d="M-511.3,289.7c-1.9,5.5-2.2,11.7-1.3,17.4c0.5,3.1,5.2,1.8,4.7-1.3c-0.8-4.9-0.3-10.1,1.3-14.8
			C-505.6,288-510.3,286.7-511.3,289.7L-511.3,289.7z"/>
	</g>
</g>
<g>
	<g>
		<path class="st3" d="M-597.2,508.4c0.9,5.5,3.4,11,6.7,15.4c1.9,2.5,6.1,0,4.2-2.5c-3.1-4.1-5.4-9.1-6.2-14.2
			C-593,504-597.7,505.3-597.2,508.4L-597.2,508.4z"/>
	</g>
</g>
<g>
	<g>
		<path class="st0" d="M-372.4,361.3c0.9,5.5,3.4,11,6.7,15.4c1.9,2.5,6.1,0,4.2-2.5c-3.1-4.1-5.4-9.1-6.2-14.2
			C-368.2,356.9-372.9,358.2-372.4,361.3L-372.4,361.3z"/>
	</g>
</g>
<g>
	<g>
		<path class="st4" d="M-446.4,356.4c-5.8-0.5-11.8,0.7-17.2,3c-2.9,1.2-0.4,5.4,2.5,4.2c4.5-1.9,9.8-2.7,14.7-2.3
			C-443.2,361.6-443.2,356.7-446.4,356.4L-446.4,356.4z"/>
	</g>
</g>
<g>
	<g>
		<path class="st4" d="M-532.9,291.2c-3.2,4.1-7.5,7.4-12.3,9.5c-2.9,1.3-0.4,5.5,2.5,4.2c5-2.2,9.9-5.9,13.3-10.3
			C-527.5,292.2-531,288.8-532.9,291.2L-532.9,291.2z"/>
	</g>
</g>
<g>
	<g>
		<path class="st0" d="M-446.8,298.6c0,5-1.3,10-3.6,14.4c-1.5,2.8,2.8,5.3,4.2,2.5c2.7-5.1,4.3-11.1,4.3-16.9
			C-441.9,295.5-446.8,295.5-446.8,298.6L-446.8,298.6z"/>
	</g>
</g>
<g>
	<g>
		<path class="st1" d="M-484.1,307.5c0.6,5.2-0.3,10.5-2.2,15.3c-1.2,2.9,3.6,4.2,4.7,1.3c2-5.2,3-11.1,2.4-16.6
			C-479.6,304.4-484.5,304.3-484.1,307.5L-484.1,307.5z"/>
	</g>
</g>
<g>
	<path class="st2" d="M-427.7,277.4c0,0-7.5-3.8-12.1-10.7"/>
	<g>
		<path class="st2" d="M-426.5,275.3c-4.4-2.3-8.4-5.8-11.2-9.8c-1.8-2.6-6-0.1-4.2,2.5c3.3,4.7,7.8,9,13,11.6
			C-426.2,281-423.7,276.7-426.5,275.3L-426.5,275.3z"/>
	</g>
</g>
<g>
	<path class="st2" d="M-342.3,247.1c0,0,6.5,5.3,9.5,13.1"/>
	<g>
		<path class="st2" d="M-344,248.8c3.8,3.1,7,7.4,8.8,12c1.2,2.9,5.9,1.6,4.7-1.3c-2.2-5.3-5.6-10.5-10.1-14.2
			C-343,243.4-346.5,246.8-344,248.8L-344,248.8z"/>
	</g>
</g>
<g>
	<path class="st2" d="M-595.8,282.8c0,0-7.5-3.8-12.1-10.7"/>
	<g>
		<path class="st2" d="M-594.6,280.6c-4.4-2.3-8.4-5.8-11.2-9.8c-1.8-2.6-6-0.1-4.2,2.5c3.3,4.7,7.8,9,13,11.6
			C-594.2,286.3-591.7,282.1-594.6,280.6L-594.6,280.6z"/>
	</g>
</g>
<g>
	<g>
		<path class="st3" d="M-484.1,268.4c4.8,2.1,9,5.5,12.2,9.6c1.9,2.5,5.4-1,3.5-3.5c-3.4-4.4-8.1-8.1-13.2-10.4
			C-484.5,262.9-487,267.2-484.1,268.4L-484.1,268.4z"/>
	</g>
</g>
<g>
	<g>
		<path class="st3" d="M-422,296c4.3-1.9,9.8-2.7,14.7-2.4c3.2,0.2,3.1-4.7,0-4.9c-5.8-0.4-11.8,0.7-17.1,3.1
			C-427.3,293.1-424.8,297.3-422,296L-422,296z"/>
	</g>
</g>
<g>
	<g>
		<path class="st3" d="M-466.9,547.2c4.8,2.1,9,5.5,12.2,9.6c1.9,2.5,5.4-1,3.5-3.5c-3.4-4.4-8.1-8.1-13.2-10.4
			C-467.3,541.7-469.8,546-466.9,547.2L-466.9,547.2z"/>
	</g>
</g>
<g>
	<g>
		<path class="st3" d="M-420.2,325.3c-0.7-0.9,0.5,0.7,0.6,0.9c0.6,0.9,1.2,1.9,1.7,2.9c1.7,3.1,2.8,6.4,3.5,9.9
			c0.5,3.1,5.3,1.8,4.7-1.3c-1-5.7-3.5-11.3-7.1-15.9C-418.7,319.4-422.1,322.9-420.2,325.3L-420.2,325.3z"/>
	</g>
</g>
<g>
	<g>
		<path class="st0" d="M-593.3,334.5c-0.7-0.9,0.5,0.7,0.6,0.9c0.6,0.9,1.2,1.9,1.7,2.9c1.7,3.1,2.8,6.4,3.5,9.9
			c0.5,3.1,5.3,1.8,4.7-1.3c-1-5.7-3.5-11.3-7.1-15.9C-591.8,328.5-595.2,332-593.3,334.5L-593.3,334.5z"/>
	</g>
</g>
<g>
	<g>
		<path class="st4" d="M-331,305.5c3.2-4.1,7.5-7.4,12.3-9.5c2.9-1.3,0.4-5.5-2.5-4.2c-5,2.2-9.9,5.9-13.3,10.3
			C-336.4,304.5-333,308-331,305.5L-331,305.5z"/>
	</g>
</g>
<g>
	<g>
		<path class="st4" d="M-298.9,566.5c5.8,0.5,11.8-0.7,17.2-3c2.9-1.2,0.4-5.4-2.5-4.2c-4.5,1.9-9.8,2.7-14.7,2.3
			C-302.1,561.4-302.1,566.3-298.9,566.5L-298.9,566.5z"/>
	</g>
</g>
<g>
	<g>
		<path class="st4" d="M-427.5,262.7c5.8,0.5,11.8-0.7,17.2-3c2.9-1.2,0.4-5.4-2.5-4.2c-4.5,1.9-9.8,2.7-14.7,2.3
			C-430.7,257.5-430.7,262.4-427.5,262.7L-427.5,262.7z"/>
	</g>
</g>
<g>
	<g>
		<path class="st0" d="M-616.7,522.7c-5.1,2.2-9.8,6-13.2,10.3c-1.9,2.4,1.5,5.9,3.5,3.5c3.2-4.1,7.5-7.5,12.3-9.5
			C-611.3,525.7-613.8,521.4-616.7,522.7L-616.7,522.7z"/>
	</g>
</g>
<g>
	<g>
		<path class="st1" d="M-554,414.6c-5.5,1.7-10.8,5-14.8,9.1c-2.2,2.3,1.3,5.7,3.5,3.5c3.5-3.5,7.9-6.4,12.7-7.8
			C-549.7,418.4-551,413.6-554,414.6L-554,414.6z"/>
	</g>
</g>
<g>
	<path class="st2" d="M-648.8,383.8c0,0,6.4,5.3,14.6,6.8"/>
	<g>
		<path class="st2" d="M-650.5,385.6c4.5,3.7,10,6.3,15.7,7.4c3.1,0.6,4.4-4.1,1.3-4.7c-4.7-0.9-10.4-3.5-13.6-6.1
			C-649.4,380.1-652.9,383.6-650.5,385.6L-650.5,385.6z"/>
	</g>
</g>
<g>
	<g>
		<path class="st3" d="M-423.9,385.5c-4.3-3.9-9.7-6.8-15.3-8.3c-3.1-0.8-4.4,3.9-1.3,4.7c4.8,1.2,9.5,3.6,13.1,7
			C-425.1,391.1-421.6,387.7-423.9,385.5L-423.9,385.5z"/>
	</g>
</g>
<g>
	<g>
		<path class="st3" d="M-282.3,517.2c-4.3-3.9-9.7-6.8-15.3-8.3c-3.1-0.8-4.4,3.9-1.3,4.7c4.8,1.2,9.5,3.6,13.1,7
			C-283.4,522.8-280,519.4-282.3,517.2L-282.3,517.2z"/>
	</g>
</g>
<g>
	<g>
		<path class="st3" d="M-464.8,498.4c-5.5-1.9-11.6-2.2-17.4-1.4c-3.1,0.5-1.8,5.2,1.3,4.7c4.9-0.7,10.1-0.3,14.8,1.4
			C-463.1,504.2-461.8,499.5-464.8,498.4L-464.8,498.4z"/>
	</g>
</g>
<g>
	<g>
		<path class="st3" d="M-631.9,446.6c-5.7-1.4-11.8-1.3-17.4,0c-3.1,0.7-1.8,5.5,1.3,4.7c4.8-1.1,10-1.2,14.8,0
			C-630.1,452.1-628.8,447.4-631.9,446.6L-631.9,446.6z"/>
	</g>
</g>
<g>
	<g>
		<path class="st0" d="M-357.2,282c-5.7-1.4-11.8-1.3-17.4,0c-3.1,0.7-1.8,5.5,1.3,4.7c4.8-1.1,10-1.2,14.8,0
			C-355.4,287.5-354.1,282.8-357.2,282L-357.2,282z"/>
	</g>
</g>
<g>
	<g>
		<path class="st4" d="M-593.2,447.1c2.8-5.1,4.2-11.1,4.3-16.9c0-3.2-4.9-3.2-4.9,0c-0.1,4.9-1.3,10.1-3.6,14.4
			C-598.9,447.4-594.7,449.8-593.2,447.1L-593.2,447.1z"/>
	</g>
</g>
<g>
	<g>
		<path class="st4" d="M-530.4,401.3c-2.4-4.4-3.6-9.5-3.6-14.4c0-3.2-4.9-3.2-4.9,0c0.1,5.8,1.5,11.8,4.3,16.9
			C-533.1,406.5-528.9,404-530.4,401.3L-530.4,401.3z"/>
	</g>
</g>
<g>
	<g>
		<path class="st0" d="M-568.4,477.2c-4.8-2.1-9.1-5.5-12.3-9.5c-2-2.5-5.4,1-3.5,3.5c3.4,4.3,8.2,8.1,13.2,10.3
			C-568,482.7-565.5,478.5-568.4,477.2L-568.4,477.2z"/>
	</g>
</g>
<g>
	<g>
		<path class="st1" d="M-529,457.7c-4.7-1.5-9.2-4.3-12.7-7.8c-2.2-2.3-5.7,1.2-3.5,3.5c4,4.1,9.3,7.4,14.8,9.1
			C-527.3,463.4-526,458.7-529,457.7L-529,457.7z"/>
	</g>
</g>
<g>
	<path class="st2" d="M-549.9,573.3c0,0,6.4-5.3,14.6-6.8"/>
	<g>
		<path class="st2" d="M-548.1,575c3.2-2.6,8.8-5.2,13.6-6.1c3.1-0.6,1.8-5.3-1.3-4.7c-5.7,1.1-11.2,3.7-15.7,7.4
			C-554,573.6-550.5,577-548.1,575L-548.1,575z"/>
	</g>
</g>
<g>
	<g>
		<path class="st3" d="M-306.9,381.7c-3.6,3.4-8.4,5.8-13.1,7c-3.1,0.8-1.8,5.5,1.3,4.7c5.6-1.4,11-4.3,15.3-8.3
			C-301.1,383.1-304.6,379.6-306.9,381.7L-306.9,381.7z"/>
	</g>
</g>
<g>
	<g>
		<path class="st3" d="M-607.3,465.4c-3.6,3.4-8.4,5.8-13.1,7c-3.1,0.8-1.8,5.5,1.3,4.7c5.6-1.4,11-4.3,15.3-8.3
			C-601.5,466.8-605,463.3-607.3,465.4L-607.3,465.4z"/>
	</g>
</g>
<g>
	<g>
		<path class="st3" d="M-350.4,400.4c-4.8,1.2-10.1,1.1-14.8,0c-3.1-0.7-4.4,4-1.3,4.7c5.7,1.3,11.8,1.4,17.4,0
			C-346,404.3-347.3,399.6-350.4,400.4L-350.4,400.4z"/>
	</g>
</g>
<g>
	<g>
		<path class="st0" d="M-342.1,487.2c-4.8,1.2-10.1,1.1-14.8,0c-3.1-0.7-4.4,4-1.3,4.7c5.7,1.3,11.8,1.4,17.4,0
			C-337.7,491.2-339,486.4-342.1,487.2L-342.1,487.2z"/>
	</g>
</g>
<g>
	<g>
		<path class="st0" d="M-550.2,369.5c-4.8,1.2-10.1,1.1-14.8,0c-3.1-0.7-4.4,4-1.3,4.7c5.7,1.3,11.8,1.4,17.4,0
			C-545.8,373.4-547.1,368.7-550.2,369.5L-550.2,369.5z"/>
	</g>
</g>
<g>
	<g>
		<path class="st4" d="M-297.2,462.9c2.4,4.4,3.6,9.5,3.6,14.4c0,3.2,4.9,3.2,4.9,0c-0.1-5.8-1.5-11.8-4.3-16.9
			C-294.5,457.6-298.7,460.1-297.2,462.9L-297.2,462.9z"/>
	</g>
</g>
<g>
	<g>
		<path class="st4" d="M-524.1,496.2c-2.8,5.1-4.2,11.1-4.3,16.9c0,3.2,4.9,3.2,4.9,0c0.1-4.9,1.3-10.1,3.6-14.4
			C-518.4,495.9-522.6,493.4-524.1,496.2L-524.1,496.2z"/>
	</g>
</g>
<g>
	<g>
		<path class="st0" d="M-511.7,365.7c3.6-3.4,8.3-5.8,13.1-7.1c3-0.8,1.8-5.5-1.3-4.7c-5.6,1.5-11,4.4-15.3,8.4
			C-517.5,364.4-514,367.9-511.7,365.7L-511.7,365.7z"/>
	</g>
</g>
<g>
	<g>
		<path class="st0" d="M-360.4,595.4c4.4-2.2,9.6-3.2,14.5-3c3.2,0.1,3.2-4.8,0-4.9c-5.8-0.2-11.8,1.1-17,3.7
			C-365.7,592.5-363.2,596.8-360.4,595.4L-360.4,595.4z"/>
	</g>
</g>
<g>
	<g>
		<path class="st1" d="M-502.2,599.6c3.2-3.7,7.6-6.8,12.2-8.6c2.9-1.1,1.7-5.9-1.3-4.7c-5.4,2.1-10.6,5.4-14.3,9.8
			C-507.7,598.5-504.3,602-502.2,599.6L-502.2,599.6z"/>
	</g>
</g>
<g>
	<g>
		<path class="st1" d="M-393.7,409.6c3.2-3.7,7.6-6.8,12.2-8.6c2.9-1.1,1.7-5.9-1.3-4.7c-5.4,2.1-10.6,5.4-14.3,9.8
			C-399.2,408.5-395.8,411.9-393.7,409.6L-393.7,409.6z"/>
	</g>
</g>
<g>
	<g>
		<path class="st1" d="M-604.8,402.1c0.4-4.8,2.4-9.9,5.1-14c1.7-2.6-2.5-5.1-4.2-2.5c-3.2,4.9-5.2,10.6-5.7,16.4
			C-610,405.2-605.1,405.2-604.8,402.1L-604.8,402.1z"/>
	</g>
</g>
<g>
	<g>
		<path class="st1" d="M-322.6,615.4c3.2-3.7,7.6-6.8,12.2-8.6c2.9-1.1,1.7-5.9-1.3-4.7c-5.4,2.1-10.6,5.4-14.3,9.8
			C-328.1,614.3-324.6,617.8-322.6,615.4L-322.6,615.4z"/>
	</g>
</g>
<g>
	<path class="st2" d="M-332.5,515.1c0,0,2.3,8,0.4,16.1"/>
	<g>
		<path class="st2" d="M-334.9,515.8c1.3,4.8,1.4,10,0.4,14.8c-0.7,3.1,4.1,4.4,4.7,1.3c1.2-5.7,1.2-11.8-0.4-17.4
			C-331,511.4-335.7,512.7-334.9,515.8L-334.9,515.8z"/>
	</g>
</g>
<g>
	<g>
		<path class="st3" d="M-495,451.6c-1.6-4.7-2.1-9.9-1.3-14.8c0.5-3.1-4.2-4.4-4.7-1.3c-0.9,5.7-0.6,11.9,1.3,17.4
			C-498.7,455.9-493.9,454.6-495,451.6L-495,451.6z"/>
	</g>
</g>
<g>
	<g>
		<path class="st3" d="M-493,402.7c0.8-5.1,3.1-10.1,6.2-14.2c1.9-2.5-2.3-5-4.2-2.5c-3.4,4.4-5.8,9.9-6.7,15.4
			C-498.3,404.5-493.5,405.8-493,402.7L-493,402.7z"/>
	</g>
</g>
<g>
	<g>
		<path class="st0" d="M-596.2,592.2c0.8-5.1,3.1-10.1,6.2-14.2c1.9-2.5-2.3-5-4.2-2.5c-3.4,4.4-5.8,9.9-6.7,15.4
			C-601.4,593.9-596.7,595.3-596.2,592.2L-596.2,592.2z"/>
	</g>
</g>
<g>
	<g>
		<path class="st4" d="M-405.4,590.3c-4.9,0.4-10.2-0.4-14.7-2.3c-2.9-1.2-5.4,3-2.5,4.2c5.3,2.3,11.3,3.5,17.2,3
			C-402.3,595-402.3,590-405.4,590.3L-405.4,590.3z"/>
	</g>
</g>
<g>
	<g>
		<path class="st4" d="M-497.5,548.4c-3.4-4.4-8.2-8-13.3-10.3c-2.9-1.3-5.4,3-2.5,4.2c4.7,2.1,9.1,5.4,12.3,9.5
			C-499.1,554.3-495.6,550.8-497.5,548.4L-497.5,548.4z"/>
	</g>
</g>
<g>
	<g>
		<path class="st0" d="M-405.2,444c0-5.8-1.6-11.8-4.3-16.9c-1.5-2.8-5.7-0.3-4.2,2.5c2.3,4.4,3.6,9.5,3.6,14.4
			C-410.1,447.2-405.2,447.2-405.2,444L-405.2,444z"/>
	</g>
</g>
<g>
	<g>
		<path class="st1" d="M-374.2,323c0.6-5.5-0.3-11.5-2.4-16.6c-1.1-2.9-5.9-1.6-4.7,1.3c1.9,4.8,2.8,10.2,2.2,15.3
			C-379.4,326.1-374.5,326.1-374.2,323L-374.2,323z"/>
	</g>
</g>
<g>
	<path class="st2" d="M-395.3,456c0,0-7.5,3.8-12.1,10.7"/>
	<g>
		<path class="st2" d="M-396.5,453.9c-5.2,2.6-9.7,6.9-13,11.6c-1.8,2.6,2.5,5.1,4.2,2.5c2.8-4.1,6.8-7.6,11.2-9.8
			C-391.2,456.7-393.7,452.5-396.5,453.9L-396.5,453.9z"/>
	</g>
</g>
<g>
	<path class="st2" d="M-569.7,536.3c0,0,6.5-5.3,9.5-13.1"/>
	<g>
		<path class="st2" d="M-567.9,538c4.5-3.7,7.9-8.8,10.1-14.2c1.2-2.9-3.6-4.2-4.7-1.3c-1.8,4.6-5,8.9-8.8,12
			C-573.8,536.6-570.4,540-567.9,538L-567.9,538z"/>
	</g>
</g>
<g>
	<path class="st2" d="M-640.9,494.6c0,0-7.5,3.8-12.1,10.7"/>
	<g>
		<path class="st2" d="M-642.1,492.4c-5.2,2.6-9.7,6.9-13,11.6c-1.8,2.6,2.5,5.1,4.2,2.5c2.8-4.1,6.8-7.6,11.2-9.8
			C-636.8,495.2-639.3,491-642.1,492.4L-642.1,492.4z"/>
	</g>
</g>
<g>
	<g>
		<path class="st3" d="M-464.4,624.9c5.1-2.2,9.8-6,13.2-10.4c1.9-2.5-1.5-6-3.5-3.5c-3.2,4.1-7.4,7.5-12.2,9.6
			C-469.8,621.9-467.3,626.2-464.4,624.9L-464.4,624.9z"/>
	</g>
</g>
<g>
	<g>
		<path class="st3" d="M-370.8,453.4c5.3,2.4,11.3,3.5,17.1,3.1c3.1-0.2,3.2-5.1,0-4.9c-4.9,0.3-10.4-0.5-14.7-2.4
			C-371.2,447.9-373.7,452.1-370.8,453.4L-370.8,453.4z"/>
	</g>
</g>
<g>
	<g>
		<path class="st3" d="M-372.9,567.2c5.1-2.2,9.8-6,13.2-10.4c1.9-2.5-1.5-6-3.5-3.5c-3.2,4.1-7.4,7.5-12.2,9.6
			C-378.2,564.2-375.7,568.5-372.9,567.2L-372.9,567.2z"/>
	</g>
</g>
<g>
	<g>
		<path class="st3" d="M-435,427.1c3.6-4.6,6.1-10.2,7.1-15.9c0.5-3.1-4.2-4.4-4.7-1.3c-0.6,3.5-1.8,6.8-3.5,9.9
			c-0.5,1-1.1,1.9-1.7,2.9c-0.2,0.3-1.3,1.8-0.6,0.9C-440.4,426.1-437,429.6-435,427.1L-435,427.1z"/>
	</g>
</g>
<g>
	<g>
		<path class="st0" d="M-468.3,465c3.6-4.6,6.1-10.2,7.1-15.9c0.5-3.1-4.2-4.4-4.7-1.3c-0.6,3.5-1.8,6.8-3.5,9.9
			c-0.5,1-1.1,1.9-1.7,2.9c-0.2,0.3-1.3,1.8-0.6,0.9C-473.7,464-470.3,467.5-468.3,465L-468.3,465z"/>
	</g>
</g>
<g>
	<g>
		<path class="st4" d="M-646.6,610.8c3.4,4.4,8.2,8,13.3,10.3c2.9,1.3,5.4-3,2.5-4.2c-4.7-2.1-9.1-5.4-12.3-9.5
			C-645.1,604.8-648.5,608.3-646.6,610.8L-646.6,610.8z"/>
	</g>
</g>
<g>
	<g>
		<path class="st4" d="M-403.4,367.8c4.9-0.4,10.2,0.4,14.7,2.3c2.9,1.2,5.4-3,2.5-4.2c-5.3-2.3-11.3-3.5-17.2-3
			C-406.5,363.2-406.5,368.1-403.4,367.8L-403.4,367.8z"/>
	</g>
</g>
<g>
	<g>
		<path class="st4" d="M-403.4,495.7c4.9-0.4,10.2,0.4,14.7,2.3c2.9,1.2,5.4-3,2.5-4.2c-5.3-2.3-11.3-3.5-17.2-3
			C-406.5,491.1-406.5,496-403.4,495.7L-403.4,495.7z"/>
	</g>
</g>
</svg>
