<?xml version="1.0" encoding="utf-8"?>
<!-- Generator: Adobe Illustrator 18.1.1, SVG Export Plug-In . SVG Version: 6.00 Build 0)  -->
<!DOCTYPE svg PUBLIC "-//W3C//DTD SVG 1.1//EN" "http://www.w3.org/Graphics/SVG/1.1/DTD/svg11.dtd">
<svg version="1.1" id="Layer_1" xmlns="http://www.w3.org/2000/svg" xmlns:xlink="http://www.w3.org/1999/xlink" x="0px" y="0px"
	 viewBox="0 0 84.9 106.9" style="enable-background:new 0 0 84.9 106.9;" xml:space="preserve">
<style type="text/css">
	.st0{fill:#7BD3F7;}
</style>
<g>
	<path class="st0" d="M34.7,14.5c0,0,52.1,53.8,17.4,75.7c0,0-16.8,8.7-29-9.2c0,0-8.9-16.8,9.3-36.7C32.4,44.4,42.4,30.6,34.7,14.5
		z"/>
	<g>
		<path class="st0" d="M31.5,17.7c5,5.1,9.4,10.8,13.5,16.6c6.9,9.9,14.3,21.8,14.5,34.2c0.1,5.6-1.7,10.8-5.8,14.8
			c-3.3,3.2-5.5,4.3-10.2,4.5c-6.8,0.4-13.6-3.5-16.8-9.5c0.6,1.2-0.3-0.9-0.4-1.3c-0.3-1.1-0.6-2.2-0.7-3.3
			c-0.4-3.1-0.2-6.4,0.5-9.5c2.1-8.8,9-14.2,12.6-22.1c4.4-9.8,4.2-20.1-0.2-29.9c-2.4-5.3-10.1-0.7-7.8,4.5
			c3.5,7.9,3,17.9-2.1,25.1c-3.1,4.3-6.4,7.8-8.6,12.7c-2,4.5-3.3,9.2-3.6,14.1c-0.8,14.5,9.3,27.1,24.3,28.2
			c12.4,0.9,23.5-7.6,26.7-19.5c3.8-14-3.1-29.1-10.3-40.9c-5.5-8.9-12-17.5-19.3-25.1C33.8,7.2,27.5,13.6,31.5,17.7z"/>
	</g>
</g>
</svg>
