<?xml version="1.0" encoding="utf-8"?>
<!-- Generator: Adobe Illustrator 18.1.1, SVG Export Plug-In . SVG Version: 6.00 Build 0)  -->
<!DOCTYPE svg PUBLIC "-//W3C//DTD SVG 1.1//EN" "http://www.w3.org/Graphics/SVG/1.1/DTD/svg11.dtd">
<svg version="1.1" id="Layer_1" xmlns="http://www.w3.org/2000/svg" xmlns:xlink="http://www.w3.org/1999/xlink" x="0px" y="0px"
	 viewBox="0 0 84.9 106.9" style="enable-background:new 0 0 84.9 106.9;" xml:space="preserve">
<style type="text/css">
	.st0{fill:#7BD3F7;}
</style>
<g>
	<path class="st0" d="M50.2,15c0,0-52.1,53.8-17.4,75.7c0,0,16.8,8.7,29-9.2c0,0,8.9-16.8-9.3-36.7C52.5,44.8,42.5,31,50.2,15z"/>
	<g>
		<path class="st0" d="M47.1,11.8c-6.2,6.4-11.8,13.7-16.7,21.1c-7.5,11.3-15.1,25.4-13.8,39.5c1.1,12,9.8,22.8,22,24.6
			c14.8,2.2,28.5-8.5,29.9-23.2c1-10.7-3.5-21.2-10.2-29.3c-6.4-7.7-8.2-17.9-4-27.3c2.3-5.2-5.4-9.8-7.8-4.5
			c-4,8.9-4.7,18.3-1.2,27.5c2.5,6.7,7.7,11.1,10.9,17.4C62.3,69.5,60.8,84.9,46,88c-9.9,2.1-18.9-4.6-20.4-15.1
			C23.9,61,30.9,48.6,37.1,39c4.8-7.4,10.2-14.5,16.4-20.8C57.4,14,51.1,7.6,47.1,11.8z"/>
	</g>
</g>
</svg>
