<?xml version="1.0" encoding="utf-8"?>
<!-- Generator: Adobe Illustrator 18.1.1, SVG Export Plug-In . SVG Version: 6.00 Build 0)  -->
<!DOCTYPE svg PUBLIC "-//W3C//DTD SVG 1.1//EN" "http://www.w3.org/Graphics/SVG/1.1/DTD/svg11.dtd">
<svg version="1.1" id="Layer_1" xmlns="http://www.w3.org/2000/svg" xmlns:xlink="http://www.w3.org/1999/xlink" x="0px" y="0px"
	 viewBox="0 0 269 124.4" style="enable-background:new 0 0 269 124.4;" xml:space="preserve">
<style type="text/css">
	.st0{fill:none;}
	.st1{fill:#F594A0;}
</style>
<g>
	<g>
		<rect x="18.1" y="15.1" class="st0" width="242.6" height="101.1"/>
		<path class="st1" d="M35.4,23v11h9.1v1.2h-9.1v30.4h8.4v1.2H18.8v-1.2h3.8V35.2h-4V34h4v-0.3c0-12.6,4.1-20.2,16.5-20.2
			c8.6,0,11,4.4,11,7.7c0,4.1-2.5,6-5.7,6c-3.7,0-5.5-2.1-5.5-4.9c0-1,0.2-2.1,0.4-3h2.6c1.2-3.4-0.3-4.7-2.1-4.7
			C36,14.7,35.4,17.7,35.4,23z"/>
		<path class="st1" d="M63.1,50.6v-5.3c0-8.8-0.8-11-3.5-11c-1.2,0-3.2,0.6-3.2,2.8c0,0.6,0.1,1.2,0.4,2h1.7
			c0.3,0.9,0.6,1.8,0.6,3.1c0,3.2-2.6,5.4-6.1,5.4c-4.3,0-5.9-2.3-5.9-5.7c0-5.8,5-8.5,14.4-8.5c10.8,0,14.5,3,14.5,13.1v14
			c0,2.8,0.8,3.6,2,3.6c1.2,0,2.4-1.3,2.8-7.1l1,0.1c-0.3,8.3-2.9,10.6-8.8,10.6c-5.6,0-8.7-1.7-9.5-5.1c-1.1,3.3-3.1,5.1-7.9,5.1
			c-4.8,0-10.2-1.5-10.2-8.4c0-7,6-8.6,15.9-8.6H63.1z M63.1,58.2v-6.4h-0.5c-2.9,0-4.3,2.1-4.3,6.3v1.1c0,5,0.5,5.7,1.8,5.7
			C61.5,64.8,63.1,62.6,63.1,58.2z"/>
		<path class="st1" d="M84.9,35.2h-3.8V34h3.8v-8.9l12.8-3.2V34h9v1.2h-9v23.3c0,4.1,0.6,6.3,3,6.3c3.3,0,5.4-3,6-7.7l1.2,0.1
			c-0.6,5.4-2.9,10.4-11.3,10.4c-6.8,0-11.7-2-11.7-10.6V35.2z"/>
		<path class="st1" d="M137.7,23v11h9.1v1.2h-9.1v30.4h8.4v1.2h-25.1v-1.2h3.8V35.2h-4V34h4v-0.3c0-12.6,4.1-20.2,16.5-20.2
			c8.6,0,11,4.4,11,7.7c0,4.1-2.5,6-5.7,6c-3.7,0-5.5-2.1-5.5-4.9c0-1,0.2-2.1,0.4-3h2.6c1.2-3.4-0.3-4.7-2.1-4.7
			C138.3,14.7,137.7,17.7,137.7,23z"/>
		<path class="st1" d="M165.4,50.6v-5.3c0-8.8-0.8-11-3.5-11c-1.2,0-3.2,0.6-3.2,2.8c0,0.6,0.1,1.2,0.4,2h1.7
			c0.3,0.9,0.6,1.8,0.6,3.1c0,3.2-2.6,5.4-6.1,5.4c-4.3,0-5.9-2.3-5.9-5.7c0-5.8,5-8.5,14.4-8.5c10.8,0,14.5,3,14.5,13.1v14
			c0,2.8,0.8,3.6,2,3.6c1.2,0,2.4-1.3,2.8-7.1l1,0.1c-0.3,8.3-2.9,10.6-8.8,10.6c-5.6,0-8.7-1.7-9.5-5.1c-1.1,3.3-3.1,5.1-7.9,5.1
			c-4.8,0-10.2-1.5-10.2-8.4c0-7,6-8.6,15.9-8.6H165.4z M165.4,58.2v-6.4h-0.5c-2.9,0-4.3,2.1-4.3,6.3v1.1c0,5,0.5,5.7,1.8,5.7
			C163.8,64.8,165.4,62.6,165.4,58.2z"/>
		<path class="st1" d="M198.4,48.9v3.6c0,8.8,1.6,12.8,7,12.8c6.3,0,9-5.3,9.7-9l1.2,0.1c-0.9,4.3-3.2,11.3-14.7,11.3
			c-10.6,0-16.6-5.9-16.6-16.7c0-11.6,7-17.5,18.4-17.5c8.4,0,12.6,3.6,12.6,8.8c0,4.3-2.3,6.5-5.7,6.5c-3.6,0-6.1-1.9-6.1-5.7
			c0-0.6,0.1-1.5,0.3-2.5h2.3c0.3-1,0.5-1.8,0.5-2.5c0-2.3-1.4-3.3-3.3-3.3C200.1,34.6,198.4,38.6,198.4,48.9z"/>
		<path class="st1" d="M236.2,33.3c10.8,0,15.5,5.5,15.1,15.7h-19.5v2.7c0,8.1,1.5,13.7,8.1,13.7c5.1,0,8.6-3.2,10.1-8.6l1.2,0.2
			c-1.6,5.9-5.2,10.5-15,10.5c-12.3,0-17.8-7-17.8-17.1C218.5,38.6,226.6,33.3,236.2,33.3z M239,47.7v-3.4c0-7.3-0.6-9.7-3.4-9.7
			c-2.4,0-3.7,2.3-3.7,9.7v3.4H239z"/>
		<path class="st1" d="M40.7,88.5c-0.5-2.3-1.5-4-3-5c-1.5-1-3.3-1.5-5.7-1.5c-1.7,0-3.1,0.3-4.3,1c-1.2,0.7-2.2,1.6-3,2.7
			c-0.8,1.1-1.4,2.4-1.7,3.9c-0.4,1.5-0.6,3-0.6,4.6c0,1.5,0.2,3,0.5,4.5c0.3,1.5,0.8,2.8,1.6,4c0.7,1.2,1.7,2.1,3,2.8
			c1.2,0.7,2.8,1.1,4.7,1.1c1.2,0,2.2-0.2,3.2-0.6c1-0.4,1.8-0.9,2.5-1.6c0.7-0.7,1.3-1.5,1.8-2.4c0.5-0.9,0.9-1.9,1.1-3h2.7
			c-0.3,1.3-0.8,2.6-1.3,3.8c-0.6,1.2-1.4,2.2-2.3,3.1s-2.1,1.6-3.5,2.1c-1.4,0.5-3,0.8-4.8,0.8c-2.1,0-3.9-0.4-5.4-1.2
			c-1.5-0.8-2.7-1.8-3.7-3.2c-1-1.3-1.6-2.9-2.1-4.6c-0.4-1.7-0.6-3.6-0.6-5.6c0-2.6,0.3-4.9,1-6.7c0.6-1.8,1.5-3.3,2.7-4.5
			c1.1-1.2,2.5-2,4-2.5c1.6-0.5,3.2-0.8,5.1-0.8c1.4,0,2.7,0.2,3.9,0.6c1.2,0.4,2.3,0.9,3.2,1.7c0.9,0.7,1.7,1.6,2.3,2.7
			c0.6,1.1,1,2.3,1.2,3.8H40.7z"/>
		<path class="st1" d="M59,95.5V108h-2.6V80.5h10.8c3,0,5.3,0.6,7,1.7c1.6,1.1,2.4,3,2.4,5.5c0,1.7-0.4,3.1-1.1,4.1
			c-0.7,1-1.8,1.9-3.4,2.6c0.8,0.3,1.5,0.7,1.9,1.2c0.5,0.5,0.8,1.1,1,1.8c0.2,0.7,0.4,1.4,0.4,2.2c0.1,0.8,0.1,1.5,0.1,2.2
			c0,1,0.1,1.9,0.1,2.6s0.1,1.2,0.2,1.7c0.1,0.4,0.2,0.8,0.3,1c0.1,0.2,0.3,0.4,0.5,0.6v0.3h-2.9c-0.3-0.5-0.5-1.1-0.6-1.9
			s-0.2-1.7-0.3-2.6c-0.1-0.9-0.1-1.8-0.2-2.6c0-0.8-0.1-1.5-0.2-2.1c-0.2-0.7-0.4-1.3-0.7-1.8c-0.3-0.4-0.8-0.8-1.2-1
			c-0.5-0.2-1-0.4-1.6-0.5c-0.6-0.1-1.2-0.1-1.9-0.1H59z M67.1,93.3c1,0,1.9-0.1,2.7-0.3c0.8-0.2,1.5-0.5,2.2-1
			c0.6-0.4,1.1-1,1.5-1.7c0.4-0.7,0.5-1.5,0.5-2.5c0-1-0.2-1.9-0.6-2.5c-0.4-0.7-0.9-1.2-1.5-1.6c-0.6-0.4-1.3-0.6-2.1-0.8
			c-0.8-0.2-1.6-0.2-2.5-0.2H59v10.6H67.1z"/>
		<path class="st1" d="M89.6,108V80.5h18.3v2.2H92.2v9.9h14.2v2.2H92.2v10.9h16.1v2.2H89.6z"/>
		<path class="st1" d="M118,108l10.8-27.5h2.9l10.5,27.5h-2.7l-3.2-8.6h-12.5l-3.2,8.6H118z M124.8,97.2h10.8l-5.4-14.4L124.8,97.2z
			"/>
		<path class="st1" d="M151.2,80.5h20v2.2h-8.7V108h-2.6V82.7h-8.7V80.5z"/>
		<path class="st1" d="M183.5,108V80.5h2.6V108H183.5z"/>
		<path class="st1" d="M198.4,80.5h2.7l8.3,24.5l8.3-24.5h2.7l-9.6,27.5H208L198.4,80.5z"/>
		<path class="st1" d="M231.8,108V80.5h18.3v2.2h-15.7v9.9h14.2v2.2h-14.2v10.9h16.1v2.2H231.8z"/>
	</g>
</g>
<g>
</g>
<g>
</g>
<g>
</g>
<g>
</g>
<g>
</g>
<g>
</g>
</svg>
